<svg width="219" height="287" viewBox="0 0 219 287" fill="none" xmlns="http://www.w3.org/2000/svg">
<path d="M31.1484 0.796875L33.0234 0.992188L34.8984 1.20703C36.228 1.35294 37.5568 1.55704 38.8828 1.83203L42.6328 2.61328C43.7004 2.83466 44.7606 2.93066 45.8164 2.90625L49.5664 2.82812C50.5726 2.80481 51.5948 2.62467 52.6328 2.30078L56.3828 1.12891C58.1002 0.593747 59.8541 0.580728 61.5781 1.08984L63.4531 1.65625L65.3281 2.20312C66.3025 2.4917 67.2602 2.60171 68.1992 2.53516L71.9492 2.26172C73.147 2.17681 74.3443 2.04915 75.543 1.89062L77.418 1.65625L79.293 1.40234C80.7936 1.20381 82.3084 1.22446 83.8047 1.48047L85.6797 1.8125L87.5547 2.125C88.5746 2.29886 89.5875 2.33439 90.6016 2.22266L92.4766 2.00781L94.3516 1.8125C95.7158 1.66219 97.0869 1.59711 98.4531 1.63672L102.203 1.75391C103.308 1.78562 104.415 1.73243 105.523 1.57812L107.398 1.30469L109.273 1.05078C110.879 0.826685 112.484 0.950333 114.059 1.40234L115.934 1.92969L117.809 2.47656C118.648 2.71795 119.465 2.73153 120.289 2.53516L124.039 1.63672C125.603 1.26274 127.187 1.20849 128.766 1.46094L132.516 2.04688C133.623 2.22435 134.734 2.31877 135.836 2.30078L137.711 2.26172L139.586 2.24219C140.875 2.22118 142.164 2.22192 143.453 2.26172L147.203 2.37891C148.252 2.41122 149.306 2.32351 150.367 2.10547L154.117 1.32422C155.684 1.00169 157.274 0.991382 158.844 1.28516L162.594 1.98828C163.502 2.15694 164.412 2.13829 165.328 1.92969L169.078 1.07031C170.678 0.707369 172.299 0.68957 173.902 1.03125L175.777 1.44141L177.652 1.83203C178.739 2.06343 179.818 2.19041 180.895 2.20312L184.645 2.24219C185.905 2.25639 187.173 2.28805 188.434 2.32031L190.309 2.35938L192.184 2.41797C193.305 2.44671 194.438 2.38601 195.562 2.24219L197.438 2.00781L199.312 1.75391C200.706 1.57599 202.108 1.5241 203.512 1.59766L205.406 1.69531L207.301 1.8125C209.283 1.91733 210.983 2.79066 212.145 4.42969L213.199 5.91406L214.234 7.39844C215.059 8.56479 215.727 9.82738 216.227 11.1875L216.871 12.9453L217.516 14.6836C218.029 16.0849 218.322 17.5412 218.395 19.0391L218.473 20.9141L218.57 22.7891C218.638 24.2014 218.563 25.6196 218.355 27.0273L217.809 30.7773C217.645 31.8892 217.568 33.0098 217.594 34.1172L217.652 35.9922L217.691 37.8672C217.722 39.2086 217.678 40.5504 217.555 41.8906L217.203 45.6406C217.113 46.6202 217.169 47.6126 217.398 48.6094L217.848 50.4844L218.277 52.3594C218.643 53.9519 218.658 55.5652 218.336 57.1641L217.594 60.9141C217.371 62.0196 217.245 63.118 217.223 64.2148L217.145 67.9648C217.117 69.3171 217.005 70.6781 216.812 72.0273L216.266 75.7773C216.12 76.8048 216.118 77.8374 216.246 78.8633L216.715 82.6133C216.865 83.8097 217.056 85.0091 217.281 86.207L217.984 89.957C218.27 91.4797 218.312 93.019 218.082 94.5469L217.789 96.4219L217.516 98.2969C217.351 99.3927 217.28 100.487 217.32 101.578L217.398 103.453L217.457 105.328C217.507 106.702 217.455 108.078 217.301 109.449L217.086 111.324L216.891 113.199C216.773 114.248 216.775 115.294 216.91 116.344L217.379 120.094C217.537 121.32 217.713 122.558 217.906 123.785L218.219 125.66L218.512 127.535C218.777 129.227 218.584 130.909 217.984 132.535L217.301 134.41L216.598 136.285C216.258 137.207 216.151 138.085 216.227 138.941L216.383 140.816L216.559 142.691C216.665 143.897 216.798 145.117 216.969 146.324L217.242 148.199L217.496 150.074C217.687 151.427 217.793 152.781 217.809 154.137L217.848 157.887C217.863 159.192 217.841 160.507 217.77 161.812L217.672 163.688L217.555 165.562C217.493 166.695 217.52 167.828 217.613 168.961L217.926 172.711C218.03 173.979 218.122 175.252 218.199 176.52L218.316 178.395L218.414 180.27C218.507 181.812 218.339 183.349 217.906 184.859L217.359 186.734L216.832 188.609C216.541 189.628 216.404 190.628 216.422 191.617L216.5 195.367C216.523 196.609 216.548 197.855 216.578 199.098L216.656 202.848C216.688 204.146 216.7 205.456 216.656 206.754L216.578 208.629L216.52 210.504C216.488 211.455 216.617 212.423 216.93 213.414L217.535 215.289L218.121 217.164C218.596 218.67 218.814 220.209 218.766 221.754L218.648 225.504C218.602 226.959 218.384 228.407 217.984 229.84L216.93 233.59C216.655 234.576 216.552 235.544 216.617 236.5L216.754 238.375L216.871 240.25C216.952 241.441 217.08 242.632 217.242 243.824L217.75 247.574C217.935 248.938 218.013 250.309 218.004 251.676V253.551L217.984 255.426C217.975 256.704 217.939 257.995 217.887 259.273L217.73 263.023C217.68 264.254 217.641 265.484 217.613 266.715L217.535 270.465C217.503 271.887 217.332 273.308 217.008 274.703L216.559 276.559L216.129 278.395C215.671 280.36 214.479 281.879 212.672 282.77L210.953 283.609L209.254 284.449C207.665 285.232 205.948 285.499 204.195 285.25L202.32 284.996L200.445 284.723C199.537 284.594 198.621 284.646 197.691 284.898L193.941 285.914C192.458 286.317 190.959 286.499 189.449 286.441L187.574 286.363L185.699 286.305C184.255 286.249 182.808 286.025 181.383 285.641L177.633 284.625C176.755 284.389 175.896 284.352 175.035 284.527L171.285 285.309C169.974 285.575 168.654 285.773 167.34 285.934L163.59 286.402C162.125 286.581 160.658 286.572 159.195 286.363L155.445 285.816C154.224 285.641 152.995 285.484 151.773 285.348L149.898 285.133L148.023 284.938C147.049 284.829 146.063 284.878 145.074 285.094L141.324 285.914C139.777 286.252 138.214 286.294 136.656 286.051L132.906 285.465C131.868 285.303 130.834 285.283 129.801 285.387L127.926 285.562L126.051 285.758C124.694 285.894 123.327 285.953 121.969 285.914L118.219 285.797C116.863 285.758 115.508 285.638 114.156 285.426L110.406 284.84C109.235 284.656 108.06 284.519 106.891 284.449L105.016 284.332L103.141 284.234C102.232 284.18 101.307 284.299 100.348 284.625L98.4727 285.27L96.5977 285.895C95.0269 286.429 93.4168 286.643 91.793 286.48L88.043 286.09C86.8722 285.973 85.6969 285.919 84.5273 285.914H82.6523L80.7773 285.895C79.4818 285.889 78.1859 285.856 76.8906 285.777L73.1406 285.543C72.0078 285.474 70.8755 285.492 69.7422 285.582L67.8672 285.719L65.9922 285.875C64.7758 285.971 63.5565 286.085 62.3398 286.227L60.4648 286.441L58.5898 286.676C57.1482 286.844 55.6955 286.845 54.2539 286.676L52.3789 286.441L50.5039 286.227C49.1979 286.073 47.8824 285.864 46.5781 285.621L44.7031 285.289L42.8281 284.938C41.7235 284.732 40.6245 284.612 39.5273 284.605H37.6523L35.7773 284.586C34.7291 284.58 33.6767 284.711 32.6133 284.957L28.8633 285.816C27.2424 286.192 25.6009 286.194 23.9805 285.816L22.1055 285.387L20.2305 284.938C19.1633 284.688 18.1185 284.582 17.1055 284.586H13.4336C11.8173 284.592 10.2652 284.231 8.80469 283.512L7.125 282.672L5.42578 281.852C4.51804 281.404 3.71095 280.747 3.14062 279.84C2.57285 278.934 2.33832 277.917 2.32031 276.91L2.24219 273.082C2.22021 271.776 2.23407 270.478 2.26172 269.195L2.33984 265.445C2.36181 264.42 2.243 263.384 1.98828 262.34L1.53906 260.465L1.07031 258.59C0.729628 257.192 0.534646 255.782 0.464844 254.371L0.269531 250.621C0.204882 249.313 0.181749 248.004 0.210938 246.695L0.269531 244.82L0.308594 242.945C0.342191 241.44 0.593242 239.942 1.07031 238.473L1.67578 236.598L2.30078 234.723C2.58701 233.837 2.65048 232.986 2.51562 232.145L2.20312 230.27L1.91016 228.395C1.71106 227.152 1.51458 225.907 1.30469 224.664L0.972656 222.789L0.660156 220.914C0.377039 219.235 0.52843 217.56 1.08984 215.934L1.73438 214.059L2.39844 212.184C2.66705 211.403 2.67967 210.668 2.47656 209.918L1.46094 206.168C1.01468 204.533 0.961504 202.857 1.32422 201.207L2.14453 197.457C2.32733 196.621 2.31144 195.793 2.06641 194.938L1.51953 193.062L0.992188 191.188C0.52998 189.573 0.432257 187.925 0.738281 186.285L1.44141 182.535C1.65503 181.389 1.80441 180.239 1.87109 179.098L1.96875 177.223L2.08594 175.348C2.14104 174.39 2.03151 173.425 1.75391 172.438L0.699219 168.688C0.199284 166.915 0.292818 165.107 0.933594 163.375L1.61719 161.5L2.32031 159.625C2.61115 158.834 2.63946 158.1 2.45703 157.359L1.98828 155.484L1.53906 153.609C1.12914 151.956 1.13065 150.279 1.55859 148.629L2.53516 144.879C2.79064 143.897 2.86953 142.926 2.78906 141.969L2.47656 138.219C2.36963 136.958 2.27265 135.69 2.18359 134.43L1.91016 130.68C1.81179 129.287 1.84427 127.892 1.98828 126.5L2.37891 122.75C2.50364 121.548 2.59817 120.338 2.65234 119.137L2.80859 115.387C2.86314 114.177 2.88976 112.964 2.88672 111.754V108.004C2.88358 106.761 2.87872 105.517 2.86719 104.273L2.82812 100.523C2.81793 99.4268 2.70464 98.3271 2.49609 97.2227L1.79297 93.4727C1.53337 92.1007 1.37319 90.7104 1.32422 89.332L1.24609 87.457L1.1875 85.582C1.14416 84.3646 1.07819 83.1473 0.992188 81.9297L0.855469 80.0547L0.738281 78.1797C0.64599 76.8735 0.585681 75.5605 0.582031 74.2539V70.5039C0.578313 69.0752 0.712116 67.6438 1.01172 66.2266L1.42188 64.3516L1.8125 62.4766C2.01266 61.5258 2.04009 60.5868 1.89062 59.6445L1.59766 57.7695L1.28516 55.8945C1.06264 54.494 0.973107 53.0819 1.01172 51.6758L1.07031 49.8008L1.10938 47.9258C1.14273 46.7082 1.15949 45.4909 1.14844 44.2734L1.10938 40.5234C1.09833 39.3069 1.0715 38.0878 1.01172 36.8711L0.914062 34.9961L0.835938 33.1211C0.77403 31.8609 0.705608 30.5923 0.660156 29.332L0.601562 27.457L0.523438 25.582C0.472531 24.1521 0.593665 22.7259 0.855469 21.3047L1.1875 19.4297L1.53906 17.5547C1.76451 16.3329 1.97097 15.1175 2.14453 13.9414L2.39844 12.1445L2.67188 10.3281C2.94287 8.4935 3.84549 6.93944 5.28906 5.77734L6.71484 4.625L8.16016 3.47266C8.69702 3.04047 9.22704 2.65266 9.74219 2.35938C10.2135 2.09127 10.8774 1.76599 11.6367 1.69531L12.3594 1.63672L13.0625 1.57812C13.5854 1.5307 14.4913 1.47103 15.7383 1.40234L17.6133 1.30469L19.4883 1.1875C20.7249 1.11938 21.9625 1.0578 23.1992 0.972656L26.9492 0.699219C28.3479 0.602895 29.7514 0.643607 31.1484 0.796875ZM7.88672 111.754C7.88981 113.04 7.86661 114.335 7.80859 115.621L7.73047 117.496L7.63281 119.371C7.57421 120.667 7.47429 121.962 7.33984 123.258L6.94922 127.008C6.83442 128.114 6.83212 129.223 6.91016 130.328L7.02734 132.203L7.16406 134.078C7.25144 135.315 7.35211 136.552 7.45703 137.789L7.76953 141.539C7.90014 143.079 7.77289 144.614 7.37891 146.129L6.40234 149.879C6.1818 150.727 6.17368 151.554 6.38281 152.398L7.32031 156.148C7.75451 157.901 7.63576 159.663 7.00781 161.363L6.30469 163.238L5.62109 165.113C5.33741 165.88 5.30005 166.595 5.50391 167.32L6.03125 169.195L6.57812 171.07C7.00256 172.576 7.17492 174.105 7.08594 175.641L6.85156 179.391C6.77244 180.745 6.61483 182.104 6.36328 183.453L5.66016 187.203C5.4997 188.063 5.54322 188.934 5.79688 189.82L6.32422 191.695L6.87109 193.57C7.33874 195.208 7.3908 196.874 7.02734 198.531L6.20703 202.281C6.02018 203.131 6.04912 203.975 6.28516 204.84L7.30078 208.59C7.7772 210.335 7.71684 212.109 7.125 213.824L6.46094 215.699L5.81641 217.574C5.51797 218.443 5.46363 219.277 5.60156 220.094L6.22656 223.844C6.43835 225.098 6.65064 226.359 6.85156 227.613L7.14453 229.488L7.45703 231.363C7.72006 233.014 7.56755 234.659 7.04688 236.266L5.83594 240.016C5.50147 241.046 5.33079 242.068 5.30859 243.062L5.26953 244.938L5.21094 246.812C5.18457 248.001 5.21074 249.198 5.26953 250.387L5.36719 252.262L5.44531 254.137C5.49955 255.221 5.66588 256.321 5.93359 257.418L6.40234 259.293L6.85156 261.168C7.20497 262.62 7.37154 264.092 7.33984 265.562L7.26172 269.312C7.23563 270.527 7.22131 271.763 7.24219 273.004L7.28125 274.898L7.32031 276.812C7.32478 277.078 7.37483 277.177 7.37891 277.184C7.39354 277.204 7.45373 277.27 7.63281 277.359L9.33203 278.199L11.0117 279.02C11.7992 279.408 12.5921 279.589 13.4141 279.586H17.0859C18.5077 279.581 19.9366 279.741 21.3633 280.074L23.2383 280.504L25.1133 280.953C25.9895 281.157 26.8546 281.156 27.7305 280.953L29.6055 280.523L31.4805 280.074C32.914 279.742 34.3677 279.577 35.8164 279.586L37.6914 279.605H39.5664C40.9631 279.614 42.3569 279.757 43.7461 280.016L47.4961 280.719C48.6918 280.941 49.8958 281.125 51.0898 281.266L54.8398 281.695C55.895 281.819 56.9488 281.818 58.0039 281.695L61.7539 281.266C63.034 281.116 64.3212 280.996 65.6016 280.895L69.3516 280.582C70.7151 280.474 72.0891 280.48 73.4531 280.562L75.3281 280.66L77.2031 280.777C78.4013 280.85 79.599 280.89 80.7969 280.895L82.6719 280.914H84.5469C85.874 280.919 87.2053 280.997 88.5312 281.129L90.4062 281.305L92.2812 281.5C93.1573 281.588 94.067 281.484 94.9961 281.168L96.8711 280.523L98.7461 279.898C100.282 279.377 101.847 279.141 103.434 279.234L107.184 279.469C108.515 279.548 109.859 279.69 111.188 279.898L114.938 280.484C116.079 280.663 117.218 280.764 118.355 280.797L122.105 280.914C123.248 280.947 124.399 280.892 125.543 280.777L127.418 280.602L129.293 280.406C130.752 280.259 132.213 280.297 133.668 280.523L137.418 281.109C138.356 281.256 139.302 281.237 140.25 281.031L144 280.211C145.511 279.881 147.045 279.787 148.57 279.957L152.32 280.387C153.596 280.529 154.873 280.692 156.148 280.875L158.023 281.129L159.898 281.402C160.929 281.55 161.956 281.567 162.984 281.441L166.734 280.973C167.916 280.828 169.105 280.647 170.289 280.406L172.164 280.016L174.039 279.645C175.676 279.311 177.322 279.364 178.941 279.801L182.691 280.816C183.767 281.107 184.839 281.264 185.895 281.305L187.77 281.383L189.645 281.441C190.63 281.479 191.621 281.365 192.633 281.09L196.383 280.074C197.953 279.647 199.551 279.535 201.148 279.762L204.898 280.309C205.651 280.416 206.356 280.297 207.047 279.957L208.746 279.117L210.465 278.277C210.933 278.045 211.15 277.757 211.266 277.262L211.695 275.426L212.125 273.57C212.373 272.507 212.51 271.441 212.535 270.367L212.613 266.617C212.642 265.352 212.698 264.074 212.75 262.809L212.906 259.059C212.956 257.841 212.976 256.624 212.984 255.406L213.004 253.531V251.656C213.012 250.527 212.943 249.39 212.789 248.258L212.281 244.508C212.104 243.203 211.979 241.888 211.891 240.582L211.754 238.707L211.637 236.832C211.532 235.29 211.683 233.755 212.105 232.242L213.16 228.492C213.457 227.429 213.616 226.369 213.648 225.328L213.766 221.578C213.795 220.626 213.668 219.659 213.355 218.668L212.77 216.793L212.164 214.918C211.689 213.412 211.468 211.874 211.52 210.328L211.578 208.453L211.656 206.578C211.696 205.38 211.705 204.182 211.676 202.984L211.617 201.109L211.578 199.234C211.547 197.98 211.523 196.719 211.5 195.465L211.422 191.715C211.394 190.207 211.604 188.702 212.027 187.223L212.555 185.348L213.102 183.473C213.383 182.487 213.492 181.517 213.434 180.562L213.199 176.812C213.124 175.582 213.047 174.351 212.945 173.121L212.633 169.371C212.52 168.007 212.499 166.634 212.574 165.27L212.77 161.52C212.835 160.328 212.861 159.137 212.848 157.945L212.809 154.195C212.795 153.054 212.717 151.902 212.555 150.758L212.281 148.883L212.027 147.008C211.845 145.719 211.692 144.43 211.578 143.141L211.402 141.266L211.246 139.391C211.101 137.75 211.329 136.122 211.91 134.547L212.594 132.672L213.297 130.797C213.617 129.927 213.697 129.101 213.57 128.297L212.984 124.547C212.784 123.277 212.601 122.008 212.438 120.738L212.184 118.863L211.949 116.988C211.763 115.54 211.747 114.082 211.91 112.633L212.34 108.883C212.466 107.757 212.498 106.628 212.457 105.504L212.398 103.629L212.32 101.754C212.269 100.349 212.364 98.9354 212.574 97.5352L213.121 93.7852C213.266 92.8165 213.265 91.8489 213.082 90.875L212.711 89L212.359 87.125C212.115 85.8269 211.917 84.5183 211.754 83.2188L211.285 79.4688C211.102 78.0003 211.115 76.5215 211.324 75.0547L211.598 73.1797L211.852 71.3047C212.015 70.1568 212.121 69.0121 212.145 67.8672L212.223 64.1172C212.251 62.7157 212.411 61.3108 212.691 59.918L213.434 56.168C213.614 55.27 213.603 54.377 213.395 53.4727L212.535 49.7227C212.19 48.2223 212.083 46.7089 212.223 45.1914L212.574 41.4414C212.681 40.2865 212.718 39.1186 212.691 37.9648L212.652 36.0898L212.594 34.2148C212.562 32.8258 212.663 31.4393 212.867 30.0547L213.414 26.3047C213.574 25.2155 213.622 24.1275 213.57 23.043L213.492 21.168L213.395 19.293C213.347 18.2934 213.147 17.3255 212.809 16.4023L212.184 14.6641L211.539 12.9258C211.187 11.9643 210.719 11.0695 210.152 10.2695L209.117 8.80469L208.062 7.32031C207.83 6.99304 207.562 6.82121 207.027 6.79297L205.152 6.69531L203.258 6.59766C202.148 6.53904 201.038 6.57404 199.938 6.71484L198.062 6.96875L196.188 7.20312C194.816 7.37833 193.441 7.45292 192.066 7.41797L190.191 7.35938L188.316 7.32031C187.081 7.28866 185.841 7.25615 184.605 7.24219L180.855 7.20312C179.436 7.18712 178.006 7.03455 176.598 6.73438L174.723 6.32422L172.848 5.93359C171.956 5.74424 171.067 5.74927 170.172 5.95312L166.422 6.8125C164.844 7.17029 163.242 7.18733 161.656 6.89062L159.781 6.55859L157.906 6.20703C156.98 6.03456 156.063 6.03548 155.133 6.22656L153.258 6.61719L151.383 6.98828C149.946 7.28418 148.496 7.42365 147.047 7.37891L143.297 7.26172C142.086 7.22435 140.874 7.22243 139.664 7.24219L137.789 7.26172L135.914 7.30078C134.518 7.32345 133.125 7.21084 131.734 6.98828L129.859 6.69531L127.984 6.38281C127.066 6.23565 126.144 6.27745 125.211 6.5L121.461 7.39844C119.789 7.79839 118.098 7.75653 116.441 7.28125L114.566 6.73438L112.691 6.20703C111.77 5.94196 110.867 5.86887 109.977 5.99219L108.102 6.26562L106.227 6.51953C104.839 6.71312 103.438 6.79424 102.047 6.75391L98.2969 6.63672C97.1652 6.60418 96.032 6.64856 94.8984 6.77344L91.1484 7.20312C89.6653 7.36641 88.1726 7.31917 86.6953 7.06641L84.8203 6.73438L82.9453 6.42188C81.9451 6.25144 80.953 6.23186 79.957 6.36328L78.082 6.59766L76.207 6.85156C74.9071 7.02354 73.6016 7.14999 72.3008 7.24219L68.5508 7.51562C66.9914 7.62603 65.446 7.43921 63.9219 6.98828L60.1719 5.89453C59.3993 5.66573 58.6463 5.67095 57.8672 5.91406L54.1172 7.08594C52.6571 7.54104 51.1754 7.77394 49.6836 7.80859L47.8086 7.86719L45.9336 7.90625C44.4902 7.93969 43.0487 7.81241 41.6172 7.51562L37.8672 6.73438C36.6937 6.49101 35.5215 6.29632 34.3516 6.16797L32.4766 5.97266L30.6016 5.75781C29.5002 5.63705 28.4005 5.62369 27.3008 5.69922L25.4258 5.81641L23.5508 5.95312C22.2894 6.04 21.0232 6.11802 19.7617 6.1875L17.8867 6.28516L13.5117 6.55859L12.8086 6.61719L12.3008 6.65625C12.2808 6.66637 12.254 6.67765 12.2227 6.69531C12.023 6.80888 11.7054 7.02105 11.2852 7.35938L9.85938 8.51172L8.41406 9.68359C7.94899 10.0604 7.69921 10.4788 7.61328 11.0508L7.35938 12.8672L7.08594 14.6836C6.90346 15.9198 6.69648 17.1766 6.46094 18.4531L5.75781 22.2031C5.56001 23.2752 5.48542 24.343 5.52344 25.4062L5.60156 27.2812L5.66016 29.1562C5.70485 30.3954 5.75552 31.6476 5.81641 32.8867L6.01172 36.6367C6.0745 37.917 6.09775 39.204 6.10938 40.4844L6.14844 44.2344C6.15995 45.5105 6.14434 46.7864 6.10938 48.0625L6.07031 49.9375L6.01172 51.8125C5.98168 52.9064 6.05188 54.0138 6.22656 55.1133L6.51953 56.9883L6.83203 58.8633C7.07786 60.4149 7.02102 61.9687 6.69531 63.5117L5.91406 67.2617C5.68609 68.3401 5.57972 69.4174 5.58203 70.4844V74.2344C5.58536 75.4278 5.6344 76.6343 5.71875 77.8281L5.85547 79.7031L5.97266 81.5781C6.06279 82.8543 6.14208 84.1299 6.1875 85.4062L6.24609 87.2812L6.32422 89.1562C6.36406 90.2775 6.48201 91.4075 6.69531 92.5352L7.39844 96.2852C7.66202 97.6782 7.81513 99.0836 7.82812 100.484L7.86719 104.234C7.8788 105.488 7.88356 106.751 7.88672 108.004V111.754Z" fill="#FFCA39"/>
</svg>
