<svg width="268" height="608" viewBox="0 0 268 608" fill="none" xmlns="http://www.w3.org/2000/svg">
<path d="M4 14C4 8.47714 8.47715 4 14 4H254C259.523 4 264 8.47715 264 14V594C264 599.523 259.523 604 254 604H14C8.47716 604 4 599.523 4 594V14Z" fill="#FFF8F0"/>
<path d="M229.508 0.425781C230.92 0.358165 232.338 0.433382 233.746 0.640625L237.496 1.1875C238.606 1.35052 239.711 1.42781 240.816 1.40234L242.691 1.36328L244.566 1.30469C245.913 1.27361 247.264 1.33698 248.609 1.46094L250.484 1.61719L252.359 1.79297C253.672 1.9141 255.006 2.0945 256.344 2.32031L258.258 2.65234L260.172 2.96484C261.193 3.13722 262.184 3.55002 263.004 4.29297C263.824 5.03829 264.333 5.9881 264.605 6.98828L265.113 8.88281L265.641 10.7578C266.042 12.2336 266.233 13.7368 266.207 15.2305L266.168 17.0859L266.129 18.9609C266.106 20.3133 266.009 21.6718 265.816 23.0234L265.27 26.7734C265.123 27.8023 265.121 28.832 265.25 29.8594L265.719 33.6094C265.869 34.8068 266.06 36.0043 266.285 37.2031L266.988 40.9531C267.275 42.4765 267.296 44.0144 267.066 45.543L266.793 47.418L266.5 49.293C266.336 50.3891 266.284 51.4829 266.324 52.5742L266.383 54.4492L266.461 56.3242C266.511 57.6985 266.459 59.0731 266.305 60.4453L265.875 64.1953C265.757 65.2438 265.78 66.2902 265.914 67.3398L266.383 71.0898C266.54 72.3163 266.717 73.5545 266.91 74.7812L267.496 78.5312C267.762 80.2244 267.588 81.9038 266.988 83.5312L266.285 85.4062L265.602 87.2812C265.262 88.203 265.137 89.0811 265.211 89.9375L265.387 91.8125L265.543 93.6875C265.65 94.8936 265.802 96.1135 265.973 97.3203L266.227 99.1953L266.5 101.07C266.691 102.423 266.797 103.777 266.812 105.133L266.852 108.883C266.867 110.188 266.845 111.503 266.773 112.809L266.676 114.684L266.559 116.559C266.497 117.691 266.524 118.824 266.617 119.957L266.93 123.707C267.034 124.975 267.106 126.248 267.184 127.516L267.418 131.266C267.512 132.809 267.343 134.344 266.91 135.855L266.363 137.73L265.836 139.605C265.544 140.624 265.409 141.624 265.426 142.613L265.465 144.488L265.484 146.363C265.507 147.608 265.552 148.868 265.582 150.113L265.66 153.863C265.692 155.159 265.684 156.454 265.641 157.75L265.523 161.5C265.492 162.452 265.621 163.419 265.934 164.41L266.52 166.285L267.125 168.16C267.6 169.666 267.818 171.205 267.77 172.75L267.652 176.5C267.606 177.956 267.369 179.402 266.969 180.836L266.461 182.711L265.934 184.586C265.658 185.572 265.556 186.54 265.621 187.496L265.738 189.371L265.875 191.246C265.956 192.437 266.084 193.628 266.246 194.82L266.754 198.57C266.94 199.937 267.018 201.322 267.008 202.691V204.566L266.988 206.441C266.979 207.717 266.943 208.994 266.891 210.27L266.734 214.02C266.683 215.254 266.645 216.496 266.617 217.73L266.539 221.48C266.513 222.638 266.538 223.799 266.637 224.957L266.812 226.832L266.969 228.707C267.086 230.08 267.096 231.455 267.008 232.828L266.773 236.578C266.688 237.901 266.53 239.222 266.324 240.543L265.738 244.293C265.599 245.186 265.645 246.09 265.895 247.008L266.402 248.883L266.93 250.758C267.334 252.244 267.496 253.757 267.438 255.27L267.379 257.145L267.301 259.02C267.245 260.461 267.02 261.894 266.637 263.316L265.621 267.066C265.384 267.946 265.368 268.802 265.543 269.664L265.914 271.539L266.305 273.414C266.572 274.727 266.788 276.044 266.949 277.359L267.164 279.234L267.398 281.109C267.578 282.579 267.569 284.056 267.359 285.523L266.812 289.273C266.637 290.497 266.48 291.722 266.344 292.945L266.148 294.82L265.934 296.695C265.825 297.667 265.875 298.64 266.09 299.625L266.91 303.375C267.248 304.921 267.289 306.487 267.047 308.043L266.461 311.793C266.298 312.834 266.278 313.881 266.383 314.918L266.578 316.793L266.754 318.668C266.89 320.021 266.949 321.375 266.91 322.73L266.793 326.48C266.754 327.838 266.635 329.209 266.422 330.562L265.836 334.312C265.653 335.48 265.515 336.644 265.445 337.809L265.348 339.684L265.23 341.559C265.176 342.468 265.294 343.411 265.621 344.371L266.266 346.246L266.891 348.121C267.422 349.687 267.637 351.287 267.477 352.906L267.281 354.781L267.105 356.656C266.989 357.826 266.915 359.004 266.91 360.172V362.047L266.891 363.922C266.885 365.216 266.852 366.515 266.773 367.809L266.539 371.559C266.47 372.692 266.488 373.843 266.578 374.977L266.715 376.852L266.871 378.727C266.968 379.943 267.081 381.162 267.223 382.379L267.457 384.254L267.672 386.129C267.84 387.571 267.842 389.022 267.672 390.465L267.438 392.34L267.223 394.215C267.069 395.517 266.879 396.82 266.637 398.121L265.934 401.871C265.728 402.974 265.628 404.076 265.621 405.172L265.602 407.047V408.922C265.595 409.972 265.706 411.04 265.953 412.105L266.812 415.855C267.188 417.478 267.191 419.116 266.812 420.738L266.383 422.613L265.934 424.488C265.693 425.519 265.614 426.541 265.66 427.555L265.816 431.305C265.868 432.435 266.013 433.567 266.227 434.703L266.93 438.453C267.225 440.02 267.21 441.596 266.891 443.16L266.109 446.91C265.883 448.012 265.762 449.118 265.738 450.211L265.66 453.961C265.638 454.985 265.758 456.024 266.012 457.066L266.461 458.941L266.93 460.816C267.27 462.213 267.465 463.625 267.535 465.035L267.73 468.785C267.795 470.095 267.818 471.421 267.789 472.73L267.73 474.605L267.691 476.48C267.657 477.981 267.405 479.469 266.93 480.934L266.324 482.809L265.699 484.684C265.412 485.569 265.351 486.421 265.484 487.262L265.797 489.137L266.09 491.012C266.289 492.252 266.486 493.502 266.695 494.742L267.027 496.617L267.34 498.492C267.623 500.17 267.469 501.848 266.91 503.473L266.266 505.348L265.602 507.223C265.331 508.008 265.318 508.753 265.523 509.508L266.539 513.258C266.985 514.892 267.038 516.55 266.676 518.199L265.855 521.949C265.672 522.784 265.691 523.615 265.934 524.469L266.48 526.344L267.008 528.219C267.47 529.831 267.567 531.483 267.262 533.121L266.559 536.871C266.345 538.018 266.196 539.166 266.129 540.309L266.031 542.184L265.914 544.059C265.858 545.02 265.966 545.996 266.246 546.988L267.301 550.738C267.801 552.511 267.707 554.299 267.066 556.031L266.383 557.906L265.68 559.781C265.385 560.578 265.358 561.321 265.543 562.066L266.012 563.941L266.461 565.816C266.871 567.472 266.871 569.145 266.441 570.797L265.465 574.547C265.209 575.531 265.13 576.498 265.211 577.457L265.523 581.207C265.63 582.468 265.727 583.735 265.816 584.996L266.09 588.746C266.194 590.226 266.08 591.675 265.758 593.082L265.367 594.82L264.977 596.539C264.608 598.15 263.818 599.572 262.574 600.66L261.363 601.715L260.152 602.789C258.924 603.862 257.438 604.447 255.816 604.605L254.098 604.781L252.379 604.938C251.157 605.056 249.885 605.12 248.57 605.133L244.82 605.172C243.721 605.182 242.607 605.294 241.5 605.504L237.75 606.207C236.38 606.466 235.006 606.627 233.629 606.676L231.754 606.754L229.879 606.812C228.661 606.856 227.444 606.922 226.227 607.008L224.352 607.145L222.477 607.262C221.171 607.354 219.857 607.414 218.551 607.418H214.801C213.371 607.422 211.942 607.288 210.523 606.988L208.648 606.578L206.773 606.188C205.823 605.987 204.884 605.961 203.941 606.109L202.066 606.402L200.191 606.715C198.791 606.937 197.379 607.027 195.973 606.988L194.098 606.93L192.223 606.891C191.005 606.857 189.788 606.841 188.57 606.852L184.82 606.891C183.605 606.902 182.384 606.929 181.168 606.988L179.293 607.086L177.418 607.164C176.157 607.226 174.89 607.294 173.629 607.34L171.754 607.398L169.879 607.477C168.445 607.528 167.007 607.408 165.582 607.145L163.707 606.812L161.832 606.461C160.768 606.265 159.704 606.179 158.648 606.227L156.773 606.324L154.898 606.402C153.63 606.46 152.358 606.513 151.09 606.539L149.215 606.559L147.34 606.598C145.951 606.626 144.564 606.551 143.18 606.344L141.305 606.051L139.43 605.777C138.569 605.648 137.694 605.711 136.793 605.992L133.043 607.164C131.549 607.632 130.024 607.856 128.492 607.828L126.617 607.809L124.742 607.77C123.481 607.746 122.215 607.714 120.953 607.672L119.078 607.594L117.203 607.535C116.038 607.496 114.873 607.517 113.707 607.594L111.832 607.73L109.957 607.848C108.51 607.943 107.061 607.857 105.621 607.613L101.871 606.988C100.833 606.813 99.7971 606.777 98.7656 606.871L96.8906 607.047L95.0156 607.203C93.5374 607.338 92.0518 607.277 90.582 607.008L88.707 606.656L86.832 606.324C85.8579 606.147 84.892 606.136 83.9219 606.285L82.0469 606.559L80.1719 606.852C78.8706 607.052 77.5682 607.204 76.2656 607.32L72.5156 607.672C70.8917 607.817 69.278 607.595 67.7109 607.047L65.8359 606.383L63.9609 605.738C62.9587 605.388 61.9866 605.216 61.0312 605.211L59.1562 605.191H57.2812C56.1173 605.185 54.9503 605.236 53.7852 605.348L50.0352 605.699C48.8213 605.815 47.5972 605.959 46.3828 606.129L44.5078 606.402L42.6328 606.656C41.293 606.843 39.9518 606.953 38.6094 606.988L36.7344 607.047L34.8594 607.086C33.3956 607.124 31.9326 606.986 30.4844 606.656L26.7344 605.797C25.6289 605.545 24.5282 605.394 23.4336 605.348L19.6836 605.191C18.6964 605.149 17.6574 605.264 16.5586 605.543L14.5859 606.031L12.6133 606.539C11.5919 606.798 10.4674 606.825 9.37109 606.402C8.26044 605.973 7.45212 605.171 6.89062 604.254L5.875 602.613L4.85938 600.953C4.03307 599.602 3.47246 598.163 3.23828 596.656L2.98438 594.938L2.71094 593.219C2.5483 592.175 2.30293 591.068 1.98828 589.898L1.48047 588.023L0.992188 586.148C0.563356 584.555 0.474968 582.939 0.757812 581.324L1.42188 577.574C1.59961 576.563 1.61819 575.552 1.5 574.547L1.07031 570.797C0.909026 569.428 0.837273 568.047 0.875 566.676L0.933594 564.801L0.972656 562.926C1.0108 561.55 1.15562 560.174 1.40234 558.805L1.75391 556.93L2.08594 555.055C2.26711 554.047 2.29808 553.047 2.18359 552.047L1.75391 548.297C1.58145 546.802 1.62292 545.293 1.89062 543.805L2.24219 541.93L2.57422 540.055C2.73809 539.141 2.70706 538.224 2.49609 537.301L1.63672 533.551C1.33071 532.209 1.11663 530.855 0.972656 529.508L0.777344 527.633L0.5625 525.758C0.409398 524.319 0.438289 522.879 0.621094 521.441L1.08984 517.691C1.25475 516.397 1.45663 515.097 1.69531 513.805L2.39844 510.055C2.59555 508.988 2.66002 507.91 2.61328 506.852L2.45703 503.102C2.4053 501.937 2.28955 500.772 2.125 499.605L1.85156 497.73L1.59766 495.855C1.4177 494.581 1.24778 493.302 1.10938 492.027L0.914062 490.152L0.699219 488.277C0.55216 486.922 0.497154 485.552 0.523438 484.195L0.601562 480.445C0.626077 479.182 0.669295 477.919 0.71875 476.656L0.777344 474.781L0.855469 472.906C0.909605 471.524 1.06985 470.14 1.34375 468.766L1.73438 466.891L2.10547 465.016C2.29255 464.078 2.29972 463.139 2.125 462.203L1.42188 458.453C1.13638 456.92 1.10715 455.379 1.36328 453.844L1.69531 451.969L2.00781 450.094C2.16293 449.167 2.1357 448.237 1.92969 447.301L1.5 445.426L1.08984 443.551C0.769515 442.104 0.636174 440.637 0.679688 439.176L0.796875 435.426C0.839734 433.988 1.04241 432.55 1.40234 431.129L2.33984 427.379C2.53116 426.619 2.51479 425.87 2.24219 425.074L1.57812 423.199L0.933594 421.324C0.356996 419.653 0.259391 417.923 0.640625 416.207L1.46094 412.457C1.72162 411.283 1.92143 410.111 2.06641 408.941L2.53516 405.191C2.6428 404.321 2.55981 403.432 2.26172 402.516L1.05078 398.766C0.514191 397.112 0.39781 395.417 0.757812 393.727L1.16797 391.852L1.55859 389.977C1.76824 388.991 1.81115 388.02 1.69531 387.047L1.26562 383.297C1.10837 381.976 0.992689 380.654 0.953125 379.332L0.914062 377.457L0.855469 375.582C0.816031 374.257 0.835035 372.922 0.914062 371.598L1.03125 369.723L1.12891 367.848C1.21087 366.477 1.39449 365.11 1.67578 363.746L2.45703 359.996C2.67988 358.916 2.77731 357.842 2.76953 356.773V354.898L2.75 353.023C2.74277 352.064 2.57463 351.08 2.22266 350.074L1.55859 348.199L0.914062 346.324C0.366988 344.76 0.146415 343.16 0.289062 341.539L0.445312 339.664L0.621094 337.789C0.73815 336.472 0.904577 335.14 1.12891 333.824L1.44141 331.949L1.77344 330.074C1.97002 328.92 2.09871 327.768 2.16406 326.617L2.26172 324.742L2.37891 322.867C2.439 321.805 2.37791 320.733 2.20312 319.664L1.89062 317.789L1.59766 315.914C1.37777 314.574 1.21767 313.215 1.14844 311.871L0.953125 308.121C0.881311 306.717 0.956881 305.303 1.14844 303.902L1.65625 300.152C1.80371 299.069 1.84072 297.99 1.77344 296.91L1.53906 293.16C1.46676 292.004 1.3287 290.843 1.12891 289.684L0.816406 287.809L0.484375 285.934C0.217035 284.384 0.242668 282.812 0.542969 281.266L0.894531 279.391L1.26562 277.516C1.4561 276.53 1.49151 275.544 1.36328 274.566L0.855469 270.816C0.645301 269.202 0.80311 267.587 1.28516 266.012L1.85156 264.137L2.4375 262.262C2.74426 261.256 2.86617 260.264 2.84766 259.293L2.82812 257.418L2.78906 255.543C2.76754 254.429 2.65777 253.304 2.45703 252.184L2.125 250.309L1.77344 248.434C1.5417 247.139 1.35842 245.843 1.20703 244.547L0.992188 242.672L0.757812 240.797C0.5754 239.234 0.691961 237.668 1.08984 236.129L2.06641 232.379C2.3235 231.386 2.41254 230.398 2.33984 229.43L2.06641 225.68C1.97069 224.403 1.87994 223.128 1.83203 221.852L1.77344 219.977L1.69531 218.102C1.64262 216.695 1.73723 215.284 1.94922 213.883L2.22266 212.008L2.51562 210.133C2.68997 208.982 2.79523 207.823 2.82812 206.676L2.86719 204.801L2.92578 202.926C2.95786 201.801 2.90482 200.674 2.76953 199.547L2.55469 197.672L2.32031 195.797C2.17903 194.62 1.99517 193.441 1.75391 192.262L0.972656 188.512C0.679886 187.082 0.548661 185.636 0.582031 184.195L0.640625 182.32L0.679688 180.445C0.710436 179.127 0.794437 177.798 0.933594 176.48L1.32422 172.73C1.43505 171.676 1.41951 170.623 1.28516 169.566L0.816406 165.816C0.637759 164.412 0.590835 163.005 0.679688 161.598L0.914062 157.848C0.998125 156.521 1.15704 155.188 1.36328 153.863L1.63672 151.988L1.92969 150.113C2.10024 149.017 2.18184 147.922 2.14453 146.832L2.06641 144.957L2.00781 143.082C1.96035 141.687 2.027 140.293 2.22266 138.902L2.49609 137.027L2.75 135.152C2.86665 134.324 2.79181 133.482 2.47656 132.594L1.14844 128.844C0.520144 127.077 0.487514 125.254 1.07031 123.473L1.67578 121.598L2.30078 119.723C2.6054 118.791 2.70021 117.892 2.61328 117.008L2.41797 115.133L2.24219 113.258C2.09992 111.831 2.10021 110.387 2.26172 108.961L2.69141 105.211C2.78811 104.346 2.68817 103.471 2.37891 102.555L1.75391 100.68L1.10938 98.8047C0.615141 97.3415 0.34882 95.8522 0.289062 94.3516L0.132812 90.6016C0.0729537 89.0934 0.24624 87.5926 0.640625 86.1094L1.12891 84.2344L1.63672 82.3594C1.88841 81.413 1.94525 80.4874 1.83203 79.5664L1.36328 75.8164C1.17738 74.3166 1.23458 72.7986 1.5 71.3047L2.16406 67.5547C2.35037 66.5019 2.40218 65.4549 2.33984 64.4102L2.22266 62.5352L2.125 60.6602C2.04435 59.3228 2.02595 57.9743 2.08594 56.6367L2.16406 54.7617L2.26172 52.8867C2.31326 51.7355 2.28698 50.5814 2.20312 49.4297L1.92969 45.6797C1.82891 44.2933 1.83967 42.9053 1.96875 41.5195L2.32031 37.7695C2.41974 36.7029 2.41682 35.6351 2.28125 34.5664L2.02734 32.6914L1.79297 30.8164C1.64176 29.6256 1.44318 28.4349 1.20703 27.2422L0.464844 23.4922C0.181902 22.0637 0.0748961 20.6202 0.113281 19.1758L0.152344 17.2812L0.210938 15.4062C0.255567 13.7375 0.698732 12.138 1.5 10.6406L2.4375 8.86328L3.39453 7.10547C4.32182 5.37504 5.77086 4.13895 7.69141 3.62891L9.46875 3.14062L11.2656 2.67188C11.6666 2.56533 11.9737 2.46822 12.2031 2.39844C12.5095 2.09474 12.7773 1.91469 12.8672 1.87109C13.0962 1.75973 13.3176 1.68727 13.4336 1.65625C13.6732 1.59278 13.9207 1.56504 14.1172 1.53906C14.5384 1.48363 15.0957 1.43774 15.7383 1.40234L17.6133 1.30469L19.4883 1.1875C20.7249 1.11938 21.9625 1.0578 23.1992 0.972656L26.9492 0.699219C28.3479 0.602895 29.7514 0.643607 31.1484 0.796875L33.0234 0.992188L34.8984 1.20703C36.228 1.35294 37.5568 1.55704 38.8828 1.83203L42.6328 2.61328C43.7004 2.83466 44.7606 2.93066 45.8164 2.90625L49.5664 2.82812C50.5726 2.80481 51.5948 2.62467 52.6328 2.30078L56.3828 1.12891C58.1002 0.593747 59.8541 0.580728 61.5781 1.08984L63.4531 1.65625L65.3281 2.20312C66.3025 2.4917 67.2602 2.60171 68.1992 2.53516L71.9492 2.26172C73.147 2.17681 74.3443 2.04915 75.543 1.89062L77.418 1.65625L79.293 1.40234C80.7936 1.20381 82.3084 1.22446 83.8047 1.48047L85.6797 1.8125L87.5547 2.125C88.5746 2.29886 89.5875 2.33439 90.6016 2.22266L92.4766 2.00781L94.3516 1.8125C95.7158 1.66219 97.0869 1.59711 98.4531 1.63672L102.203 1.75391C103.308 1.78562 104.415 1.73243 105.523 1.57812L107.398 1.30469L109.273 1.05078C110.879 0.826685 112.484 0.950332 114.059 1.40234L115.934 1.92969L117.809 2.47656C118.648 2.71795 119.465 2.73153 120.289 2.53516L124.039 1.63672C125.603 1.26274 127.187 1.20849 128.766 1.46094L132.516 2.04688C133.623 2.22435 134.734 2.31877 135.836 2.30078L137.711 2.26172L139.586 2.24219C140.875 2.22118 142.164 2.22192 143.453 2.26172L147.203 2.37891C148.252 2.41122 149.306 2.32351 150.367 2.10547L154.117 1.32422C155.684 1.00169 157.274 0.991382 158.844 1.28516L162.594 1.98828C163.502 2.15694 164.412 2.13829 165.328 1.92969L169.078 1.07031C170.678 0.707369 172.299 0.68957 173.902 1.03125L175.777 1.44141L177.652 1.83203C178.739 2.06343 179.818 2.19041 180.895 2.20312L184.645 2.24219C185.905 2.25639 187.173 2.28805 188.434 2.32031L190.309 2.35938L192.184 2.41797C193.305 2.44671 194.438 2.38601 195.562 2.24219L197.438 2.00781L199.312 1.75391C200.619 1.58695 201.931 1.47573 203.238 1.40234L205.113 1.30469L206.988 1.1875C208.437 1.10648 209.885 1.19458 211.324 1.46094L215.074 2.16406C215.979 2.33187 216.893 2.32188 217.809 2.10547L221.559 1.20703C222.951 0.878352 224.353 0.688528 225.758 0.621094L229.508 0.425781ZM227.867 5.52344L225.992 5.60156C224.9 5.65414 223.795 5.8094 222.691 6.07031L218.941 6.96875C217.362 7.34067 215.765 7.3798 214.176 7.08594L210.426 6.38281C209.369 6.18682 208.309 6.12872 207.262 6.1875L205.387 6.28516L203.512 6.40234C202.323 6.46917 201.128 6.56263 199.938 6.71484L198.062 6.96875L196.188 7.20312C194.816 7.37833 193.441 7.45292 192.066 7.41797L190.191 7.35938L188.316 7.32031C187.081 7.28866 185.841 7.25615 184.605 7.24219L180.855 7.20312C179.436 7.18712 178.006 7.03455 176.598 6.73438L174.723 6.32422L172.848 5.93359C171.956 5.74424 171.067 5.74927 170.172 5.95312L166.422 6.8125C164.844 7.17029 163.242 7.18733 161.656 6.89062L159.781 6.55859L157.906 6.20703C156.98 6.03456 156.063 6.03548 155.133 6.22656L153.258 6.61719L151.383 6.98828C149.946 7.28418 148.496 7.42365 147.047 7.37891L143.297 7.26172C142.086 7.22435 140.874 7.22243 139.664 7.24219L137.789 7.26172L135.914 7.30078C134.518 7.32345 133.125 7.21084 131.734 6.98828L129.859 6.69531L127.984 6.38281C127.066 6.23565 126.144 6.27745 125.211 6.5L121.461 7.39844C119.789 7.79839 118.098 7.75653 116.441 7.28125L114.566 6.73438L112.691 6.20703C111.77 5.94196 110.867 5.86887 109.977 5.99219L108.102 6.26562L106.227 6.51953C104.839 6.71312 103.438 6.79424 102.047 6.75391L98.2969 6.63672C97.1652 6.60418 96.032 6.64856 94.8984 6.77344L91.1484 7.20312C89.6653 7.36641 88.1726 7.31917 86.6953 7.06641L84.8203 6.73438L82.9453 6.42188C81.9451 6.25144 80.953 6.23186 79.957 6.36328L78.082 6.59766L76.207 6.85156C74.9071 7.02354 73.6016 7.14999 72.3008 7.24219L68.5508 7.51562C66.9914 7.62603 65.446 7.43921 63.9219 6.98828L60.1719 5.89453C59.3993 5.66573 58.6463 5.67095 57.8672 5.91406L54.1172 7.08594C52.6571 7.54104 51.1754 7.77394 49.6836 7.80859L47.8086 7.86719L45.9336 7.90625C44.4902 7.93969 43.0487 7.81241 41.6172 7.51562L37.8672 6.73438C36.6937 6.49101 35.5215 6.29632 34.3516 6.16797L32.4766 5.97266L30.6016 5.75781C29.5002 5.63705 28.4005 5.62369 27.3008 5.69922L25.4258 5.81641L23.5508 5.95312C22.2894 6.04 21.0232 6.11802 19.7617 6.1875L17.8867 6.28516L16.0117 6.40234C15.7067 6.41915 15.455 6.44425 15.25 6.46094C15.1724 6.52081 15.1183 6.56184 15.0938 6.57812C14.9206 6.69304 14.7629 6.78631 14.6641 6.83203C14.4604 6.92593 14.2437 7.00401 14.0586 7.06641C13.6695 7.19745 13.146 7.33387 12.5352 7.49609L10.7578 7.98438L8.96094 8.45312C8.50394 8.57625 8.12224 8.847 7.78906 9.46875L5.91406 12.9844C5.45683 13.8376 5.2349 14.6821 5.21094 15.5234L5.09375 19.3125C5.06571 20.3799 5.15579 21.4479 5.36719 22.5156L5.75781 24.3906L6.12891 26.2656C6.38737 27.5708 6.58793 28.8843 6.75391 30.1914L6.98828 32.0664L7.24219 33.9414C7.42311 35.37 7.43413 36.8077 7.30078 38.2383L6.94922 41.9883C6.84602 43.099 6.84887 44.2181 6.92969 45.3281L7.20312 49.0781C7.30064 50.4225 7.3025 51.7762 7.24219 53.1211L7.08594 56.8711C7.03425 58.0299 7.03568 59.1887 7.10547 60.3477L7.33984 64.0977C7.42714 65.5453 7.3413 66.994 7.08594 68.4336L6.42188 72.1836C6.24317 73.1894 6.2199 74.1915 6.34375 75.1914L6.55859 77.0664L6.79297 78.9414C6.98837 80.5179 6.87344 82.0974 6.46094 83.6484L5.97266 85.5234L5.46484 87.3984C5.19573 88.4128 5.09353 89.4167 5.13281 90.4062L5.21094 92.2812L5.26953 94.1562C5.30954 95.1535 5.50599 96.1685 5.85547 97.2031L6.48047 99.0781L7.125 100.953C7.65759 102.531 7.8364 104.147 7.65234 105.777L7.4375 107.652L7.24219 109.527C7.12061 110.601 7.09641 111.678 7.20312 112.75L7.59375 116.5C7.75455 118.112 7.55889 119.721 7.04688 121.285L6.44141 123.16L5.81641 125.035C5.58357 125.752 5.59545 126.433 5.85547 127.164L7.18359 130.914C7.75624 132.524 7.94598 134.186 7.71094 135.855L7.4375 137.73L7.18359 139.605C7.02874 140.708 6.97074 141.808 7.00781 142.906L7.125 146.656C7.17321 148.065 7.08969 149.491 6.87109 150.895L6.28516 154.645C6.10292 155.817 5.9882 156.99 5.91406 158.16L5.67969 161.91C5.61061 163.001 5.63822 164.098 5.77734 165.191L6.24609 168.941C6.42855 170.379 6.4562 171.819 6.30469 173.258L6.10938 175.133L5.89453 177.008C5.76964 178.19 5.70724 179.381 5.67969 180.562L5.62109 182.438L5.58203 184.312C5.55768 185.368 5.65664 186.429 5.875 187.496L6.26562 189.371L6.63672 191.246C6.90637 192.563 7.1229 193.892 7.28125 195.211L7.51562 197.086L7.73047 198.961C7.89448 200.33 7.96511 201.71 7.92578 203.082L7.80859 206.832C7.76951 208.181 7.66085 209.529 7.45703 210.875L7.16406 212.75L6.89062 214.625C6.72451 215.721 6.65448 216.815 6.69531 217.906L6.77344 219.781L6.83203 221.656C6.87763 222.873 6.95555 224.091 7.04688 225.309L7.32031 229.059C7.4353 230.59 7.3006 232.122 6.91016 233.629L5.93359 237.379C5.68562 238.337 5.6292 239.276 5.73828 240.211L6.16797 243.961C6.30767 245.158 6.48075 246.356 6.69531 247.555L7.04688 249.43L7.37891 251.305C7.62531 252.68 7.76232 254.064 7.78906 255.445L7.82812 257.32L7.84766 259.195C7.87672 260.72 7.65853 262.237 7.20312 263.727L6.07031 267.477C5.78896 268.396 5.7015 269.291 5.81641 270.172L6.07031 272.047L6.30469 273.922C6.50383 275.44 6.46084 276.962 6.16797 278.473L5.81641 280.348L5.44531 282.223C5.26026 283.176 5.24278 284.125 5.40625 285.074L5.73828 286.949L6.05078 288.824C6.28157 290.162 6.45519 291.506 6.53906 292.848L6.77344 296.598C6.86161 298.011 6.80971 299.426 6.61719 300.836L6.34375 302.711L6.08984 304.586C5.94013 305.681 5.89723 306.776 5.95312 307.867L6.14844 311.617C6.20797 312.773 6.32953 313.935 6.51953 315.094L7.14453 318.844C7.3788 320.272 7.44044 321.706 7.35938 323.141L7.16406 326.891C7.08813 328.233 6.92348 329.575 6.69531 330.914L6.38281 332.789L6.05078 334.664C5.84892 335.848 5.70664 337.037 5.60156 338.219L5.42578 340.094L5.26953 341.969C5.19167 342.845 5.29461 343.75 5.62109 344.684L6.28516 346.559L6.92969 348.434C7.45111 349.926 7.73841 351.445 7.75 352.984L7.76953 354.859V356.734C7.78012 358.163 7.65197 359.594 7.35938 361.012L6.57812 364.762C6.34522 365.892 6.19638 367.017 6.12891 368.141L5.89453 371.891C5.82437 373.066 5.82049 374.25 5.85547 375.426L5.91406 377.301L5.95312 379.176C5.98813 380.351 6.08642 381.534 6.22656 382.711L6.44141 384.586L6.67578 386.461C6.85657 387.985 6.78294 389.519 6.46094 391.031L6.05078 392.906L5.66016 394.781C5.49068 395.584 5.52489 396.383 5.79688 397.223L6.40234 399.098L7.02734 400.973C7.54194 402.555 7.69803 404.187 7.49609 405.816L7.02734 409.566C6.86256 410.894 6.63771 412.228 6.34375 413.551L5.93359 415.426L5.50391 417.301C5.33243 418.08 5.3767 418.86 5.66016 419.684L6.30469 421.559L6.96875 423.434C7.55374 425.13 7.62204 426.876 7.18359 428.609L6.24609 432.359C5.97276 433.438 5.80898 434.52 5.77734 435.582L5.73828 437.457L5.67969 439.332C5.64942 440.367 5.74063 441.408 5.97266 442.457L6.38281 444.332L6.8125 446.207C7.15783 447.767 7.19235 449.344 6.92969 450.914L6.30469 454.664C6.14454 455.621 6.14588 456.575 6.32422 457.535L7.02734 461.285C7.31937 462.849 7.3193 464.43 7.00781 465.992L6.63672 467.867L6.24609 469.742C6.02253 470.864 5.89913 471.987 5.85547 473.102L5.69922 476.852C5.65105 478.082 5.62544 479.313 5.60156 480.543L5.52344 484.293C5.5013 485.436 5.55547 486.586 5.67969 487.73L5.875 489.605L6.08984 491.48C6.2226 492.704 6.36629 493.929 6.53906 495.152L6.8125 497.027L7.06641 498.902C7.25382 500.23 7.37864 501.557 7.4375 502.887L7.53516 504.762L7.61328 506.637C7.67697 508.079 7.56545 509.52 7.30078 510.953L6.96875 512.828L6.61719 514.703C6.39467 515.908 6.20413 517.113 6.05078 518.316L5.81641 520.191L5.5625 522.066C5.42801 523.122 5.4306 524.176 5.54297 525.23L5.93359 528.98C6.0563 530.129 6.25628 531.284 6.51953 532.438L7.37891 536.188C7.73782 537.759 7.77907 539.353 7.49609 540.934L7.14453 542.809L6.8125 544.684C6.63075 545.694 6.59945 546.707 6.71484 547.711L7.14453 551.461C7.31701 552.956 7.27592 554.465 7.00781 555.953L6.67578 557.828L6.32422 559.703C6.12252 560.826 6.00372 561.946 5.97266 563.062L5.93359 564.938L5.875 566.812C5.84395 567.941 5.89802 569.08 6.03125 570.211L6.24609 572.086L6.48047 573.961C6.65591 575.453 6.60484 576.947 6.34375 578.434L5.67969 582.184C5.52481 583.066 5.57313 583.955 5.81641 584.859L6.32422 586.734L6.8125 588.609C7.16878 589.934 7.45915 591.215 7.65234 592.457L7.90625 594.176L8.17969 595.895C8.30153 596.678 8.59524 597.503 9.11719 598.355L10.1328 599.996L11.1484 601.656C11.1627 601.679 11.1761 601.699 11.1875 601.715C11.2306 601.711 11.2966 601.717 11.3828 601.695L15.3281 600.68C16.8587 600.292 18.3864 600.127 19.8984 600.191L23.6484 600.348C25.0526 600.408 26.4544 600.597 27.8477 600.914L31.5977 601.773C32.648 602.012 33.6878 602.113 34.7227 602.086L36.5977 602.047L38.4727 601.988C39.6281 601.958 40.7912 601.857 41.9492 601.695L45.6992 601.188C46.9821 601.008 48.2634 600.842 49.5469 600.719L53.2969 600.367C54.6285 600.24 55.9681 600.184 57.3008 600.191H59.1758L61.0508 600.211C62.5931 600.219 64.1258 600.489 65.6211 601.012L67.4961 601.676L69.3711 602.32C70.302 602.646 71.1921 602.769 72.0664 602.691L75.8164 602.34C77.0127 602.233 78.2126 602.094 79.4102 601.91L81.2852 601.617L83.1602 601.344C84.6873 601.109 86.2269 601.123 87.75 601.402L89.625 601.754L91.5 602.086C92.527 602.274 93.5478 602.316 94.5664 602.223L96.4414 602.066L98.3164 601.891C99.783 601.757 101.251 601.82 102.711 602.066L106.461 602.691C107.52 602.87 108.573 602.917 109.625 602.848L113.375 602.613C114.708 602.525 116.046 602.49 117.379 602.535L119.254 602.613L121.129 602.672C122.365 602.714 123.603 602.747 124.84 602.77L126.715 602.809L128.59 602.828C129.556 602.846 130.536 602.712 131.539 602.398L135.289 601.227C136.887 600.726 138.534 600.591 140.172 600.836L143.922 601.383C145.031 601.549 146.137 601.62 147.242 601.598L149.117 601.578L150.992 601.539C152.221 601.514 153.454 601.458 154.684 601.402L158.434 601.246C159.875 601.181 161.318 601.275 162.75 601.539L166.5 602.242C167.572 602.44 168.64 602.515 169.703 602.477L171.578 602.398L173.453 602.34C174.69 602.295 175.927 602.244 177.164 602.184L180.914 601.988C182.195 601.925 183.481 601.902 184.762 601.891L188.512 601.852C189.792 601.84 191.079 601.855 192.359 601.891L194.234 601.93L196.109 601.988C197.2 602.018 198.294 601.947 199.391 601.773L201.266 601.48L203.141 601.168C204.696 600.921 206.262 600.978 207.809 601.305L211.559 602.086C212.639 602.314 213.713 602.421 214.781 602.418H218.531C219.725 602.415 220.931 602.366 222.125 602.281L224 602.145L225.875 602.027C227.151 601.937 228.427 601.858 229.703 601.812L231.578 601.754L233.453 601.676C234.575 601.636 235.704 601.518 236.832 601.305L240.582 600.602C241.972 600.339 243.364 600.185 244.762 600.172L248.512 600.133C249.694 600.122 250.825 600.08 251.891 599.977L253.609 599.801L255.328 599.645C255.991 599.58 256.466 599.355 256.852 599.02L258.062 597.965L259.273 596.891C259.643 596.568 259.934 596.123 260.094 595.426L260.484 593.707L260.895 591.969C261.101 591.069 261.161 590.114 261.09 589.098L260.973 587.223L260.836 585.348C260.749 584.112 260.648 582.872 260.543 581.637L260.23 577.887C260.1 576.346 260.227 574.793 260.621 573.277L261.598 569.527C261.815 568.685 261.824 567.866 261.617 567.027L260.68 563.277C260.245 561.523 260.362 559.746 260.992 558.043L261.695 556.168L262.379 554.293C262.662 553.526 262.701 552.812 262.496 552.086L261.969 550.211L261.422 548.336C260.999 546.832 260.824 545.3 260.914 543.766L261.148 540.016C261.228 538.661 261.385 537.303 261.637 535.953L262.34 532.203C262.499 531.345 262.456 530.49 262.203 529.605L261.676 527.73L261.129 525.855C260.659 524.213 260.607 522.537 260.973 520.875L261.793 517.125C261.979 516.276 261.951 515.43 261.715 514.566L260.699 510.816C260.226 509.075 260.285 507.313 260.875 505.602L261.539 503.727L262.184 501.852C262.484 500.98 262.537 500.151 262.398 499.332L261.773 495.582C261.561 494.325 261.35 493.069 261.148 491.812L260.855 489.938L260.543 488.062C260.278 486.407 260.43 484.752 260.953 483.141L262.164 479.391C262.498 478.362 262.669 477.356 262.691 476.363L262.73 474.488L262.789 472.613C262.816 471.423 262.789 470.229 262.73 469.039L262.633 467.164L262.555 465.289C262.501 464.202 262.335 463.108 262.066 462.008L261.598 460.133L261.148 458.258C260.794 456.803 260.628 455.336 260.66 453.863L260.738 450.113C260.769 448.71 260.941 447.309 261.227 445.914L261.598 444.039L261.988 442.164C262.18 441.231 262.183 440.301 262.008 439.371L261.305 435.621C261.05 434.263 260.898 432.902 260.836 431.539L260.738 429.664L260.66 427.789C260.593 426.307 260.729 424.82 261.07 423.355L261.52 421.48L261.949 419.605C262.154 418.73 262.151 417.863 261.949 416.988L261.09 413.238C260.757 411.804 260.593 410.352 260.602 408.902V407.027L260.621 405.152C260.629 403.751 260.752 402.347 261.012 400.953L261.715 397.203C261.937 396.011 262.122 394.82 262.262 393.629L262.691 389.879C262.815 388.825 262.833 387.768 262.711 386.715L262.477 384.84L262.262 382.965C262.112 381.685 261.992 380.397 261.891 379.117L261.734 377.242L261.598 375.367C261.489 374.001 261.475 372.632 261.559 371.266L261.676 369.391L261.773 367.516C261.847 366.313 261.886 365.105 261.891 363.902L261.91 362.027V360.152C261.916 358.824 261.992 357.496 262.125 356.168L262.301 354.293L262.496 352.418C262.584 351.542 262.48 350.652 262.164 349.723L261.52 347.848L260.895 345.973C260.371 344.433 260.135 342.856 260.23 341.266L260.465 337.516C260.544 336.186 260.686 334.858 260.895 333.531L261.48 329.781C261.661 328.635 261.76 327.486 261.793 326.344L261.91 322.594C261.943 321.455 261.907 320.316 261.793 319.176L261.402 315.426C261.255 313.963 261.311 312.49 261.539 311.031L261.812 309.156L262.105 307.281C262.252 306.34 262.235 305.401 262.027 304.449L261.207 300.699C260.877 299.191 260.804 297.671 260.973 296.148L261.168 294.273L261.383 292.398C261.525 291.125 261.689 289.843 261.871 288.57L262.145 286.695L262.398 284.82C262.546 283.788 262.563 282.746 262.438 281.715L262.203 279.84L261.988 277.965C261.844 276.782 261.644 275.595 261.402 274.41L261.012 272.535L260.641 270.66C260.308 269.025 260.36 267.376 260.797 265.758L261.812 262.008C262.101 260.937 262.26 259.876 262.301 258.824L262.457 255.074C262.495 254.087 262.381 253.08 262.105 252.066L261.578 250.191L261.07 248.316C260.642 246.738 260.547 245.134 260.797 243.531L261.383 239.781C261.566 238.605 261.698 237.42 261.773 236.246L262.008 232.496C262.08 231.376 262.083 230.257 261.988 229.137L261.812 227.262L261.656 225.387C261.542 224.049 261.509 222.702 261.539 221.363L261.617 217.613C261.646 216.348 261.682 215.07 261.734 213.805L261.891 210.055C261.941 208.837 261.98 207.62 261.988 206.402L262.008 204.527V202.652C262.016 201.522 261.947 200.387 261.793 199.254L261.285 195.504C261.108 194.199 260.983 192.884 260.895 191.578L260.758 189.703L260.641 187.828C260.537 186.287 260.688 184.75 261.109 183.238L262.164 179.488C262.459 178.429 262.619 177.381 262.652 176.344L262.77 172.594C262.8 171.639 262.673 170.658 262.359 169.664L261.754 167.789L261.168 165.914C260.693 164.409 260.472 162.869 260.523 161.324L260.641 157.574C260.68 156.376 260.689 155.179 260.66 153.98L260.582 150.23C260.551 148.975 260.507 147.716 260.484 146.461L260.465 144.586L260.426 142.711C260.398 141.203 260.608 139.697 261.031 138.219L261.559 136.344L262.105 134.469C262.385 133.488 262.494 132.527 262.438 131.578L262.203 127.828C262.128 126.596 262.031 125.349 261.93 124.117L261.773 122.242L261.637 120.367C261.525 119.007 261.504 117.646 261.578 116.285L261.773 112.535C261.839 111.34 261.865 110.136 261.852 108.941L261.812 105.191C261.799 104.054 261.72 102.914 261.559 101.773L261.012 98.0234C260.828 96.7303 260.677 95.4306 260.562 94.1367L260.406 92.2617L260.23 90.3867C260.086 88.7463 260.333 87.1176 260.914 85.543L261.598 83.668L262.301 81.793C262.618 80.928 262.699 80.1126 262.574 79.3125L262.262 77.4375L261.969 75.5625C261.768 74.2892 261.586 73.0079 261.422 71.7344L260.953 67.9844C260.767 66.5362 260.751 65.0782 260.914 63.6289L261.344 59.8789C261.47 58.7544 261.502 57.6225 261.461 56.5L261.402 54.625L261.324 52.75C261.273 51.3484 261.349 49.9475 261.559 48.5508L261.852 46.6758L262.125 44.8008C262.271 43.8293 262.25 42.8477 262.066 41.8711L261.363 38.1211C261.12 36.8265 260.92 35.5305 260.758 34.2344L260.289 30.4844C260.105 29.0154 260.119 27.5377 260.328 26.0703L260.602 24.1953L260.855 22.3203C261.019 21.1737 261.109 20.023 261.129 18.8828L261.207 15.1328C261.224 14.1353 261.078 13.1238 260.797 12.0859L259.781 8.29688C259.745 8.1655 259.707 8.08273 259.684 8.04297C259.667 8.01579 259.649 8.00882 259.645 8.00391C259.642 8.002 259.623 7.98182 259.586 7.96484C259.545 7.9471 259.471 7.927 259.352 7.90625L257.418 7.57422L255.504 7.24219C254.284 7.0364 253.076 6.88265 251.891 6.77344L250.016 6.59766L248.141 6.44141C246.987 6.33528 245.836 6.27813 244.684 6.30469L242.809 6.36328L240.934 6.40234C239.541 6.4345 238.142 6.35281 236.754 6.14844L234.879 5.85547L233.004 5.58203C231.915 5.42224 230.826 5.37373 229.742 5.42578L227.867 5.52344Z" fill="#FFCA39"/>
</svg>
