<svg width="13" height="13" viewBox="0 0 13 13" fill="none" xmlns="http://www.w3.org/2000/svg">
<path d="M2.10336 4.52563L1.44117 3.92337C1.44117 3.92337 1.41375 3.62376 1.64836 3.52829C1.91547 3.41962 2.17242 3.54758 2.17242 3.54758L2.57765 4.32758L2.10336 4.52563ZM10.8367 4.54594L10.2639 4.09196L10.6488 3.5293C10.6488 3.5293 10.8479 3.36782 11.1922 3.53946C11.4552 3.67047 11.5202 3.92438 11.4898 4.00258C11.4603 4.08079 10.8367 4.54594 10.8367 4.54594Z" fill="#B40E1C"/>
<path d="M2.31055 4.41695L1.99063 4.33062C1.99063 4.33062 1.95406 4.17929 2.02313 4.04523C2.09524 3.90609 2.23641 3.92132 2.23641 3.92132C2.23641 3.92132 1.89617 3.75577 2.04446 3.35054C2.19274 2.94531 2.64672 3.03468 2.64672 3.03468C2.64672 3.03468 2.63656 2.77773 2.84477 2.61929C3.05196 2.46085 3.21039 2.57968 3.21039 2.57968C3.21039 2.57968 3.04992 2.06679 3.44703 1.82913C3.78625 1.62601 4.01985 1.81898 4.01985 1.81898C4.01985 1.81898 4.15696 1.4757 4.53274 1.46859C4.81407 1.46351 4.89938 1.57218 4.89938 1.57218C4.89938 1.57218 4.99789 1.37413 5.15633 1.28577C5.31477 1.1964 5.40922 1.2096 5.40922 1.2096C5.40922 1.2096 5.33711 0.963821 5.41328 0.762727C5.54735 0.407258 5.91703 0.328039 6.19328 0.397102C6.57211 0.491555 6.52539 0.753586 6.52539 0.753586C6.52539 0.753586 6.71735 0.624602 6.89508 0.644914C7.07281 0.664211 7.16625 0.782024 7.16625 0.782024C7.16625 0.782024 7.29016 0.41843 7.70453 0.41843C8.11992 0.41843 8.23774 0.665227 8.25805 0.853117C8.27836 1.04101 8.15344 1.26241 8.15344 1.26241C8.15344 1.26241 8.21336 1.28577 8.23164 1.42796C8.24586 1.53562 8.20422 1.63109 8.20422 1.63109C8.20422 1.63109 8.39516 1.48077 8.77602 1.63109C9.40774 1.87991 9.27571 2.55226 9.27571 2.55226C9.27571 2.55226 9.45852 2.53093 9.59664 2.58984C9.75508 2.65788 9.82821 2.7696 9.82821 2.7696C9.82821 2.7696 9.86375 2.47507 10.2334 2.47304C10.6194 2.47101 10.9352 3.19413 10.8662 3.40132C10.7971 3.60851 10.6092 3.65827 10.6092 3.65827C10.6092 3.65827 10.7809 3.70702 10.8448 3.91523C10.921 4.16101 10.858 4.42202 10.858 4.42202C10.858 4.42202 8.17883 6.05718 8.14938 6.04702C8.11992 6.03687 4.79985 6.29382 4.79985 6.29382L2.31055 4.41695Z" fill="#FFB91F"/>
<path d="M3.5384 4.92273C3.5384 4.9014 3.56887 4.81304 3.62879 4.77445C3.70293 4.72671 3.81364 4.72163 3.81364 4.72163C3.81364 4.72163 3.69176 4.66374 3.62371 4.4728C3.57903 4.3489 3.63387 4.21484 3.63387 4.21484C3.63387 4.21484 3.31192 4.23007 3.23778 3.98632C3.16364 3.74257 3.28043 3.71109 3.28043 3.71109C3.28043 3.71109 3.15145 3.01945 3.69278 3.00726C4.43317 2.99101 4.30621 3.93249 4.30621 3.93249C4.30621 3.93249 4.41184 3.93249 4.47582 3.99038C4.53879 4.04827 4.56012 4.10718 4.56012 4.10718C4.56012 4.10718 4.69825 3.89898 5.02528 3.94874C5.79715 4.06554 5.43762 4.82116 5.43762 4.82116C5.43762 4.82116 5.29442 4.43015 5.0466 4.4139C4.79778 4.39765 4.49106 4.56726 4.49106 4.56726C4.49106 4.56726 4.96129 4.62515 5.08825 4.87398C5.2152 5.1228 5.20504 5.46101 5.20504 5.46101C5.20504 5.46101 4.26356 5.73624 4.24223 5.70476C4.21989 5.67429 3.5384 4.92273 3.5384 4.92273Z" fill="#FCE193"/>
<path d="M4.12449 4.09804C4.05644 4.06859 3.8655 4.23617 3.86144 4.36109C3.85738 4.48601 3.963 4.64547 4.08894 4.65664C4.21386 4.66781 4.33879 4.53883 4.33879 4.4139C4.33879 4.35094 4.20879 4.13461 4.12449 4.09804Z" fill="#E17A2C"/>
<path d="M4.69931 2.69649C4.69931 2.69649 4.19251 2.62336 4.20267 3.0418C4.21587 3.59633 4.84048 3.51407 4.84556 3.54352C4.85063 3.57297 4.87602 3.76188 4.87602 3.76188C4.87602 3.76188 5.12282 3.73344 5.36149 3.87461C5.60017 4.01579 5.70274 4.18133 5.70274 4.18133C5.70274 4.18133 5.75149 3.95282 5.81954 3.85532C5.88759 3.75782 5.96071 3.68469 5.96071 3.68469C5.96071 3.68469 5.96071 3.56282 5.92618 3.46532C5.90181 3.39524 5.84392 3.35868 5.84392 3.35868C5.84392 3.35868 6.39235 3.09868 6.1161 2.66704C5.80431 2.18055 5.30766 2.6325 5.30766 2.6325C5.30766 2.6325 5.11267 2.35016 4.86993 2.41821C4.62618 2.48625 4.69931 2.69649 4.69931 2.69649ZM5.94548 4.52157C5.94548 4.52157 5.79923 4.01985 6.07243 3.87868C6.34563 3.7375 6.5254 3.89797 6.53454 3.86852C6.54368 3.83907 6.96821 3.3861 7.33282 3.39625C7.87313 3.41047 7.99704 3.75375 8.00923 3.79032C8.06915 3.965 7.98993 4.24836 7.98993 4.24836C7.98993 4.24836 8.19407 3.93149 8.48657 3.96094C8.77907 3.99039 8.81157 4.22399 8.81157 4.22399C8.81157 4.22399 9.13454 4.42407 9.11931 4.61399C9.10509 4.80391 8.89993 4.94508 8.89993 4.94508L8.40329 5.43157L7.86806 5.24672C7.86806 5.24672 7.79493 5.00297 7.79493 4.85266C7.79493 4.70133 7.80915 4.58047 7.80915 4.58047C7.80915 4.58047 7.6629 4.65868 7.56134 4.68711C7.45876 4.71657 7.24446 4.72164 7.24446 4.72164C7.24446 4.72164 7.23634 4.59875 7.03017 4.4586C6.57821 4.15188 5.94548 4.52157 5.94548 4.52157Z" fill="#FCE193"/>
<path d="M6.1598 5.19797C6.1598 5.19797 5.99426 4.59672 6.4716 4.58453C7.04137 4.57031 7.12363 5.07609 7.14394 5.35843C7.16324 5.64078 6.40863 6.07445 6.37918 6.05922C6.34973 6.045 5.64285 5.61031 5.64285 5.61031C5.64285 5.61031 5.58902 5.4539 5.70785 5.31476C5.83176 5.1675 6.1598 5.19797 6.1598 5.19797ZM9.32957 4.9207C9.32957 4.9207 9.16402 4.78461 9.21277 4.52664C9.26152 4.26867 9.46059 4.25445 9.46059 4.25445C9.46059 4.25445 9.30926 4.02086 9.38238 3.86953C9.45551 3.7182 9.5723 3.68468 9.94707 3.68976C10.3218 3.69484 10.5118 3.7964 10.6336 3.92843C10.7433 4.04625 10.6722 4.40578 10.6722 4.40578C10.6722 4.40578 10.1177 5.07304 10.0537 5.05781C9.99074 5.04257 9.32957 4.9207 9.32957 4.9207ZM7.77566 3.18297C7.77566 3.18297 7.97066 3.30484 8.03363 3.39726C8.0966 3.48968 8.17988 3.66539 8.17988 3.66539C8.17988 3.66539 8.22051 3.19007 8.41652 2.95851C8.63082 2.70562 8.91012 2.71578 8.91519 2.71578C8.96801 2.71578 9.05637 2.32172 8.85223 2.1125C8.59629 1.85047 8.15652 1.94187 8.16059 1.98148C8.16465 2.02109 8.32105 2.21 8.21949 2.64875C8.12504 3.0489 7.77566 3.18297 7.77566 3.18297ZM6.41269 3.27539C6.4909 3.315 6.63004 3.18398 6.74887 3.12914C6.88496 3.06617 7.06066 3.04179 7.06574 2.97375C7.07082 2.9057 6.87582 2.66195 6.59348 2.79804C6.31113 2.93414 6.32535 3.23172 6.41269 3.27539ZM2.21613 3.51101C2.19176 3.75882 2.44465 3.83601 2.44465 3.83601C2.44465 3.83601 2.41316 4.06453 2.50355 4.19656C2.57668 4.3032 2.72801 4.43523 2.79098 4.42101C2.85395 4.40679 3.05402 4.21687 3.05402 4.20164C3.05402 4.18742 3.04285 3.64203 2.92707 3.44703C2.7666 3.17281 2.2598 3.07125 2.21613 3.51101ZM3.10277 3.18297C3.17082 3.18297 3.23887 3.02757 3.27848 2.96867C3.31707 2.90976 3.46332 2.81328 3.46332 2.81328C3.46332 2.81328 3.23887 2.65789 3.0977 2.79906C2.95652 2.93922 3.0002 3.18297 3.10277 3.18297ZM3.64715 2.74015C3.64715 2.74015 3.78324 2.72593 3.86145 2.73C3.93965 2.73507 4.07066 2.75945 4.07066 2.75945C4.07066 2.75945 4.08996 2.6325 4.23113 2.54007C4.3723 2.44765 4.50332 2.47711 4.50332 2.47711C4.50332 2.47711 4.53277 2.3014 4.64449 2.22422C4.75621 2.14601 4.82426 2.14601 4.82426 2.14601C4.82426 2.14601 4.92785 1.87992 4.77551 1.78039C4.34184 1.49804 4.11941 2.06476 4.04527 2.07695C3.99043 2.08609 3.79949 1.89617 3.59027 2.04242C3.2348 2.29226 3.64715 2.74015 3.64715 2.74015ZM5.02027 2.10234C5.02027 2.10234 5.13707 2.13179 5.22441 2.18461C5.31176 2.23742 5.44379 2.33086 5.44379 2.33086L6.08668 2.31156C6.08668 2.31156 6.22785 2.12672 6.43199 2.04343C6.59855 1.97539 6.79254 1.97031 6.79254 1.97031C6.79254 1.97031 6.81082 1.495 6.41777 1.37109C5.92113 1.2157 5.75559 1.72148 5.75559 1.72148C5.75559 1.72148 5.60934 1.55695 5.43871 1.56101C5.05988 1.57117 5.02027 2.10234 5.02027 2.10234Z" fill="#FCE193"/>
<path d="M5.74544 1.93173C5.68654 1.93173 5.34122 2.22829 5.33208 2.25775C5.32193 2.2872 5.41435 2.33595 5.4245 2.36439C5.43466 2.39384 6.05724 2.32579 6.09177 2.30142C6.12529 2.27704 5.87747 1.93173 5.74544 1.93173ZM4.96747 2.93415C4.97052 2.99204 5.25489 3.37189 5.34224 3.38712C5.42958 3.40236 5.71802 3.0804 5.63474 3.00728C5.59614 2.97275 5.30872 3.01236 5.30872 3.01236C5.30872 3.01236 5.30364 2.79806 5.27927 2.76454C5.25388 2.73001 4.96239 2.83767 4.96747 2.93415Z" fill="#E17A2C"/>
<path d="M5.67332 1.26954C5.74746 1.27157 5.81449 0.99735 5.90184 0.908991C5.98918 0.820632 6.1984 0.733288 6.14965 0.597194C6.1009 0.461101 5.72613 0.499694 5.60426 0.699772C5.46918 0.922194 5.51184 1.26446 5.67332 1.26954ZM6.71027 1.19641C6.72551 1.26344 6.91442 1.34266 6.94387 1.37618C6.97332 1.41071 7.10942 1.53157 7.10942 1.53157C7.10942 1.53157 7.42121 1.45337 7.60606 1.50212C7.7909 1.55087 7.87824 1.68188 7.93207 1.64837C7.9859 1.61383 7.95645 1.4686 7.92699 1.41985C7.89754 1.3711 7.83965 1.27868 7.83965 1.27868C7.83965 1.27868 8.11996 0.843991 7.82949 0.771882C7.41613 0.669304 7.33285 1.08876 7.27902 1.0979C7.2252 1.10704 7.06981 0.942507 6.89918 0.966882C6.72957 0.992272 6.68996 1.10907 6.71027 1.19641ZM6.94387 2.44766C7.01293 2.60102 7.23129 2.61321 7.23129 2.61321C7.23129 2.61321 7.33793 2.95446 7.55731 2.9829C7.77668 3.01235 7.9209 2.78383 7.9666 2.59391C8.02551 2.35016 8.02652 1.82305 7.48418 1.82915C7.07488 1.83423 6.9002 2.35016 6.94387 2.44766ZM9.09496 4.1854C9.16301 4.18337 9.11731 3.78321 9.33262 3.62071C9.5652 3.44501 9.74699 3.47751 9.98567 3.49376C10.2335 3.51001 10.4011 3.58719 10.4529 3.51813C10.5179 3.43282 10.5575 2.83766 10.2193 2.7879C10.0192 2.75844 9.96637 2.95344 9.96637 2.95344C9.96637 2.95344 9.76223 2.90977 9.64949 3.11391C9.57231 3.25508 9.56723 3.34751 9.5327 3.35766C9.51746 3.36173 8.99543 2.55532 8.58816 3.04587C8.16465 3.55673 8.93856 3.98024 8.93856 3.98024C8.93856 3.98024 8.96395 4.19048 9.09496 4.1854Z" fill="#FCE193"/>
<path d="M7.5522 1.9175C7.52477 1.93578 7.5136 2.40906 7.53798 2.41414C7.56235 2.41922 7.86907 2.58476 7.91274 2.54109C7.95642 2.49742 7.95642 2.27297 7.87821 2.12773C7.82946 2.0343 7.6497 1.85351 7.5522 1.9175ZM6.90423 1.32336C6.90017 1.37312 6.9672 1.63515 7.0454 1.6443C7.1754 1.66055 7.41509 1.52242 7.43946 1.47367C7.46384 1.42492 7.42017 1.28375 7.22517 1.235C7.0322 1.18726 6.90931 1.25531 6.90423 1.32336ZM6.95298 4.28797C7.02102 4.36109 7.25665 4.16203 7.34196 4.20062C7.43946 4.2443 7.34196 4.49719 7.4486 4.52664C7.55524 4.55609 7.76954 4.20976 7.74517 4.05945C7.73501 3.99648 7.60907 3.9132 7.47298 3.86445C7.33688 3.8157 7.15204 3.78219 7.06876 3.835C6.98548 3.88781 6.8311 4.15695 6.95298 4.28797ZM9.80079 4.63836C9.80079 4.63836 9.79063 4.32656 9.87392 4.17117C9.95618 4.01578 10.1664 4.04015 10.1999 4.07875C10.2334 4.11734 10.3513 4.39969 10.3513 4.39969L10.1034 4.8232L9.80079 4.63836Z" fill="#E17A2C"/>
<path d="M6.43403 6.23086L5.46309 5.85102L5.43567 5.80836C5.38692 5.73219 4.74708 5.62961 4.74708 5.62961L4.6902 5.61844L3.89293 5.4468L3.87059 5.40821C3.82083 5.32391 3.17895 5.09539 3.17895 5.09539L2.57567 4.85164L2.55942 4.81203C2.50559 4.68305 2.09731 4.45961 2.08817 4.47789L1.90637 4.3875C1.95411 4.29102 2.10543 4.13156 2.33497 4.22399C2.53504 4.30422 2.76356 4.58149 2.81333 4.69117L3.14137 4.86078C3.22161 4.81 3.37293 4.75922 3.58012 4.83133C3.88075 4.93696 3.95997 5.16953 4.02192 5.26602L4.68207 5.40821C4.75215 5.35133 4.90043 5.25586 5.09848 5.28836C5.44481 5.34524 5.52911 5.54531 5.60122 5.64688L6.36192 5.71188C6.43809 5.60727 6.63207 5.38586 6.93372 5.34422C7.21606 5.30461 7.42223 5.40211 7.50551 5.49961L8.2327 5.25485C8.29364 5.16039 8.50387 4.89328 8.83293 4.83336C9.13965 4.7775 9.38036 4.93289 9.49106 5.00297L9.97653 4.75414C10.0283 4.6668 10.1959 4.39461 10.4518 4.31641C10.7718 4.21992 10.9769 4.42203 10.9861 4.42914L10.849 4.57946C10.8449 4.57539 10.1776 4.95422 10.1756 4.95727L10.0324 5.20406L9.47176 5.24063L9.42098 5.2C9.41895 5.19797 8.39215 5.38383 8.39012 5.38688L8.37082 5.42242L7.4527 5.73117L7.40801 5.68344C7.40192 5.67735 6.43403 6.23086 6.43403 6.23086Z" fill="#DFDFDF"/>
<path d="M10.9403 4.73078C10.9169 4.73281 10.726 4.46468 10.4772 4.56828C10.2283 4.67288 9.99067 5.10046 9.99067 5.10046L9.21575 5.22234C9.21575 5.22234 9.11114 5.01109 8.82168 5.09234C8.53223 5.17359 8.27223 5.52906 8.26614 5.5057C8.26004 5.48234 7.41301 5.69867 7.41301 5.69867C7.41301 5.69867 7.24543 5.51179 6.94684 5.58593C6.63809 5.66312 6.47051 6.04195 6.47051 6.04195L5.50872 5.85101C5.50872 5.85101 5.34418 5.57476 5.09536 5.54023C4.84653 5.5057 4.68504 5.6682 4.68504 5.6682L3.967 5.49351C3.967 5.49351 3.85731 5.19288 3.5445 5.08827C3.23168 4.98367 3.08137 5.11671 3.08137 5.11671L2.61622 4.80085C2.61622 4.80085 2.47911 4.57538 2.21809 4.45351C1.95809 4.33163 1.88293 4.54492 1.88293 4.54492L3.50387 11.3648L6.60762 12.6273L9.67176 11.2856C9.67379 11.2866 11.0104 4.72367 10.9403 4.73078Z" fill="white"/>
<path d="M2.10335 4.52563L2.10132 4.51852C2.07288 4.38547 1.99874 4.08383 1.82304 3.94672C1.59452 3.76898 1.44116 3.92234 1.44116 3.92234L3.20327 11.2531L3.6339 11.4177L2.10335 4.52563ZM3.24593 5.07609C3.24593 5.07609 3.21851 4.61805 2.85694 4.50938C2.56952 4.42305 2.55733 4.71859 2.55733 4.71859L3.98632 11.5629L4.53171 11.7823L3.24593 5.07609ZM4.77952 5.60523C4.77952 5.60523 4.63226 5.11266 4.25749 5.07102C3.88272 5.02938 3.9203 5.34422 3.9203 5.34422L4.89022 11.9316L5.43562 12.153L4.77952 5.60523ZM5.97085 5.46609C5.55952 5.4143 5.50265 5.82766 5.50265 5.82766L5.92819 12.3541L6.61069 12.6283L6.48882 6.00844C6.48882 6.00844 6.40249 5.52094 5.97085 5.46609ZM8.33218 5.49148C8.33218 5.49148 8.35351 4.97352 7.89038 5.10453C7.42726 5.23453 7.37647 5.6682 7.37647 5.6682L7.26069 12.3459L7.83554 12.091L8.33218 5.49148ZM10.0496 4.93594C10.0496 4.93594 10.0303 4.52969 9.63319 4.61195C9.21679 4.69727 9.21272 5.11672 9.21272 5.11672L8.48249 11.8127L9.03702 11.568L10.0496 4.93594ZM11.1099 3.96297C10.7687 4.12648 10.7392 4.56523 10.7392 4.56523L9.57632 11.3313L10.1217 11.0896L11.4938 3.99648C11.4928 3.99648 11.4085 3.81977 11.1099 3.96297Z" fill="#ED3D23"/>
</svg>
