<svg width="1088" height="83" viewBox="0 0 1088 83" fill="none" xmlns="http://www.w3.org/2000/svg">
<path d="M4 14C4 8.47715 8.47715 4 14 4H1074C1079.52 4 1084 8.47715 1084 14V69C1084 74.5228 1079.52 79 1074 79H14C8.47718 79 4 74.5228 4 69V14Z" fill="#FFF8F0"/>
<path d="M1082.24 50.1719C1082.24 49.1118 1082.13 48.0424 1081.89 46.9688L1081.46 45.0938L1081.05 43.2188C1080.73 41.7895 1080.56 40.3455 1080.56 38.9023L1080.58 37.0273V35.1523C1080.59 33.8502 1080.63 32.5478 1080.72 31.2461L1080.86 29.3711L1080.97 27.4961C1081.06 26.16 1081.23 24.8251 1081.46 23.4922L1082.12 19.7422C1082.27 18.8849 1082.21 18.0636 1081.95 17.2617L1081.38 15.4844L1080.8 13.6875C1080.46 12.6371 1080.03 11.6367 1079.53 10.6797L1078.67 9.03906L1077.79 7.39844C1077.58 7.00274 1077.31 6.74518 1076.71 6.61719L1072.89 5.79688C1071.95 5.5969 1071.05 5.60498 1070.15 5.79688L1068.28 6.20703L1066.4 6.59766C1064.82 6.9372 1063.22 6.95449 1061.64 6.63672L1059.76 6.26562L1057.89 5.875C1056.78 5.65339 1055.68 5.5417 1054.59 5.52344L1052.71 5.48438L1050.84 5.46484C1049.83 5.44813 1048.8 5.56125 1047.77 5.83594L1044.02 6.85156C1042.62 7.22461 1041.2 7.44228 1039.78 7.53516L1037.91 7.67188L1036.03 7.78906C1034.45 7.89196 1032.88 7.67293 1031.34 7.16406L1029.47 6.55859L1027.59 5.93359C1026.68 5.63 1025.78 5.53518 1024.92 5.64062L1023.04 5.875L1021.17 6.08984C1019.74 6.26343 1018.3 6.27753 1016.87 6.12891L1013.12 5.73828C1012.1 5.63267 1011.08 5.67455 1010.05 5.85547L1006.3 6.51953C1004.92 6.76378 1003.53 6.89875 1002.14 6.91016L1000.27 6.92969H998.395C997.23 6.93928 996.065 7.01945 994.898 7.14453L991.148 7.53516C989.81 7.67889 988.465 7.74993 987.125 7.75H983.375C981.993 7.75007 980.612 7.65531 979.234 7.4375L977.359 7.14453L975.484 6.83203C974.516 6.67906 973.546 6.69128 972.574 6.87109L968.824 7.57422C967.384 7.84022 965.937 7.93053 964.488 7.84766L962.613 7.75L960.738 7.63281C959.276 7.54863 957.818 7.28189 956.383 6.83203L954.508 6.24609L952.633 5.64062C951.74 5.3603 950.869 5.30783 950.016 5.44531L948.141 5.73828L946.266 6.05078C945.042 6.24815 943.818 6.46485 942.594 6.69531L938.844 7.39844C937.216 7.70493 935.568 7.63906 933.961 7.20312L930.211 6.1875C929.228 5.92172 928.257 5.82354 927.301 5.89453L923.551 6.16797C922.334 6.25848 921.116 6.36929 919.898 6.5L918.023 6.71484L916.148 6.91016C914.603 7.0762 913.045 6.97208 911.52 6.59766L909.645 6.12891L907.77 5.67969C906.941 5.47754 906.127 5.48634 905.289 5.71875L903.414 6.22656L901.539 6.75391C899.87 7.21594 898.174 7.22999 896.5 6.79297L892.75 5.81641C891.974 5.61309 891.208 5.63206 890.406 5.89453L888.531 6.5L886.656 7.125C885.127 7.62599 883.564 7.83611 881.988 7.75L880.113 7.65234L878.238 7.53516C876.956 7.46505 875.673 7.3838 874.391 7.26172L872.516 7.06641L870.641 6.89062C869.399 6.77237 868.151 6.66378 866.91 6.55859L863.16 6.24609C861.871 6.13675 860.582 5.98962 859.293 5.81641L855.543 5.30859C854.629 5.18582 853.709 5.2521 852.77 5.50391L850.895 6.01172L849.02 6.5C847.554 6.89293 846.076 7.09184 844.586 7.06641L842.711 7.02734L840.836 7.00781C839.468 6.98409 838.098 6.85198 836.734 6.63672L832.984 6.05078C832.035 5.90097 831.09 5.93013 830.133 6.12891L828.258 6.5L826.383 6.89062C824.716 7.23691 823.042 7.16884 821.402 6.67578L817.652 5.54297C816.651 5.24191 815.671 5.10318 814.703 5.13281L810.953 5.25C809.879 5.28307 808.799 5.43984 807.711 5.69922L803.961 6.59766C802.425 6.96428 800.866 7.04949 799.312 6.85156L797.438 6.59766L795.562 6.36328C794.297 6.20154 793.02 6.02229 791.754 5.83594L788.004 5.28906C787.112 5.15874 786.209 5.20825 785.289 5.46484L781.539 6.51953C780.081 6.9255 778.608 7.12971 777.125 7.125H775.25L773.375 7.10547C772.194 7.10101 771.002 7.15152 769.82 7.24219L767.945 7.37891L766.07 7.53516C764.555 7.65149 763.035 7.52018 761.539 7.16406L759.664 6.71484L757.789 6.28516C756.702 6.02668 755.62 5.86699 754.547 5.83594L752.672 5.79688L750.797 5.73828C749.54 5.7019 748.284 5.65054 747.027 5.60156L745.152 5.52344L743.277 5.46484C742.227 5.4239 741.175 5.5081 740.113 5.71875L736.363 6.46094C734.918 6.74774 733.464 6.86127 732.008 6.79297L730.133 6.69531L728.258 6.61719C727.021 6.55914 725.784 6.502 724.547 6.46094L720.797 6.34375C719.568 6.30298 718.334 6.2777 717.105 6.26562L713.355 6.22656C712.077 6.21405 710.786 6.16491 709.508 6.10938L705.758 5.95312C704.779 5.91151 703.794 6.03239 702.789 6.30469L699.039 7.32031C697.521 7.73259 695.975 7.87203 694.43 7.75L692.555 7.61328L690.68 7.45703C689.347 7.35173 688.005 7.18661 686.676 6.94922L682.926 6.28516C681.759 6.07706 680.593 5.92603 679.43 5.83594L677.555 5.67969L675.68 5.54297C674.523 5.4535 673.359 5.42478 672.203 5.46484L670.328 5.52344L668.453 5.60156C667.105 5.64793 665.757 5.60283 664.41 5.48438L662.535 5.32812L660.66 5.15234C659.799 5.07646 658.91 5.18621 657.984 5.52344L656.109 6.22656L654.234 6.91016C652.665 7.48317 651.043 7.71113 649.41 7.57422L645.66 7.26172C644.444 7.15985 643.224 7.08186 642.008 7.02734L640.133 6.94922L638.258 6.85156C636.962 6.79336 635.666 6.71096 634.371 6.57812L630.621 6.1875C629.368 6.0589 628.105 5.93036 626.852 5.79688L624.977 5.58203L623.102 5.38672C622.249 5.29722 621.378 5.41256 620.465 5.73828L616.715 7.06641C615.106 7.64026 613.443 7.82614 611.773 7.59375L609.898 7.33984L608.023 7.06641C606.748 6.88877 605.47 6.70302 604.195 6.48047L600.445 5.81641C599.419 5.63725 598.398 5.59623 597.379 5.69922L593.629 6.08984C592.173 6.23728 590.707 6.206 589.254 5.99219L587.379 5.69922L585.504 5.42578C584.651 5.30151 583.784 5.37041 582.887 5.66016L579.137 6.87109C577.418 7.42538 575.654 7.46978 573.922 6.96875L570.172 5.875C569.273 5.61654 568.404 5.57823 567.535 5.71875L565.66 6.01172L563.785 6.32422C562.34 6.55961 560.881 6.61495 559.43 6.5L557.555 6.34375L555.68 6.20703C554.699 6.12919 553.711 6.20488 552.711 6.44141L548.961 7.33984C547.392 7.71225 545.797 7.76277 544.215 7.49609L542.34 7.16406L540.465 6.85156C539.436 6.67752 538.402 6.64741 537.379 6.75391L533.629 7.14453C532.34 7.27867 531.051 7.39097 529.762 7.45703L527.887 7.53516L526.012 7.63281C524.656 7.70208 523.284 7.69575 521.93 7.59375L520.055 7.45703L518.18 7.30078C516.969 7.20972 515.758 7.14543 514.547 7.10547L510.797 6.98828C509.62 6.94949 508.439 6.9674 507.262 7.02734L505.387 7.10547L503.512 7.20312C502.036 7.27856 500.558 7.15238 499.098 6.83203L495.348 6.01172C494.508 5.82725 493.667 5.84682 492.809 6.08984L490.934 6.63672L489.059 7.16406C487.615 7.57372 486.151 7.80953 484.684 7.84766L482.809 7.88672L480.934 7.94531C479.438 7.98352 477.951 7.79562 476.48 7.39844L472.73 6.38281C471.792 6.12867 470.869 6.06819 469.957 6.1875L468.082 6.42188L466.207 6.67578C464.745 6.86811 463.275 6.86038 461.812 6.67578L458.062 6.20703C456.892 6.05926 455.716 5.96737 454.547 5.93359L452.672 5.875L450.797 5.83594C449.785 5.80724 448.763 5.90833 447.73 6.16797L445.855 6.63672L443.98 7.125C442.405 7.52048 440.808 7.58499 439.215 7.32031L435.465 6.69531C434.387 6.5163 433.313 6.44915 432.242 6.5L430.367 6.59766L428.492 6.67578C427.203 6.73697 425.914 6.77548 424.625 6.77344H420.875C419.554 6.77128 418.23 6.69647 416.91 6.57812L415.035 6.42188L413.16 6.24609C412.138 6.15428 411.105 6.19386 410.074 6.38281L406.324 7.08594C404.968 7.33449 403.603 7.48843 402.242 7.55469L400.367 7.63281L398.492 7.73047C397.021 7.80172 395.554 7.67853 394.098 7.35938L390.348 6.53906C389.346 6.31908 388.346 6.25024 387.359 6.34375L383.609 6.69531C382.183 6.83039 380.757 6.82561 379.332 6.65625L377.457 6.42188L375.582 6.20703C374.432 6.07011 373.273 6.00834 372.125 6.01172H368.375C367.299 6.01537 366.218 6.12334 365.133 6.34375L361.383 7.125C359.744 7.45873 358.082 7.38995 356.461 6.94922L352.711 5.93359C351.817 5.69145 350.947 5.65661 350.074 5.81641L348.199 6.14844L346.324 6.5C344.726 6.79242 343.124 6.73084 341.539 6.34375L339.664 5.89453L337.789 5.42578C337.03 5.24011 336.269 5.2755 335.465 5.5625L333.59 6.24609L331.715 6.91016C330.117 7.481 328.472 7.68577 326.812 7.47656L324.938 7.24219L323.062 6.98828C321.826 6.83219 320.588 6.69596 319.352 6.55859L317.477 6.34375L315.602 6.14844C314.606 6.03787 313.599 6.06986 312.594 6.26562L310.719 6.63672L308.844 6.98828C307.398 7.2694 305.945 7.38541 304.488 7.30078L300.738 7.06641C299.381 6.98674 298.009 6.83265 296.656 6.57812L292.906 5.875C291.853 5.67724 290.805 5.60128 289.762 5.66016L287.887 5.75781L286.012 5.875C284.83 5.94179 283.64 6.04482 282.457 6.20703L280.582 6.46094L278.707 6.73438C277.247 6.93383 275.774 6.93253 274.312 6.75391L272.438 6.53906L270.562 6.30469C269.308 6.15131 268.047 5.98106 266.793 5.81641L264.918 5.58203L263.043 5.32812C261.928 5.18216 260.815 5.11857 259.703 5.15234L255.953 5.26953C254.851 5.30313 253.744 5.44929 252.633 5.67969L250.758 6.05078L248.883 6.44141C247.569 6.7139 246.254 6.94364 244.938 7.10547L243.062 7.33984L241.188 7.55469C239.766 7.72923 238.334 7.75759 236.91 7.63281L235.035 7.47656L233.16 7.30078C231.879 7.18824 230.594 7.05231 229.312 6.89062L225.562 6.42188C224.56 6.29543 223.561 6.32872 222.555 6.5L218.805 7.125C217.219 7.39582 215.612 7.34122 214.039 6.96875L212.164 6.53906L210.289 6.08984C209.439 5.88995 208.605 5.89158 207.75 6.10938L205.875 6.59766L204 7.06641C202.492 7.4521 200.961 7.59907 199.43 7.47656L195.68 7.16406C194.575 7.0752 193.465 7.08346 192.359 7.18359L188.609 7.53516C187.083 7.67403 185.546 7.56205 184.039 7.20312L180.289 6.30469C179.183 6.04153 178.083 5.87861 176.988 5.81641L175.113 5.69922L173.238 5.60156C172.127 5.53875 171.011 5.55953 169.898 5.67969L168.023 5.89453L166.148 6.08984C164.94 6.22064 163.725 6.38582 162.516 6.57812L158.766 7.16406C157.363 7.38707 155.955 7.47953 154.547 7.4375L152.672 7.39844L150.797 7.33984C149.634 7.30525 148.464 7.3323 147.301 7.41797L143.551 7.69141C142.11 7.7969 140.669 7.72813 139.234 7.49609L137.359 7.18359L135.484 6.89062C134.221 6.68566 132.939 6.47231 131.676 6.24609L129.801 5.89453L127.926 5.5625C126.88 5.37596 125.839 5.31448 124.801 5.38672L121.051 5.66016C119.911 5.73971 118.759 5.89708 117.613 6.12891L115.738 6.5L113.863 6.89062C112.285 7.20887 110.694 7.2014 109.117 6.87109L107.242 6.48047L105.367 6.07031C104.295 5.84513 103.224 5.74534 102.164 5.75781L98.4141 5.79688C97.2928 5.81071 96.1616 5.92229 95.0352 6.10938L91.2852 6.73438C89.7982 6.98135 88.3037 6.99978 86.8125 6.8125L83.0625 6.34375C82.0139 6.21219 80.9661 6.21963 79.918 6.34375L76.168 6.77344C74.7364 6.94298 73.3035 6.96277 71.8711 6.8125L68.1211 6.42188C66.8866 6.29185 65.6446 6.16027 64.4102 6.05078L62.5352 5.89453L60.6602 5.71875C59.4777 5.6139 58.2872 5.57053 57.1055 5.5625L53.3555 5.52344C52.0597 5.51458 50.7642 5.4698 49.4688 5.38672L45.7188 5.15234C44.6694 5.08499 43.6118 5.14255 42.5547 5.32812L38.8047 5.99219C37.5039 6.22046 36.2007 6.39661 34.8984 6.53906L33.0234 6.75391L31.1484 6.94922C29.8345 7.0929 28.5182 7.18458 27.2031 7.22266L23.4531 7.33984C22.0803 7.37942 20.7025 7.30665 19.332 7.14453L17.457 6.92969L15.582 6.69531C14.9193 6.6169 14.2731 6.52208 13.7461 6.36328C13.5598 6.3071 13.3083 6.18233 13.0234 6.03125L12.6914 6.22656L11.4219 6.92969C11.0515 7.1376 10.6465 7.50974 10.25 8.19922L9.37109 9.70312L8.51172 11.207C8.10579 11.913 7.83635 12.7004 7.73047 13.5703L7.51562 15.3477L7.30078 17.1445C7.17403 18.1878 7.14859 19.2736 7.20312 20.3867L7.28125 22.2617L7.37891 24.1367C7.44072 25.3997 7.4825 26.6628 7.51562 27.9258L7.57422 29.8008L7.61328 31.6758C7.64896 33.0392 7.60621 34.4159 7.45703 35.7773L7.24219 37.6523L7.04688 39.5273C6.91702 40.7132 6.81496 41.8972 6.77344 43.082L6.65625 46.832C6.61015 48.1521 6.50081 49.4781 6.34375 50.7969L6.12891 52.6719L5.89453 54.5469C5.76415 55.642 5.7419 56.7352 5.81641 57.8281L5.93359 59.7031L6.07031 61.5781C6.16351 62.9428 6.16258 64.3257 6.07031 65.7188L5.93359 67.6523L5.81641 69.5664C5.76874 70.2861 5.94026 70.9748 6.40234 71.6953L8.58984 75.1328C8.97988 75.7409 9.46835 76.0683 10.1328 76.2266L14.0391 77.1641C15.0697 77.4095 16.0544 77.4573 16.9883 77.3398L24.4883 76.4023L26.3633 76.1875L28.2383 75.9531C29.6543 75.7815 31.0781 75.7604 32.4961 75.875L34.3711 76.0117L36.2461 76.168C37.5094 76.2701 38.772 76.3915 40.0352 76.5195L41.9102 76.7148L43.7852 76.8906C44.8832 77.0019 45.9888 77.0163 47.0859 76.9297L48.9609 76.793L50.8359 76.6367C52.258 76.5238 53.6937 76.5535 55.1133 76.7344L56.9883 76.9688L58.8633 77.2227C60.0356 77.3718 61.2082 77.4538 62.3789 77.4961L64.2539 77.5742L66.1289 77.6328C67.226 77.6724 68.3281 77.6183 69.4297 77.457L73.1797 76.9102C74.6616 76.6932 76.1499 76.688 77.6328 76.8906L81.3828 77.3984C82.4298 77.5413 83.4823 77.5525 84.5273 77.4375L86.4023 77.2422L88.2773 77.0273C89.5951 76.8826 90.9232 76.7855 92.2422 76.7539L94.1172 76.7148L95.9727 76.6758C97.3577 76.6427 98.7516 76.7168 100.133 76.9102L102.008 77.1836L103.883 77.4375C104.766 77.5614 105.66 77.4938 106.578 77.2227L108.453 76.6758L110.328 76.1094C111.85 75.6591 113.4 75.4772 114.957 75.582L116.832 75.7188L118.707 75.8359C119.999 75.9235 121.302 76.0538 122.594 76.207L124.469 76.4219L126.344 76.6562C127.406 76.7817 128.466 76.7882 129.527 76.6758L131.402 76.4805L133.277 76.2656C134.774 76.1068 136.281 76.1775 137.77 76.4609L139.645 76.8125L141.52 77.1836C142.615 77.3916 143.714 77.4959 144.801 77.4961H148.551C149.647 77.4958 150.748 77.3999 151.852 77.2031L153.727 76.8516L155.602 76.5195C157.035 76.2637 158.476 76.1886 159.918 76.2656L163.668 76.4609C164.764 76.52 165.87 76.4849 166.969 76.3438L168.844 76.0898L170.719 75.8555C172.343 75.6463 173.962 75.8018 175.543 76.3047L177.418 76.9102L179.293 77.4961C180.252 77.802 181.19 77.9157 182.105 77.8477L185.855 77.5742C186.901 77.4964 187.967 77.2918 189.039 76.9492L192.789 75.7383C194.465 75.2044 196.184 75.1468 197.887 75.5625L199.762 76.0117L201.637 76.4805C202.622 76.7205 203.602 76.7863 204.566 76.6953L208.316 76.3438C209.538 76.2284 210.766 76.0869 211.988 75.9336L215.738 75.4648C217.12 75.2919 218.514 75.2355 219.898 75.2891L221.773 75.3477L223.648 75.4258C224.968 75.4771 226.295 75.5918 227.613 75.7578L231.363 76.2266C232.613 76.384 233.864 76.5543 235.113 76.7148L238.863 77.1836C239.937 77.3215 241.014 77.3531 242.086 77.2617L243.961 77.1055L245.836 76.9297C247.212 76.8126 248.6 76.8134 249.977 76.9102L251.852 77.0469L253.727 77.1641C254.833 77.2413 255.94 77.2348 257.047 77.125L258.922 76.9297L260.797 76.7539C262.053 76.6293 263.31 76.5147 264.566 76.4023L268.316 76.0508C269.611 75.935 270.908 75.861 272.203 75.8164L274.078 75.7578L275.953 75.6797C277.366 75.631 278.784 75.7279 280.191 75.9531L282.066 76.2461L283.941 76.5586C285.032 76.7328 286.118 76.7917 287.203 76.7539L290.953 76.6367C292.292 76.59 293.638 76.5986 294.977 76.6953L298.727 76.9688C299.729 77.0408 300.736 76.979 301.754 76.7539L303.629 76.3242L305.504 75.9141C306.904 75.6046 308.311 75.4414 309.723 75.4062L311.598 75.3477L313.473 75.3086C314.719 75.2781 315.976 75.2463 317.223 75.2109L320.973 75.0938C322.482 75.0511 323.983 75.247 325.465 75.6602L329.215 76.7148C330.214 76.993 331.194 77.0955 332.164 77.0469L335.914 76.8516C337.157 76.7889 338.402 76.7286 339.645 76.6562L341.52 76.5391L343.395 76.4414C344.842 76.3571 346.291 76.4379 347.73 76.6953L349.605 77.0273L351.48 77.3789C352.612 77.5815 353.753 77.6956 354.879 77.7305L358.629 77.8477C359.859 77.8856 361.09 77.9095 362.32 77.9258L366.07 77.9648C367.062 77.978 368.076 77.8532 369.098 77.5547L372.848 76.4609C374.436 75.9974 376.051 75.8786 377.672 76.1289L381.422 76.7148C382.6 76.897 383.781 77.0093 384.957 77.0859L386.832 77.2227L388.707 77.3398C389.899 77.4174 391.09 77.4579 392.281 77.457H396.031C397.342 77.4559 398.666 77.4995 399.977 77.5938L403.727 77.8672C404.839 77.9469 405.953 77.9296 407.066 77.8281L410.816 77.4766C412.051 77.364 413.293 77.2403 414.527 77.1055L416.402 76.9102L418.277 76.6953C419.761 76.5339 421.253 76.5925 422.73 76.8516L426.48 77.5156C427.295 77.6573 428.117 77.5926 428.98 77.3008L430.855 76.6562L432.73 76.0312C434.504 75.4291 436.329 75.4246 438.102 76.0312L441.852 77.3203C442.709 77.6138 443.524 77.6658 444.332 77.5156L448.082 76.8125C449.426 76.5621 450.777 76.396 452.125 76.3047L454 76.168L455.875 76.0508C457.099 75.9679 458.323 75.8585 459.547 75.7383L463.297 75.3867C464.888 75.2304 466.472 75.3816 468.023 75.8555L469.898 76.4414L471.773 77.0078C472.528 77.2382 473.255 77.238 474.02 76.9883L475.895 76.3633L477.77 75.7578C479.421 75.2188 481.119 75.1131 482.809 75.4648L486.559 76.2461C487.757 76.4954 488.956 76.6969 490.152 76.8711L493.902 77.418C494.986 77.5756 496.066 77.6348 497.145 77.5742L499.02 77.457L500.895 77.3594C501.963 77.299 503.051 77.1299 504.137 76.832L506.012 76.3047L507.887 75.7969C509.433 75.3735 511 75.2467 512.574 75.4258L516.324 75.8555C517.566 75.9967 518.813 76.1168 520.055 76.2461L523.805 76.6367C525.086 76.7701 526.372 76.9418 527.652 77.125L529.527 77.3789L531.402 77.6523C532.512 77.8107 533.617 77.8783 534.723 77.8477L536.598 77.7891L538.473 77.75C539.608 77.7185 540.751 77.6056 541.891 77.418L545.641 76.793C547.081 76.5563 548.53 76.4926 549.977 76.5977L553.727 76.8711C554.729 76.9436 555.736 76.8614 556.754 76.6367L560.504 75.8164C562.048 75.4756 563.616 75.427 565.172 75.6602L568.922 76.207C569.98 76.365 571.032 76.4086 572.086 76.3242L573.961 76.168L575.836 76.0312C577.349 75.9095 578.872 76.0158 580.367 76.3633L582.242 76.793L584.117 77.2422C585.071 77.4628 586.011 77.5051 586.949 77.3789L590.699 76.8711C592.081 76.6839 593.474 76.5993 594.859 76.6367L598.609 76.7539C599.966 76.7906 601.319 76.9148 602.672 77.125L604.547 77.418L606.422 77.6914C607.34 77.8342 608.261 77.8011 609.195 77.5742L611.07 77.125L612.945 76.6562C614.322 76.3211 615.718 76.1001 617.105 75.9922L618.98 75.8555L620.855 75.6992C622.404 75.5796 623.946 75.7433 625.465 76.168L629.215 77.2227C630.017 77.4471 630.793 77.4329 631.598 77.2031L633.473 76.6758L635.348 76.1289C637.057 75.6393 638.799 75.6603 640.504 76.168L642.379 76.7344L644.254 77.2812C645.236 77.5737 646.198 77.6899 647.145 77.6328L650.895 77.3984C652.135 77.3236 653.384 77.2511 654.625 77.1641L658.375 76.8906C659.539 76.8088 660.705 76.6776 661.871 76.4805L663.746 76.168L665.621 75.8359C667.061 75.5924 668.51 75.525 669.957 75.6211L671.832 75.7383L673.707 75.875C674.799 75.9476 675.894 75.9121 676.988 75.7773L680.738 75.3086C682.422 75.1018 684.092 75.3319 685.699 75.9531L687.574 76.6758L689.449 77.418C690.299 77.7448 691.095 77.8058 691.871 77.6719L693.746 77.3594L695.621 77.0273C697.118 76.7694 698.631 76.7481 700.133 76.9492L702.008 77.2031L703.883 77.4375C704.986 77.5847 706.084 77.6403 707.184 77.5938L710.934 77.4375C711.977 77.3932 713.031 77.2181 714.098 76.9102L715.973 76.3633L717.848 75.8359C719.558 75.342 721.298 75.345 723.004 75.8555L726.754 76.9883C727.542 77.2246 728.313 77.2182 729.098 76.9883L732.848 75.8945C734.527 75.4041 736.237 75.3708 737.926 75.8164L739.801 76.3242L741.676 76.8125C742.624 77.0636 743.565 77.1235 744.488 77.0078L748.238 76.5391C749.531 76.3772 750.831 76.2578 752.125 76.168L754 76.0312L755.875 75.9141C757.324 75.8139 758.769 75.8825 760.211 76.1289L762.086 76.4414L763.961 76.7734C764.889 76.9322 765.817 76.9025 766.754 76.6953L770.504 75.875C771.986 75.5474 773.479 75.4323 774.977 75.543L778.727 75.8164C779.892 75.9025 781.057 75.9257 782.223 75.8945L784.098 75.8555L785.973 75.7969C787.189 75.7643 788.408 75.7017 789.625 75.6211L793.375 75.3867C794.916 75.2845 796.453 75.4342 797.965 75.8555L801.715 76.9102C802.538 77.1394 803.338 77.1458 804.156 76.9297L806.031 76.4414L807.906 75.9336C809.44 75.5288 810.995 75.4153 812.555 75.582L816.305 75.9727C817.495 76.1002 818.689 76.2003 819.879 76.2461L821.754 76.3047L823.629 76.3828C824.689 76.4235 825.763 76.3489 826.832 76.1484L830.582 75.4453C832.041 75.1717 833.508 75.0786 834.977 75.1914L836.852 75.3477L838.727 75.4844C839.869 75.5728 841.022 75.583 842.164 75.5234L845.914 75.3281C847.313 75.2553 848.717 75.3061 850.113 75.4844L851.988 75.7383L853.863 75.9727C855.03 76.1214 856.195 76.2144 857.359 76.2461L859.234 76.2852L861.109 76.3438C862.479 76.381 863.847 76.5204 865.211 76.7539L867.086 77.0664L868.961 77.3984C869.925 77.5636 870.886 77.5502 871.852 77.3789L875.602 76.7148C877.131 76.443 878.68 76.4409 880.211 76.6953L883.961 77.3203C885.012 77.4943 886.06 77.5358 887.105 77.457L890.855 77.1836C891.964 77.0999 893.076 76.9106 894.195 76.6367L896.07 76.1875L897.945 75.7188C899.399 75.3629 900.867 75.2018 902.34 75.2305L906.09 75.3086C907.578 75.3377 909.064 75.5711 910.523 76.0117L914.273 77.1445C915.106 77.3946 915.904 77.4135 916.715 77.2227L918.59 76.793L920.465 76.3438C922.014 75.9783 923.587 75.9033 925.152 76.1289L928.902 76.6758C930.143 76.8546 931.392 77.0164 932.633 77.1836L936.383 77.6914C937.453 77.8351 938.519 77.874 939.586 77.7891L943.336 77.4766C944.522 77.3816 945.722 77.2529 946.91 77.0664L950.66 76.4805C952.096 76.2554 953.535 76.1942 954.977 76.3047L956.852 76.4414L958.727 76.5977C959.776 76.6786 960.835 76.6286 961.891 76.4609L963.766 76.168L965.641 75.8555C967.273 75.5953 968.907 75.7277 970.504 76.207L972.379 76.7734L974.254 77.3203C975.229 77.6133 976.187 77.7349 977.125 77.6719L979 77.5352L980.875 77.418C982.032 77.3403 983.191 77.1958 984.352 76.9883L988.102 76.3242C989.581 76.0596 991.068 76.007 992.555 76.168L996.305 76.5586C997.565 76.6956 998.833 76.8534 1000.09 77.0078L1001.97 77.2422L1003.84 77.457C1004.94 77.5917 1006.05 77.622 1007.14 77.5547L1009.02 77.457L1010.89 77.3398C1012.27 77.2555 1013.66 77.2674 1015.04 77.3984L1016.91 77.5742L1018.79 77.7695C1019.66 77.8519 1020.55 77.7338 1021.48 77.418L1023.36 76.793L1025.23 76.1484C1026.77 75.623 1028.36 75.4033 1029.96 75.5039L1033.71 75.7383C1035.1 75.8269 1036.5 76.0266 1037.89 76.3633L1039.76 76.832L1041.64 77.2812C1042.49 77.4872 1043.32 77.4799 1044.18 77.2617L1046.05 76.793L1047.93 76.3047C1049.38 75.9325 1050.86 75.7532 1052.34 75.7773L1054.21 75.8164L1056.09 75.8359C1057.31 75.8558 1058.54 75.855 1059.76 75.8359L1061.64 75.8164L1063.51 75.7773C1064.97 75.7553 1066.43 75.9221 1067.87 76.2656L1071.62 77.1641C1072.25 77.316 1072.75 77.2288 1073.26 76.9297L1076.5 75.0156C1077.28 74.5512 1077.81 74.0283 1078.16 73.4727L1079.06 72.0859L1079.94 70.6797C1080.24 70.2076 1080.4 69.6266 1080.39 68.8438L1080.31 65.1719C1080.28 63.7053 1080.47 62.2383 1080.86 60.7773L1081.83 57.0273C1082.11 55.9805 1082.24 54.947 1082.24 53.9219V50.1719ZM13.0039 0.484375C13.1905 0.431184 13.8175 0.257132 14.5469 0.445312C14.9932 0.560776 15.5653 0.82918 15.9922 1.40234C16.0698 1.50669 16.1111 1.62923 16.168 1.73438L18.043 1.96875L19.918 2.18359C21.0453 2.31696 22.1719 2.37197 23.2969 2.33984L27.0469 2.22266C28.229 2.18858 29.4184 2.1176 30.6016 1.98828L32.4766 1.77344L34.3516 1.57812C35.5473 1.44737 36.7481 1.26096 37.9453 1.05078L39.8203 0.738281L41.6953 0.40625C43.1362 0.153431 44.5826 0.0597053 46.0312 0.152344L47.9062 0.289062L49.7812 0.40625C50.9837 0.483431 52.1924 0.515266 53.3945 0.523438L57.1445 0.5625C58.4599 0.571512 59.7753 0.621892 61.0898 0.738281L62.9648 0.914062L64.8398 1.07031C66.1009 1.18213 67.3679 1.30863 68.6289 1.44141L72.3789 1.83203C73.4438 1.94419 74.5163 1.9387 75.582 1.8125L77.457 1.59766L79.332 1.36328C80.7827 1.19166 82.2374 1.20069 83.6875 1.38281L87.4375 1.85156C88.4463 1.97825 89.4519 1.96122 90.4648 1.79297L94.2148 1.16797C95.5854 0.940352 96.9603 0.833804 98.3359 0.816406L100.211 0.777344L102.086 0.757812C103.521 0.740107 104.959 0.888889 106.383 1.1875L110.133 1.96875C111.051 2.16151 111.971 2.17366 112.887 1.98828L114.762 1.59766L116.637 1.22656C117.988 0.953437 119.342 0.77449 120.699 0.679688L124.449 0.40625C125.907 0.304483 127.374 0.38099 128.824 0.640625L130.699 0.972656L132.574 1.32422C133.804 1.54445 135.035 1.74961 136.266 1.94922L138.141 2.26172L140.016 2.55469C141.075 2.72648 142.146 2.76896 143.199 2.69141L146.949 2.41797C148.282 2.32007 149.62 2.30003 150.953 2.33984L154.703 2.45703C155.794 2.48935 156.888 2.41651 157.984 2.24219L159.859 1.92969L161.734 1.63672C163.023 1.43187 164.312 1.26853 165.602 1.12891L167.477 0.914062L169.352 0.71875C170.736 0.568939 172.126 0.523471 173.512 0.601562L175.387 0.71875L177.262 0.816406C178.663 0.895644 180.071 1.11041 181.461 1.44141L183.336 1.89062L185.211 2.32031C186.199 2.55518 187.171 2.64198 188.141 2.55469L191.891 2.20312C193.281 2.07664 194.68 2.07208 196.07 2.18359L197.945 2.33984L199.82 2.47656C200.786 2.55419 201.761 2.47513 202.75 2.22266L204.625 1.75391L206.5 1.26562C208.14 0.846132 209.816 0.836838 211.461 1.22656L213.336 1.65625L215.211 2.10547C216.133 2.32269 217.036 2.35721 217.945 2.20312L219.82 1.89062L221.695 1.55859C223.186 1.30397 224.692 1.27227 226.188 1.46094L229.938 1.92969C231.155 2.08331 232.373 2.2134 233.59 2.32031L235.465 2.49609L237.34 2.65234C238.413 2.74654 239.488 2.72517 240.562 2.59375L242.438 2.35938L244.312 2.14453C245.493 1.99961 246.684 1.80398 247.867 1.55859L251.617 0.777344C253.006 0.489355 254.399 0.312238 255.797 0.269531L257.672 0.230469L259.547 0.171875C260.932 0.129638 262.325 0.185798 263.707 0.367188L267.457 0.875C268.697 1.03774 269.947 1.19216 271.188 1.34375L273.062 1.55859L274.938 1.79297C275.971 1.91852 277.009 1.91525 278.043 1.77344L281.793 1.26562C283.106 1.08574 284.423 0.94919 285.738 0.875L287.613 0.777344L289.488 0.660156C290.942 0.578492 292.4 0.681412 293.844 0.953125L297.594 1.65625C298.736 1.87088 299.875 2.0188 301.012 2.08594L302.887 2.18359L304.762 2.30078C305.799 2.36165 306.858 2.2901 307.906 2.08594L309.781 1.71484L311.656 1.36328C313.148 1.07345 314.647 1.00149 316.148 1.16797L318.023 1.38281L319.898 1.57812C321.16 1.71829 322.426 1.86807 323.688 2.02734L325.562 2.28125L327.438 2.51562C328.277 2.62157 329.134 2.52494 330.035 2.20312L331.91 1.53906L333.785 0.855469C335.478 0.251408 337.223 0.158049 338.961 0.582031L340.836 1.03125L342.711 1.5C343.623 1.72331 344.527 1.74271 345.426 1.57812L347.301 1.22656L349.176 0.894531C350.8 0.597202 352.436 0.673416 354.039 1.10938L357.789 2.125C358.662 2.36138 359.512 2.3954 360.367 2.22266L362.242 1.83203L364.117 1.46094C365.526 1.1741 366.957 1.01589 368.375 1.01172H372.125C373.474 1.00805 374.821 1.08585 376.168 1.24609L378.043 1.46094L379.918 1.69531C380.992 1.82317 382.068 1.83603 383.141 1.73438L385.016 1.53906L386.891 1.36328C388.401 1.22039 389.907 1.32859 391.402 1.65625L395.152 2.47656C396.191 2.70478 397.234 2.78033 398.258 2.73047L400.133 2.65234L402.008 2.55469C403.144 2.49917 404.284 2.37337 405.426 2.16406L407.301 1.8125L409.176 1.48047C410.642 1.21154 412.115 1.1339 413.59 1.26562L415.465 1.44141L417.34 1.59766C418.516 1.70331 419.7 1.77139 420.875 1.77344H424.625C425.834 1.77542 427.049 1.75272 428.258 1.69531L432.008 1.5C433.436 1.43233 434.864 1.51782 436.285 1.75391L440.035 2.37891C440.94 2.52925 441.847 2.4938 442.77 2.26172L446.52 1.32422C447.984 0.956147 449.468 0.793016 450.953 0.835938L452.828 0.894531L454.703 0.933594C456.032 0.97218 457.36 1.07861 458.688 1.24609L462.438 1.71484C463.473 1.84558 464.507 1.85065 465.543 1.71484L467.418 1.46094L469.293 1.22656C470.876 1.01831 472.463 1.11886 474.02 1.53906L477.77 2.55469C478.794 2.83216 479.817 2.97128 480.816 2.94531L482.691 2.88672L484.566 2.84766C485.597 2.82036 486.638 2.65827 487.691 2.35938L489.566 1.8125L491.441 1.28516C493.079 0.820322 494.746 0.766471 496.402 1.12891L500.152 1.94922C501.186 2.17642 502.219 2.27392 503.238 2.22266L506.988 2.02734C508.307 1.95993 509.634 1.94494 510.953 1.98828L514.703 2.10547C515.988 2.14783 517.285 2.22357 518.57 2.32031L520.445 2.45703L522.32 2.61328C523.46 2.69872 524.599 2.71016 525.738 2.65234L529.488 2.45703C530.694 2.39539 531.915 2.28969 533.121 2.16406L536.871 1.77344C538.344 1.62057 539.818 1.68198 541.285 1.92969L545.035 2.55469C545.948 2.70919 546.863 2.67608 547.789 2.45703L549.664 2.02734L551.539 1.57812C553.036 1.22286 554.555 1.10651 556.07 1.22656L557.945 1.36328L559.82 1.51953C560.866 1.60246 561.914 1.55339 562.965 1.38281L564.84 1.07031L566.715 0.777344C568.341 0.512532 569.982 0.608763 571.578 1.07031L575.328 2.16406C576.091 2.38306 576.836 2.37612 577.613 2.125L581.363 0.914062C582.962 0.398343 584.603 0.242517 586.246 0.484375L589.996 1.03125C591.041 1.18447 592.08 1.2146 593.121 1.10938L594.996 0.914062L596.871 0.738281C598.351 0.588484 599.832 0.637449 601.305 0.894531L603.18 1.22656L605.055 1.53906C606.277 1.75234 607.505 1.95499 608.727 2.125L610.602 2.37891L612.477 2.65234C613.304 2.76625 614.147 2.67581 615.035 2.35938L616.91 1.69531L618.785 1.01172C620.368 0.447631 622.005 0.250743 623.648 0.425781L627.398 0.816406C628.642 0.94885 629.885 1.07943 631.129 1.20703L634.879 1.59766C636.081 1.72106 637.29 1.79766 638.492 1.85156L640.367 1.94922L642.242 2.02734C643.523 2.08484 644.809 2.1739 646.09 2.28125L649.84 2.59375C650.704 2.6653 651.588 2.54185 652.516 2.20312L656.266 0.835938C657.837 0.262064 659.455 0.0285656 661.09 0.171875L662.965 0.347656L664.84 0.503906C665.988 0.605066 667.149 0.64134 668.297 0.601562L670.172 0.523438L672.047 0.464844C673.387 0.418697 674.73 0.458758 676.07 0.5625L679.82 0.835938C681.153 0.93921 682.494 1.12577 683.824 1.36328L687.574 2.02734C688.741 2.23541 689.906 2.38452 691.07 2.47656L692.945 2.63281L694.82 2.76953C695.771 2.84469 696.732 2.76086 697.711 2.49609L701.461 1.48047C702.951 1.07577 704.476 0.887228 705.992 0.953125L707.867 1.05078L709.742 1.12891C710.96 1.18171 712.177 1.21459 713.395 1.22656L717.145 1.26562C718.412 1.27804 719.685 1.30172 720.953 1.34375L724.703 1.46094C725.965 1.50279 727.231 1.55799 728.492 1.61719L730.367 1.69531L732.242 1.79297C733.285 1.84191 734.333 1.76757 735.387 1.55859L739.137 0.816406C740.575 0.530859 742.023 0.408343 743.473 0.464844L745.348 0.542969L747.223 0.601562C748.464 0.649961 749.711 0.70235 750.953 0.738281L752.828 0.796875L754.703 0.835938C756.127 0.877521 757.551 1.0667 758.961 1.40234L762.711 2.30078C763.712 2.53844 764.698 2.62961 765.68 2.55469L767.555 2.39844L769.43 2.26172C770.743 2.16085 772.061 2.10076 773.375 2.10547L775.25 2.125H777.125C778.136 2.12881 779.174 1.98449 780.211 1.69531L782.086 1.1875L783.961 0.660156C785.536 0.221673 787.143 0.111596 788.746 0.347656L792.496 0.894531C793.727 1.07567 794.957 1.2451 796.188 1.40234L798.062 1.65625L799.938 1.89062C800.88 2.01101 801.829 1.9626 802.789 1.73438L806.539 0.835938C807.949 0.499361 809.373 0.293903 810.797 0.25L812.672 0.210938L814.547 0.152344C816.078 0.105202 817.601 0.307601 819.098 0.757812L822.848 1.89062C823.707 2.14819 824.536 2.18048 825.367 2.00781L829.117 1.22656C830.66 0.906069 832.215 0.864479 833.766 1.10938L837.516 1.69531C838.651 1.87458 839.783 1.98799 840.914 2.00781L842.789 2.02734L844.664 2.06641C845.673 2.08391 846.698 1.9527 847.73 1.67578L849.605 1.16797L851.48 0.679688C853.041 0.261452 854.621 0.154051 856.207 0.367188L858.082 0.621094L859.957 0.855469C861.167 1.01804 862.381 1.16317 863.59 1.26562L867.34 1.57812C868.596 1.6846 869.853 1.79049 871.109 1.91016L872.984 2.10547L874.859 2.28125C876.076 2.39715 877.295 2.48819 878.512 2.55469L882.262 2.75C883.186 2.80053 884.124 2.67686 885.094 2.35938L886.969 1.75391L888.844 1.12891C890.539 0.573551 892.279 0.523246 894 0.972656L897.75 1.94922C898.571 2.16435 899.385 2.15878 900.211 1.92969L902.086 1.42188L903.961 0.894531C905.619 0.435381 907.312 0.406893 908.98 0.816406L910.855 1.28516L912.73 1.73438C913.7 1.97144 914.652 2.03104 915.602 1.92969L919.352 1.53906C920.629 1.40187 921.922 1.28238 923.199 1.1875L926.949 0.914062C928.488 0.800793 930.028 0.95344 931.539 1.36328L935.289 2.37891C936.177 2.61807 937.039 2.63923 937.906 2.47656L941.656 1.77344C942.928 1.53404 944.213 1.31437 945.484 1.10938L947.359 0.816406L949.234 0.503906C950.876 0.240433 952.515 0.372853 954.117 0.875L957.867 2.04688C958.927 2.37979 959.979 2.57273 961.012 2.63281L962.887 2.75L964.762 2.84766C965.808 2.90791 966.87 2.8477 967.926 2.65234L969.801 2.30078L971.676 1.96875C973.202 1.68678 974.735 1.66811 976.266 1.91016L980.016 2.49609C981.138 2.67357 982.258 2.75006 983.375 2.75H987.125C988.283 2.74993 989.442 2.69855 990.602 2.57422L992.477 2.37891L994.352 2.16406C995.683 2.02105 997.023 1.94063 998.355 1.92969H1000.23L1002.11 1.91016C1003.21 1.901 1004.33 1.79474 1005.45 1.59766L1009.2 0.933594C1010.67 0.673681 1012.15 0.623923 1013.63 0.777344L1017.38 1.16797C1018.44 1.27845 1019.52 1.25837 1020.58 1.12891L1022.46 0.914062L1024.33 0.679688C1025.96 0.482849 1027.58 0.66432 1029.16 1.1875L1031.03 1.8125L1032.91 2.41797C1033.87 2.73611 1034.81 2.86838 1035.72 2.80859L1037.59 2.67188L1039.47 2.55469C1040.55 2.4834 1041.63 2.29942 1042.73 2.00781L1044.61 1.51953L1046.48 1.01172C1047.95 0.621862 1049.43 0.440425 1050.91 0.464844L1052.79 0.484375L1054.66 0.523438C1056.07 0.546656 1057.47 0.693109 1058.86 0.972656L1060.74 1.36328L1062.61 1.73438C1063.53 1.91756 1064.43 1.9108 1065.35 1.71484L1067.22 1.30469L1069.1 0.914062C1070.7 0.570287 1072.33 0.56823 1073.94 0.914062L1075.84 1.32422L1077.75 1.73438C1079.7 2.15277 1081.28 3.27026 1082.22 5.05469L1083.94 8.33594C1084.59 9.55875 1085.14 10.8346 1085.56 12.1641L1086.13 13.9414L1086.71 15.7383C1087.22 17.3199 1087.33 18.9594 1087.05 20.6016L1086.38 24.3516C1086.18 25.5116 1086.05 26.6713 1085.97 27.8281L1085.84 29.7031L1085.72 31.5781C1085.64 32.7735 1085.59 33.9769 1085.58 35.1719V37.0469L1085.56 38.9219C1085.56 39.9788 1085.67 41.0542 1085.91 42.125L1086.77 45.875C1087.09 47.2969 1087.24 48.7365 1087.24 50.1719V53.9219C1087.24 55.3903 1087.06 56.8501 1086.68 58.2969L1086.19 60.1719L1085.68 62.0469C1085.41 63.0832 1085.29 64.1008 1085.31 65.0742L1085.35 66.8906L1085.39 68.7266C1085.42 70.3865 1085.04 71.9624 1084.16 73.3555L1083.28 74.7617L1082.38 76.1484C1081.55 77.457 1080.41 78.5198 1079.04 79.332L1077.42 80.2891L1075.82 81.2461C1074.16 82.224 1072.33 82.4714 1070.46 82.0273L1066.71 81.1289C1065.66 80.8783 1064.62 80.762 1063.59 80.7773L1061.71 80.8164L1059.84 80.8359C1058.56 80.8559 1057.27 80.8568 1055.99 80.8359L1054.12 80.8164L1052.24 80.7773C1051.22 80.7615 1050.19 80.8831 1049.16 81.1484L1047.28 81.6367L1045.41 82.1055C1043.76 82.5252 1042.09 82.5449 1040.45 82.1445L1038.57 81.6953L1036.7 81.2266C1035.59 80.9582 1034.49 80.7884 1033.39 80.7188L1029.64 80.4844C1028.74 80.4273 1027.81 80.5499 1026.85 80.875L1023.1 82.1641C1021.53 82.698 1019.92 82.8847 1018.3 82.7305L1014.55 82.3789C1013.43 82.273 1012.3 82.2518 1011.19 82.3203L1007.44 82.5547C1006.04 82.6402 1004.64 82.5892 1003.24 82.418L1001.36 82.2031L999.488 81.9688C998.251 81.8172 997.014 81.6736 995.777 81.5391L993.902 81.3242L992.027 81.1289C991.016 81.019 989.998 81.0641 988.98 81.2461L985.23 81.9102C983.892 82.1494 982.549 82.3083 981.207 82.3984L979.332 82.5352L977.457 82.6523C975.899 82.7567 974.35 82.5815 972.828 82.125L969.078 80.9922C968.179 80.722 967.306 80.6599 966.441 80.7969L964.566 81.0898L962.691 81.4023C961.252 81.6319 959.801 81.6891 958.355 81.5781L956.48 81.4219L954.605 81.2852C953.551 81.2039 952.482 81.2555 951.422 81.4219L947.672 82.0078C946.364 82.2129 945.055 82.3716 943.746 82.4766L941.871 82.6133L939.996 82.7695C938.567 82.8839 937.125 82.8444 935.699 82.6523L931.949 82.1445C930.695 81.9755 929.434 81.798 928.18 81.6172L924.43 81.0703C923.498 80.9369 922.565 80.9839 921.617 81.207L919.742 81.6562L917.867 82.0859C916.184 82.4828 914.489 82.43 912.828 81.9297L909.078 80.7969C908.037 80.4825 907.004 80.3284 905.992 80.3086L902.242 80.2305C901.215 80.2105 900.182 80.3261 899.137 80.582L897.262 81.0312L895.387 81.5C894.007 81.8377 892.617 82.0592 891.227 82.1641L887.477 82.4375C886.028 82.5465 884.583 82.4812 883.141 82.2422L879.391 81.6172C878.422 81.4563 877.45 81.4646 876.48 81.6367L872.73 82.3008C871.197 82.5733 869.656 82.5831 868.121 82.3203L866.246 82.0078L864.371 81.6758C863.236 81.4815 862.102 81.3745 860.973 81.3438L859.098 81.2852L857.223 81.2461C855.889 81.2098 854.55 81.1036 853.219 80.9336L851.344 80.6992L849.469 80.4453C848.368 80.3053 847.265 80.2709 846.168 80.3281L842.418 80.5234C841.063 80.5939 839.709 80.5694 838.355 80.4648L834.605 80.1914C833.577 80.1118 832.538 80.1531 831.5 80.3477L827.75 81.0508C826.323 81.3183 824.89 81.4374 823.453 81.3828L819.703 81.2266C818.397 81.1764 817.083 81.093 815.777 80.9531L813.902 80.7383L812.027 80.543C811.089 80.4425 810.139 80.5228 809.176 80.7773L805.426 81.7539C803.745 82.1973 802.043 82.2014 800.367 81.7344L796.617 80.6797C795.631 80.4051 794.664 80.3037 793.707 80.3672L791.832 80.4844L789.957 80.6211C788.675 80.7061 787.392 80.7625 786.109 80.7969L784.234 80.8555L782.359 80.8945C781.025 80.9303 779.689 80.8954 778.355 80.7969L774.605 80.5234C773.604 80.4497 772.595 80.5331 771.578 80.7578L767.828 81.5781C766.267 81.9228 764.692 81.964 763.121 81.6953L761.246 81.3828L759.371 81.0508C758.315 80.8701 757.256 80.8217 756.207 80.8945L754.332 81.0312L752.457 81.1484C751.256 81.232 750.046 81.3494 748.844 81.5L745.094 81.9688C743.522 82.1646 741.953 82.0651 740.406 81.6562L738.531 81.1484L736.656 80.6602C735.852 80.4474 735.067 80.4621 734.254 80.6992L730.504 81.793C728.79 82.2949 727.039 82.2859 725.328 81.7734L721.578 80.6406C720.787 80.4033 720.021 80.4134 719.234 80.6406L717.359 81.168L715.484 81.7148C714.051 82.1287 712.605 82.3757 711.148 82.4375L707.398 82.5938C706.004 82.653 704.61 82.5843 703.219 82.3984L699.469 81.8906C698.472 81.7571 697.462 81.7764 696.461 81.9492L692.711 82.6133C690.992 82.9085 689.278 82.702 687.633 82.0664L683.883 80.6211C682.994 80.2791 682.157 80.1695 681.344 80.2695L677.594 80.7383C676.189 80.9109 674.782 80.949 673.375 80.8555L671.5 80.7383L669.625 80.6016C668.573 80.5317 667.52 80.5984 666.461 80.7773L662.711 81.4023C661.385 81.6266 660.056 81.7972 658.727 81.8906L656.852 82.0078L654.977 82.1445C653.718 82.2327 652.446 82.3225 651.188 82.3984L649.312 82.5156L647.438 82.6133C645.885 82.7063 644.345 82.5182 642.828 82.0664L640.953 81.5195L639.078 80.9531C638.285 80.7171 637.523 80.7274 636.734 80.9531L634.859 81.4805L632.984 82.0273C631.29 82.5125 629.564 82.5019 627.867 82.0273L625.992 81.5195L624.117 80.9922C623.139 80.7186 622.174 80.6255 621.227 80.6992L619.352 80.8359L617.477 80.9922C616.369 81.0789 615.255 81.2476 614.137 81.5195L612.262 81.9883L610.387 82.4375C608.823 82.818 607.24 82.8785 605.66 82.6328L603.785 82.3398L601.91 82.0664C600.764 81.8881 599.615 81.7848 598.473 81.7539L594.723 81.6367C593.611 81.6068 592.498 81.6811 591.383 81.832L587.633 82.3398C586.079 82.5503 584.522 82.462 582.984 82.1055L579.234 81.2461C578.231 81.0128 577.232 80.9327 576.246 81.0117L574.371 81.168L572.496 81.3047C571.057 81.4205 569.614 81.3822 568.18 81.168L566.305 80.875L564.43 80.6016C563.486 80.4602 562.533 80.4884 561.578 80.6992L557.828 81.5195C556.347 81.8463 554.852 81.9603 553.355 81.8516L549.605 81.5781C548.556 81.5023 547.497 81.5606 546.441 81.7344L544.566 82.0469L542.691 82.3398C541.333 82.5632 539.972 82.7122 538.609 82.75L536.734 82.7891L534.859 82.8477C533.467 82.8862 532.068 82.8119 530.68 82.6133L526.93 82.0664C525.714 81.8926 524.492 81.7437 523.277 81.6172L519.527 81.2266C518.271 81.0958 517.014 80.9593 515.758 80.8164L512.008 80.3867C511.085 80.282 510.147 80.3601 509.195 80.6211L505.445 81.6367C504.034 82.0233 502.616 82.2783 501.188 82.3594L497.438 82.5547C496.019 82.6349 494.594 82.5847 493.18 82.3789L489.43 81.832C488.13 81.6428 486.822 81.4187 485.523 81.1484L481.773 80.3672C480.967 80.2005 480.158 80.2276 479.312 80.5039L477.438 81.1289L475.562 81.7344C473.829 82.2999 472.052 82.3255 470.309 81.793L468.434 81.2266L466.559 80.6406C465.612 80.3521 464.692 80.2585 463.785 80.3477L461.91 80.543L460.035 80.7188C458.76 80.8439 457.482 80.945 456.207 81.0312L454.332 81.168L452.457 81.2852C451.307 81.3632 450.155 81.5193 449 81.7344L445.25 82.4375C443.56 82.7521 441.871 82.6086 440.23 82.0469L436.48 80.7578C435.756 80.5102 435.075 80.5133 434.352 80.7578L432.477 81.4023L430.602 82.0273C428.971 82.581 427.282 82.7322 425.602 82.4375L421.852 81.7734C420.835 81.596 419.815 81.5654 418.805 81.6758L416.93 81.8711L415.055 82.0859C413.793 82.2237 412.528 82.342 411.266 82.457L407.516 82.8086C406.132 82.9345 404.74 82.9472 403.355 82.8477L399.605 82.5742C398.42 82.4891 397.235 82.4562 396.051 82.457H392.301C390.996 82.4582 389.68 82.4053 388.375 82.3203L384.625 82.0859C383.303 81.9996 381.98 81.8603 380.66 81.6562L376.91 81.0703C376.033 80.9347 375.144 80.9805 374.234 81.2461L372.359 81.793L370.484 82.3594C369.01 82.789 367.516 82.9845 366.012 82.9648L362.262 82.9258C361 82.9091 359.735 82.8866 358.473 82.8477L354.723 82.7305C353.349 82.688 351.969 82.5455 350.602 82.3008L348.727 81.9492L346.852 81.6172C345.792 81.4277 344.738 81.3607 343.688 81.4219L339.938 81.6562C338.681 81.7294 337.424 81.7882 336.168 81.8516L332.418 82.0469C330.889 82.1239 329.367 81.9376 327.867 81.5195L325.992 81.0117L324.117 80.4844C323.1 80.201 322.099 80.0657 321.109 80.0938L317.359 80.2109C316.109 80.2464 314.859 80.278 313.609 80.3086L311.734 80.3477L309.859 80.4062C308.774 80.4328 307.675 80.5543 306.578 80.7969L304.703 81.207L302.828 81.6367C301.349 81.9634 299.85 82.0767 298.355 81.9688L294.605 81.6953C293.446 81.6118 292.287 81.5767 291.129 81.6172L289.254 81.6953L287.379 81.7539C285.966 81.8032 284.548 81.7253 283.141 81.5L281.266 81.1875L279.391 80.8945C278.3 80.7203 277.214 80.6424 276.129 80.6797L274.254 80.7578L272.379 80.8164C271.175 80.8579 269.97 80.9236 268.766 81.0312L265.016 81.3828C263.774 81.4939 262.527 81.6112 261.285 81.7344L259.41 81.9102L257.535 82.1055C256.15 82.2426 254.762 82.261 253.375 82.1641L249.625 81.8906C248.504 81.8119 247.367 81.8145 246.246 81.9102L244.371 82.0859L242.496 82.2422C241.071 82.3631 239.641 82.3273 238.219 82.1445L236.344 81.9102L234.469 81.6562C233.226 81.4965 231.982 81.3441 230.738 81.1875L226.988 80.7188C225.812 80.5705 224.628 80.4715 223.453 80.4258L221.578 80.3477L219.703 80.2891C218.59 80.246 217.459 80.2858 216.344 80.4258L212.594 80.8945C211.324 81.0537 210.055 81.2043 208.785 81.3242L205.035 81.6758C203.501 81.8206 201.959 81.6937 200.445 81.3242L198.57 80.875L196.695 80.4062C195.907 80.2148 195.128 80.2451 194.312 80.5039L190.562 81.7148C189.135 82.1711 187.681 82.4464 186.227 82.5547L182.477 82.8281C180.894 82.9459 179.328 82.752 177.789 82.2617L175.914 81.6758L174.039 81.0703C173.123 80.7781 172.235 80.7043 171.363 80.8164L167.613 81.2852C166.216 81.465 164.814 81.536 163.414 81.4609L161.539 81.3438L159.664 81.2461C158.609 81.1892 157.544 81.2517 156.48 81.4414L154.605 81.7734L152.73 82.125C151.341 82.3727 149.947 82.4958 148.551 82.4961H144.801C143.393 82.4959 141.981 82.352 140.582 82.0859L136.832 81.3828C135.82 81.19 134.808 81.1397 133.805 81.2461L130.055 81.6367C128.619 81.789 127.173 81.7874 125.738 81.6172L123.863 81.4023L121.988 81.168C120.784 81.0252 119.579 80.9175 118.375 80.8359L116.5 80.6992L114.625 80.582C113.684 80.5183 112.73 80.6252 111.754 80.9141L109.879 81.4609L108.004 82.0273C106.425 82.4947 104.813 82.6241 103.199 82.3984L101.324 82.125L99.4492 81.8711C98.3352 81.7148 97.2195 81.6496 96.1094 81.6758L92.3594 81.7539C91.1843 81.782 90.0005 81.8591 88.8242 81.9883L85.0742 82.418C83.62 82.578 82.1514 82.5578 80.6992 82.3594L78.8242 82.0859L76.9492 81.832C75.9339 81.6938 74.9187 81.7028 73.9023 81.8516L70.1523 82.3984C68.7549 82.603 67.3551 82.6833 65.9531 82.6328L64.0781 82.5742L62.2031 82.4961C60.877 82.4483 59.5432 82.3523 58.2188 82.1836L56.3438 81.9297L54.4688 81.6953C53.3929 81.5587 52.3195 81.5324 51.2461 81.6172L49.3711 81.7734L47.4961 81.9102C46.0982 82.0211 44.6939 82.0123 43.2969 81.8711L39.5469 81.4805C38.3137 81.3554 37.069 81.2481 35.8359 81.1484L33.9609 80.9922L32.0859 80.8555C31.0057 80.7684 29.926 80.7829 28.8438 80.9141L26.9688 81.1484L25.0938 81.3633C23.8504 81.514 22.6066 81.6757 21.3633 81.832L17.6133 82.3008C16.0487 82.4976 14.4619 82.402 12.8867 82.0273L8.98047 81.0898C7.03771 80.6271 5.46804 79.508 4.39062 77.8281L3.29688 76.1094L2.18359 74.3906C1.18159 72.8252 0.713661 71.0804 0.835938 69.2344L0.953125 67.3203L1.08984 65.3867C1.16745 64.2145 1.16674 63.0618 1.08984 61.9297L0.816406 58.1797C0.720508 56.7755 0.766967 55.363 0.933594 53.9609L1.14844 52.0859L1.38281 50.2109C1.52349 49.0297 1.61504 47.8361 1.65625 46.6562L1.77344 42.9062C1.81933 41.5971 1.92312 40.2886 2.06641 38.9805L2.28125 37.1055L2.47656 35.2305C2.60131 34.092 2.64302 32.9491 2.61328 31.8125L2.57422 29.9375L2.51562 28.0625C2.48342 26.8328 2.43916 25.6009 2.37891 24.3711L2.30078 22.4961L2.20312 20.6211C2.13541 19.2369 2.1773 17.8756 2.33984 16.5391L2.55469 14.7422L2.76953 12.9648C2.95349 11.4534 3.42516 10.0326 4.17578 8.72656L5.03516 7.22266L5.91406 5.69922C6.67212 4.38271 7.68937 3.28451 9 2.55469L10.25 1.85156L11.5195 1.14844C11.9576 0.904518 12.495 0.629539 13.0039 0.484375Z" fill="#FFCA39"/>
</svg>
