<svg width="44" height="44" viewBox="0 0 44 44" fill="none" xmlns="http://www.w3.org/2000/svg">
<path d="M35.9333 40.5L24.3833 28.95C23.4667 29.6833 22.4125 30.2639 21.2208 30.6917C20.0292 31.1194 18.7611 31.3333 17.4167 31.3333C14.0861 31.3333 11.2677 30.1796 8.96133 27.872C6.655 25.5644 5.50122 22.746 5.5 19.4167C5.49878 16.0873 6.65256 13.2689 8.96133 10.9613C11.2701 8.65378 14.0886 7.5 17.4167 7.5C20.7448 7.5 23.5638 8.65378 25.8738 10.9613C28.1838 13.2689 29.337 16.0873 29.3333 19.4167C29.3333 20.7611 29.1194 22.0292 28.6917 23.2208C28.2639 24.4125 27.6833 25.4667 26.95 26.3833L38.5 37.9333L35.9333 40.5ZM17.4167 27.6667C19.7083 27.6667 21.6566 26.8649 23.2613 25.2613C24.8661 23.6578 25.6679 21.7096 25.6667 19.4167C25.6654 17.1238 24.8637 15.1762 23.2613 13.5738C21.659 11.9715 19.7108 11.1691 17.4167 11.1667C15.1226 11.1642 13.1749 11.9666 11.5738 13.5738C9.97272 15.1811 9.17033 17.1287 9.16667 19.4167C9.163 21.7047 9.96539 23.6529 11.5738 25.2613C13.1823 26.8698 15.1299 27.6716 17.4167 27.6667Z" fill="#635E5E"/>
</svg>
