<svg width="13" height="13" viewBox="0 0 13 13" fill="none" xmlns="http://www.w3.org/2000/svg">
<g clip-path="url(#clip0_316_216)">
<path d="M8.12282 1.92978C7.87473 1.92978 7.6346 1.95361 7.40385 1.99369C7.1081 1.95614 6.4144 1.91028 6.1071 1.91028C3.0474 1.91028 0.370483 3.05753 0.370483 7.07345C0.370483 10.3364 2.91596 12.9816 6.50071 12.9816C10.0855 12.9816 12.9913 10.3364 12.9913 7.07345C12.991 3.01131 9.60193 1.92978 8.12282 1.92978Z" fill="#DD2E44"/>
<path d="M3.04736 0.0328369C3.6385 0.623615 4.04764 0.851115 4.22964 1.80589C4.33725 2.37067 5.04792 2.35117 5.04792 2.35117C5.04792 2.35117 3.6385 2.98781 3.04736 3.57895C3.04736 3.57895 4.82042 2.98781 5.41156 2.98781C5.41156 2.98781 6.59347 3.57895 6.59347 4.16973C6.59347 4.16973 6.59347 2.98781 6.0027 2.98781C6.0027 2.98781 7.77539 2.98781 7.77539 4.16973C7.77539 4.16973 7.77539 2.39667 7.18425 2.39667C7.18425 2.39667 8.95767 1.80589 9.54881 2.39667C9.54881 2.39667 8.93997 1.77556 7.77539 1.80589C7.77539 1.80589 8.36689 1.21475 9.54881 1.21475C9.54881 1.21475 7.63925 0.669115 7.04811 1.85139C7.04811 1.85139 6.54797 1.35125 7.54825 0.350976C7.54825 0.350976 6.0027 0.623615 6.0027 1.80589C6.0027 1.80589 5.44225 1.79145 5.04792 1.35125C4.27478 0.487476 3.04736 0.0328369 3.04736 0.0328369Z" fill="#77B255"/>
</g>
<defs>
<clipPath id="clip0_316_216">
<rect width="13" height="13" fill="white"/>
</clipPath>
</defs>
</svg>
