<svg width="299" height="154" viewBox="0 0 299 154" fill="none" xmlns="http://www.w3.org/2000/svg">
<path d="M50.7188 5.15234C49.6694 5.08499 48.6118 5.14255 47.5547 5.32812L43.8047 5.99219C42.5039 6.22046 41.2007 6.39661 39.8984 6.53906L38.0234 6.75391L36.1484 6.94922C34.8345 7.0929 33.5182 7.18458 32.2031 7.22266L28.4531 7.33984C27.0803 7.37942 25.7025 7.30665 24.332 7.14453L22.457 6.92969L20.582 6.69531C19.947 6.62019 19.419 6.56553 19.0391 6.5C18.8624 6.46949 18.6378 6.4206 18.4336 6.36328C18.3641 6.34366 18.2273 6.29682 18.0625 6.22656C17.8689 6.24589 17.6421 6.27466 17.3789 6.30469L13.5508 6.73438C13.0364 6.79494 12.6874 7.00296 12.3594 7.49609L11.2656 9.11719L10.1719 10.7578C9.5421 11.7046 9.06764 12.6501 8.72656 13.5703L8.10156 15.25L7.49609 16.9297C7.1414 17.8877 6.85737 18.9056 6.67578 19.9961L6.36328 21.8711L6.05078 23.7266C5.89554 24.6611 5.9312 25.6068 6.12891 26.5586L6.5 28.4336L6.89062 30.3086C7.23652 31.9751 7.16868 33.6503 6.67578 35.2891L5.54297 39.0391C5.2423 40.0405 5.10303 41.0211 5.13281 41.9883L5.25 45.7383C5.28318 46.813 5.43956 47.892 5.69922 48.9805L6.59766 52.7305C6.96449 54.2675 7.04994 55.8242 6.85156 57.3789L6.59766 59.2539L6.36328 61.1289C6.20154 62.3947 6.02229 63.6718 5.83594 64.9375L5.28906 68.6875C5.15977 69.5751 5.21111 70.4676 5.46484 71.3828L6.51953 75.1328C6.92703 76.5938 7.12998 78.0798 7.125 79.5664V81.4414L7.10547 83.3164C7.10101 84.4988 7.15137 85.6881 7.24219 86.8711L7.37891 88.7461L7.53516 90.6211C7.65149 92.1359 7.52018 93.6566 7.16406 95.1523L6.71484 97.0273L6.28516 98.9023C6.02707 99.9884 5.86697 101.072 5.83594 102.145L5.79688 104.02L5.73828 105.895C5.70192 107.15 5.6505 108.409 5.60156 109.664L5.52344 111.539L5.46484 113.414C5.42415 114.464 5.50826 115.518 5.71875 116.578L6.46094 120.328C6.74747 121.773 6.86127 123.228 6.79297 124.684L6.69531 126.559L6.61719 128.434C6.56092 129.634 6.52452 130.843 6.53906 132.047L6.57812 133.922L6.59766 135.797C6.60832 136.68 6.79371 137.516 7.18359 138.316L8.02344 140.016L8.84375 141.715C9.2212 142.488 9.75717 143.13 10.4648 143.668L11.9883 144.82L13.5117 145.992C13.9939 146.357 14.4676 146.485 15.0742 146.402L16.9883 146.129L18.8828 145.875C20.3252 145.676 21.766 145.625 23.1992 145.738L25.0742 145.895L26.9492 146.031C28.2794 146.136 29.6064 146.322 30.9336 146.559L34.6836 147.223C35.853 147.432 37.0329 147.582 38.1992 147.672L40.0742 147.809L41.9492 147.965C43.1018 148.054 44.2543 148.083 45.4062 148.043L47.2812 147.965L49.1562 147.906C50.5085 147.859 51.8675 147.904 53.2188 148.023L56.9688 148.336C57.8318 148.412 58.7175 148.303 59.6445 147.965L63.3945 146.598C64.9639 146.025 66.5857 145.797 68.2188 145.934L71.9688 146.246C73.1834 146.348 74.4067 146.426 75.6211 146.48L79.3711 146.637C80.6665 146.695 81.963 146.797 83.2578 146.93L94.5078 148.102C95.3637 148.193 96.2475 148.096 97.1641 147.77L100.914 146.441C102.52 145.869 104.169 145.683 105.836 145.914L109.586 146.422C110.865 146.6 112.155 146.804 113.434 147.027L117.184 147.691C118.209 147.87 119.231 147.892 120.25 147.789L122.125 147.613L124 147.418C125.453 147.271 126.906 147.303 128.355 147.516L132.105 148.062C132.958 148.188 133.826 148.117 134.723 147.828L138.473 146.617C140.19 146.062 141.956 146.04 143.688 146.539L145.562 147.086L147.438 147.613C148.34 147.874 149.221 147.93 150.094 147.789L151.969 147.477L153.844 147.184C155.29 146.948 156.747 146.893 158.199 147.008L160.074 147.145L161.949 147.301C162.93 147.379 163.918 147.303 164.918 147.066L168.668 146.168C170.238 145.795 171.83 145.744 173.414 146.012L177.164 146.637C178.193 146.811 179.227 146.86 180.25 146.754L184 146.363C185.289 146.229 186.577 146.117 187.867 146.051L191.617 145.855C192.97 145.786 194.328 145.813 195.68 145.914L199.43 146.188C200.644 146.279 201.868 146.343 203.082 146.383L204.957 146.461L206.832 146.52C208.01 146.558 209.189 146.541 210.367 146.48L214.117 146.285C215.593 146.21 217.07 146.336 218.531 146.656L222.281 147.477C223.122 147.661 223.961 147.642 224.82 147.398L228.57 146.344C230.014 145.934 231.478 145.698 232.945 145.66L234.82 145.621L236.695 145.562C238.191 145.525 239.678 145.712 241.148 146.109L244.898 147.125C245.837 147.379 246.759 147.44 247.672 147.32L249.547 147.066L251.422 146.832C252.884 146.64 254.354 146.628 255.816 146.812L259.566 147.281C260.737 147.429 261.914 147.521 263.082 147.555L266.832 147.672C267.842 147.7 268.868 147.58 269.898 147.32L273.648 146.383C275.172 146 276.713 145.885 278.258 146.051L280.133 146.266L282.008 146.461C282.726 146.539 283.342 146.397 283.922 146.051L285.504 145.113L287.086 144.156C287.82 143.716 288.407 143.152 288.863 142.457L290.855 139.41C291.341 138.671 291.689 137.862 291.871 136.949L292.223 135.113L292.594 133.277C292.774 132.373 292.787 131.449 292.613 130.504L292.262 128.629L291.93 126.754C291.682 125.402 291.508 124.049 291.441 122.691L291.363 120.816L291.266 118.941C291.194 117.467 291.316 115.987 291.637 114.527L292.457 110.777C292.677 109.776 292.746 108.776 292.652 107.789L292.301 104.039C292.166 102.615 292.17 101.185 292.34 99.7617L292.574 97.8867L292.789 96.0117C292.925 94.8645 293.007 93.7194 293.004 92.5742L292.984 90.6992V88.8242C292.981 87.7435 292.874 86.6533 292.652 85.5625L292.262 83.6875L291.891 81.8125C291.557 80.1753 291.607 78.5295 292.047 76.9102L293.062 73.1602C293.306 72.2635 293.34 71.379 293.18 70.5039L292.848 68.6289L292.496 66.7539C292.205 65.1561 292.265 63.5533 292.652 61.9688L293.102 60.0938L293.57 58.2188C293.756 57.4598 293.721 56.699 293.434 55.8945L292.77 54.0195L292.086 52.1445C291.517 50.5482 291.33 48.8992 291.539 47.2422L292.008 43.4922C292.164 42.2569 292.3 41.0165 292.438 39.7812L292.867 36.0312C292.977 35.0383 292.926 34.0453 292.73 33.043L292.379 31.168L292.008 29.293C291.725 27.8415 291.629 26.38 291.715 24.918L291.812 23.043L291.93 21.168C291.998 20.0063 291.999 18.8266 291.949 17.6328L291.871 15.6992L291.793 13.7852C291.765 13.1376 291.548 12.6176 291.07 12.125L289.703 10.7188L288.336 9.33203C287.754 8.73681 287.125 8.37821 286.402 8.21875L284.566 7.82812L282.73 7.41797C281.583 7.16584 280.422 6.9675 279.254 6.8125L277.398 6.55859L275.523 6.32422C274.286 6.16004 273.039 5.97995 271.793 5.81641L269.918 5.58203L268.043 5.32812C266.928 5.18216 265.815 5.11857 264.703 5.15234L260.953 5.26953C259.851 5.30313 258.744 5.44929 257.633 5.67969L255.758 6.05078L253.883 6.44141C252.569 6.7139 251.254 6.94364 249.938 7.10547L248.062 7.33984L246.188 7.55469C244.766 7.72923 243.334 7.75759 241.91 7.63281L240.035 7.47656L238.16 7.30078C236.879 7.18824 235.594 7.05231 234.312 6.89062L230.562 6.42188C229.56 6.29543 228.561 6.32872 227.555 6.5L223.805 7.125C222.219 7.39582 220.612 7.34122 219.039 6.96875L217.164 6.53906L215.289 6.08984C214.439 5.88995 213.605 5.89158 212.75 6.10938L210.875 6.59766L209 7.06641C207.492 7.4521 205.961 7.59907 204.43 7.47656L200.68 7.16406C199.575 7.0752 198.465 7.08346 197.359 7.18359L193.609 7.53516C192.083 7.67403 190.546 7.56205 189.039 7.20312L185.289 6.30469C184.183 6.04153 183.083 5.87861 181.988 5.81641L180.113 5.69922L178.238 5.60156C177.127 5.53875 176.011 5.55953 174.898 5.67969L173.023 5.89453L171.148 6.08984C169.94 6.22064 168.725 6.38582 167.516 6.57812L163.766 7.16406C162.363 7.38706 160.955 7.47953 159.547 7.4375L157.672 7.39844L155.797 7.33984C154.634 7.30525 153.464 7.3323 152.301 7.41797L148.551 7.69141C147.11 7.7969 145.669 7.72813 144.234 7.49609L142.359 7.18359L140.484 6.89062C139.221 6.68566 137.939 6.47231 136.676 6.24609L134.801 5.89453L132.926 5.5625C131.88 5.37596 130.839 5.31448 129.801 5.38672L126.051 5.66016C124.911 5.73971 123.759 5.89708 122.613 6.12891L120.738 6.5L118.863 6.89062C117.285 7.20887 115.694 7.2014 114.117 6.87109L112.242 6.48047L110.367 6.07031C109.295 5.84513 108.224 5.74534 107.164 5.75781L103.414 5.79688C102.293 5.81071 101.162 5.92229 100.035 6.10938L96.2852 6.73438C94.7982 6.98135 93.3037 6.99978 91.8125 6.8125L88.0625 6.34375C87.0139 6.21219 85.9661 6.21963 84.918 6.34375L81.168 6.77344C79.7364 6.94298 78.3035 6.96277 76.8711 6.8125L73.1211 6.42188C71.8866 6.29185 70.6446 6.16027 69.4102 6.05078L67.5352 5.89453L65.6602 5.71875C64.4777 5.6139 63.2872 5.57053 62.1055 5.5625L58.3555 5.52344C57.0597 5.51458 55.7642 5.4698 54.4688 5.38672L50.7188 5.15234ZM18.375 1.1875C18.5529 1.17671 18.784 1.15813 19 1.16797C19.0882 1.17205 19.3334 1.17579 19.6055 1.24609C19.7325 1.2792 20.0578 1.37885 20.4062 1.61719V1.63672C20.6148 1.66505 20.8673 1.6988 21.168 1.73438L23.043 1.96875L24.918 2.18359C26.0453 2.31696 27.1719 2.37197 28.2969 2.33984L32.0469 2.22266C33.229 2.18858 34.4184 2.1176 35.6016 1.98828L37.4766 1.77344L39.3516 1.57812C40.5473 1.44737 41.7481 1.26096 42.9453 1.05078L44.8203 0.738281L46.6953 0.40625C48.1362 0.153431 49.5826 0.0597054 51.0312 0.152344L52.9062 0.289062L54.7812 0.40625C55.9837 0.483431 57.1924 0.515266 58.3945 0.523438L62.1445 0.5625C63.4599 0.571512 64.7753 0.621892 66.0898 0.738281L67.9648 0.914062L69.8398 1.07031C71.1009 1.18213 72.3679 1.30863 73.6289 1.44141L77.3789 1.83203C78.4438 1.94419 79.5163 1.9387 80.582 1.8125L82.457 1.59766L84.332 1.36328C85.7827 1.19166 87.2374 1.20069 88.6875 1.38281L92.4375 1.85156C93.4463 1.97825 94.4519 1.96122 95.4648 1.79297L99.2148 1.16797C100.585 0.940352 101.96 0.833804 103.336 0.816406L105.211 0.777344L107.086 0.757812C108.521 0.740107 109.959 0.88889 111.383 1.1875L115.133 1.96875C116.051 2.16151 116.971 2.17366 117.887 1.98828L119.762 1.59766L121.637 1.22656C122.988 0.953437 124.342 0.77449 125.699 0.679688L129.449 0.40625C130.907 0.304483 132.374 0.38099 133.824 0.640625L135.699 0.972656L137.574 1.32422C138.804 1.54445 140.035 1.74961 141.266 1.94922L143.141 2.26172L145.016 2.55469C146.075 2.72648 147.146 2.76896 148.199 2.69141L151.949 2.41797C153.282 2.32007 154.62 2.30003 155.953 2.33984L159.703 2.45703C160.794 2.48935 161.888 2.41651 162.984 2.24219L164.859 1.92969L166.734 1.63672C168.023 1.43187 169.312 1.26853 170.602 1.12891L172.477 0.914062L174.352 0.71875C175.736 0.568939 177.126 0.523471 178.512 0.601562L180.387 0.71875L182.262 0.816406C183.663 0.895644 185.071 1.11041 186.461 1.44141L188.336 1.89062L190.211 2.32031C191.199 2.55518 192.171 2.64198 193.141 2.55469L196.891 2.20312C198.281 2.07664 199.68 2.07208 201.07 2.18359L202.945 2.33984L204.82 2.47656C205.786 2.55419 206.761 2.47513 207.75 2.22266L209.625 1.75391L211.5 1.26562C213.14 0.846132 214.816 0.836839 216.461 1.22656L218.336 1.65625L220.211 2.10547C221.133 2.32269 222.036 2.35721 222.945 2.20312L224.82 1.89062L226.695 1.55859C228.186 1.30397 229.692 1.27227 231.188 1.46094L234.938 1.92969C236.155 2.08331 237.373 2.2134 238.59 2.32031L240.465 2.49609L242.34 2.65234C243.413 2.74654 244.488 2.72517 245.562 2.59375L247.438 2.35938L249.312 2.14453C250.493 1.99961 251.684 1.80398 252.867 1.55859L256.617 0.777344C258.006 0.489355 259.399 0.312239 260.797 0.269531L262.672 0.230469L264.547 0.171875C265.932 0.129638 267.325 0.185798 268.707 0.367188L272.457 0.875C273.705 1.03876 274.948 1.19888 276.188 1.36328L278.062 1.59766L279.918 1.85156C281.225 2.02502 282.52 2.25284 283.805 2.53516L285.641 2.94531L287.477 3.33594C289.19 3.71336 290.677 4.57463 291.91 5.83594L293.277 7.22266L294.645 8.62891C295.971 9.98922 296.712 11.671 296.793 13.5703L296.871 15.5039L296.949 17.418C297.006 18.7773 296.988 20.1266 296.91 21.4609L296.812 23.3359L296.695 25.2109C296.635 26.2474 296.706 27.2889 296.91 28.3359L297.652 32.0859C297.943 33.5799 297.995 35.0942 297.828 36.5977L297.613 38.4727L297.418 40.3477C297.278 41.6043 297.127 42.8607 296.969 44.1172L296.5 47.8672C296.394 48.7047 296.473 49.5667 296.793 50.4648L297.477 52.3398L298.141 54.2148C298.746 55.9104 298.84 57.6691 298.414 59.4102L297.965 61.2852L297.496 63.1602C297.275 64.0683 297.255 64.9606 297.418 65.8555L297.77 67.7305L298.102 69.6055C298.399 71.2303 298.323 72.8654 297.887 74.4688L296.871 78.2188C296.632 79.0976 296.618 79.9555 296.793 80.8164L297.164 82.6914L297.555 84.5664C297.841 85.9733 297.98 87.3878 297.984 88.8047V90.6797L298.004 92.5547C298.008 93.9066 297.93 95.2674 297.77 96.6172L297.535 98.4922L297.32 100.367C297.194 101.437 297.18 102.502 297.281 103.57L297.633 107.32C297.776 108.834 297.669 110.353 297.34 111.852L296.52 115.602C296.292 116.638 296.216 117.666 296.266 118.688L296.344 120.562L296.441 122.438C296.497 123.573 296.623 124.715 296.832 125.855L297.535 129.605C297.82 131.159 297.802 132.717 297.496 134.254L297.125 136.09L296.773 137.926C296.469 139.453 295.883 140.874 295.035 142.164L293.043 145.211C292.166 146.546 291.02 147.631 289.645 148.453L288.062 149.391L286.48 150.348C284.95 151.263 283.254 151.612 281.48 151.422L277.73 151.031C276.785 150.929 275.83 150.982 274.859 151.227L272.984 151.695L271.109 152.184C269.644 152.552 268.161 152.715 266.676 152.672L262.926 152.555C261.597 152.516 260.269 152.41 258.941 152.242L255.191 151.773C254.156 151.643 253.121 151.657 252.086 151.793L250.211 152.027L248.336 152.281C246.749 152.49 245.15 152.372 243.59 151.949L239.84 150.934C238.818 150.658 237.809 150.537 236.812 150.562L234.938 150.621L233.062 150.66C232.032 150.687 230.992 150.849 229.938 151.148L226.188 152.203C224.547 152.669 222.867 152.724 221.207 152.359L217.457 151.539C216.423 151.312 215.391 151.233 214.371 151.285L210.621 151.48C209.306 151.547 207.991 151.563 206.676 151.52L204.801 151.441L202.926 151.383C201.641 151.34 200.344 151.284 199.059 151.188L197.184 151.031L195.309 150.895C194.165 150.809 193.014 150.797 191.871 150.855L188.121 151.051C186.918 151.112 185.712 151.199 184.508 151.324L180.758 151.715C179.281 151.868 177.795 151.827 176.324 151.578L174.449 151.266L172.574 150.934C171.662 150.781 170.745 150.812 169.82 151.031L166.07 151.93C164.578 152.283 163.07 152.401 161.559 152.281L159.684 152.125L157.809 151.988C156.761 151.905 155.698 151.934 154.645 152.105L150.895 152.73C149.271 152.994 147.644 152.879 146.051 152.418L144.176 151.871L142.301 151.344C141.536 151.123 140.795 151.131 140.016 151.383L136.266 152.594C134.667 153.11 133.026 153.265 131.383 153.023L129.508 152.73L127.633 152.457C126.589 152.304 125.549 152.293 124.508 152.398L122.633 152.574L120.758 152.77C119.28 152.919 117.796 152.87 116.324 152.613L112.574 151.949C111.352 151.736 110.124 151.553 108.902 151.383L107.027 151.109L105.152 150.855C104.323 150.741 103.483 150.832 102.594 151.148L98.8438 152.477C97.2603 153.041 95.6246 153.257 93.9805 153.082L92.1055 152.887L90.2305 152.672C88.987 152.539 87.7435 152.409 86.5 152.281L84.625 152.105L82.75 151.91C81.5474 151.787 80.3387 151.691 79.1367 151.637L75.3867 151.48C74.1049 151.423 72.8207 151.334 71.5391 151.227L67.7891 150.914C66.9255 150.842 66.0401 150.948 65.1133 151.285L63.2383 151.988L61.3633 152.672C59.7925 153.246 58.1737 153.459 56.5391 153.316L52.7891 153.004C51.6404 152.903 50.4797 152.866 49.332 152.906L45.582 153.023C44.2405 153.07 42.8995 153.049 41.5586 152.945L39.6836 152.809L37.8086 152.652C36.4749 152.549 35.1352 152.382 33.8047 152.145L30.0547 151.48C28.8876 151.272 27.7227 151.123 26.5586 151.031L22.8086 150.719C21.7424 150.634 20.6587 150.666 19.5664 150.816L17.6719 151.09L15.7578 151.344C13.8377 151.608 12.0286 151.148 10.4844 149.977L8.96094 148.805L7.4375 147.652C6.11551 146.647 5.07681 145.389 4.35156 143.902L3.53125 142.203L2.69141 140.504C1.97957 139.042 1.61727 137.479 1.59766 135.855L1.57812 133.98L1.53906 132.105C1.52334 130.803 1.55631 129.498 1.61719 128.199L1.69531 126.324L1.79297 124.449C1.84187 123.407 1.76718 122.358 1.55859 121.305L0.816406 117.555C0.531015 116.117 0.408563 114.667 0.464844 113.219L0.542969 111.344L0.601562 109.469C0.649962 108.227 0.70235 106.98 0.738281 105.738L0.796875 103.863L0.835938 101.988C0.877356 100.564 1.06649 99.1411 1.40234 97.7305L2.30078 93.9805C2.5387 92.9798 2.62932 91.9934 2.55469 91.0117L2.39844 89.1367L2.26172 87.2617C2.16061 85.9451 2.1005 84.6141 2.10547 83.2969L2.125 81.4219V79.5469C2.12812 78.5381 1.98379 77.5147 1.69531 76.4805L1.1875 74.6055L0.660156 72.7305C0.221077 71.1542 0.111468 69.5495 0.347656 67.9453L0.894531 64.1953C1.07569 62.9647 1.24508 61.7343 1.40234 60.5039L1.65625 58.6289L1.89062 56.7539C2.0109 55.8126 1.96206 54.8612 1.73438 53.9023L0.835938 50.1523C0.499577 48.743 0.294065 47.3176 0.25 45.8945L0.210938 44.0195L0.152344 42.1445C0.105202 40.6133 0.307602 39.0906 0.757812 37.5938L1.89062 33.8438C2.14861 32.9848 2.18002 32.1555 2.00781 31.3242L1.22656 27.5742C0.904949 26.026 0.871146 24.458 1.12891 22.9062L1.44141 21.0508L1.75391 19.1758C1.9847 17.79 2.33779 16.4626 2.80859 15.1914L3.41406 13.5117L4.03906 11.832C4.52607 10.5181 5.19133 9.23862 6.01172 8.00391L8.19922 4.72266C9.32089 3.03637 10.9631 1.98654 12.9844 1.75391L16.8125 1.32422C17.456 1.25083 17.9894 1.21098 18.375 1.1875Z" fill="#DAC794" fill-opacity="0.94"/>
</svg>
