<svg width="62" height="50" viewBox="0 0 62 50" fill="none" xmlns="http://www.w3.org/2000/svg">
<path d="M6.32548 0.348969L12.4882 12.6745H21.7324L15.5696 0.348969H21.7324L27.8951 12.6745H37.1393L30.9765 0.348969H37.1393L43.302 12.6745H52.5462L46.3834 0.348969H55.6275C57.3223 0.348969 58.7736 0.952918 59.9815 2.16082C61.1894 3.36872 61.7924 4.81902 61.7903 6.51173V43.4883C61.7903 45.183 61.1874 46.6344 59.9815 47.8423C58.7757 49.0502 57.3244 49.6531 55.6275 49.651H6.32548C4.63072 49.651 3.18042 49.0481 1.97457 47.8423C0.768725 46.6364 0.164774 45.1851 0.16272 43.4883V6.51173C0.16272 4.81697 0.76667 3.36667 1.97457 2.16082C3.18247 0.954972 4.63277 0.351023 6.32548 0.348969Z" fill="#FFF8F0"/>
</svg>
