<svg width="219" height="234" viewBox="0 0 219 234" fill="none" xmlns="http://www.w3.org/2000/svg">
<path d="M169.645 0.40625C170.924 0.420634 172.213 0.462039 173.492 0.523438L177.242 0.71875C178.537 0.78091 179.835 0.860107 181.129 0.992188L184.879 1.38281C185.986 1.49583 187.093 1.51993 188.199 1.44141L191.949 1.16797C193.44 1.06225 194.926 1.17754 196.402 1.5L200.152 2.32031C201.208 2.55136 202.252 2.64792 203.258 2.61328L205.074 2.55469L206.91 2.47656C208.846 2.40988 210.588 3.12145 211.871 4.60547L213.023 5.95312L214.176 7.28125C215.274 8.55981 215.905 10.075 216.07 11.7539L216.246 13.5117L216.422 15.2891C216.537 16.4559 216.66 17.6614 216.793 18.9023L217.008 20.7773L217.203 22.6523C217.36 24.1159 217.326 25.5869 217.105 27.0469L216.812 28.9219L216.539 30.7969C216.371 31.9063 216.286 33.0124 216.305 34.1172L216.383 37.8672C216.402 38.9684 216.518 40.0783 216.734 41.1875L217.086 43.0625L217.457 44.9375C217.751 46.4485 217.792 47.9691 217.594 49.4883L217.359 51.3633L217.105 53.2383C216.945 54.4684 216.791 55.6997 216.656 56.9297L216.461 58.8047L216.246 60.6797C216.138 61.6684 216.183 62.6687 216.383 63.668L216.773 65.543L217.145 67.418C217.44 68.8871 217.533 70.3709 217.418 71.8516L217.262 73.7266L217.125 75.6016C217.024 76.8918 216.898 78.1986 216.734 79.4883L216.48 81.3633L216.246 83.2383C216.114 84.2873 216.108 85.3348 216.227 86.3828L216.656 90.1328C216.808 91.4723 216.89 92.815 216.891 94.1562V97.9062C216.891 99.1043 216.933 100.321 217.008 101.52L217.242 105.27C217.321 106.532 217.387 107.796 217.438 109.059L217.496 110.934L217.574 112.809C217.628 114.147 217.623 115.494 217.535 116.832L217.398 118.707L217.281 120.582C217.195 121.891 217.07 123.2 216.891 124.508L216.637 126.383L216.363 128.258C216.239 129.163 216.303 130.079 216.559 131.012L217.066 132.887L217.594 134.762C218.013 136.294 218.155 137.85 218.004 139.41L217.828 141.285L217.633 143.16C217.521 144.311 217.49 145.467 217.516 146.617L217.594 150.367C217.623 151.686 217.599 153.014 217.516 154.332L217.281 158.082C217.211 159.208 217.207 160.335 217.301 161.461L217.613 165.211C217.728 166.591 217.736 167.971 217.633 169.352L217.359 173.102C217.28 174.166 217.318 175.236 217.477 176.305L218.023 180.055C218.264 181.684 218.143 183.308 217.652 184.898L216.48 188.648C216.198 189.562 216.126 190.45 216.246 191.324L216.52 193.199L216.773 195.074C216.969 196.497 217.001 197.925 216.891 199.352L216.754 201.227L216.598 203.102C216.517 204.137 216.57 205.183 216.754 206.227L217.418 209.977C217.687 211.499 217.698 213.042 217.457 214.566L216.871 218.316C216.646 219.735 216.281 221.062 215.758 222.281L215.113 223.785L214.469 225.309C213.86 226.723 212.899 227.911 211.676 228.883L210.289 229.996L208.883 231.109C207.459 232.238 205.772 232.742 203.961 232.672L202.086 232.613L200.211 232.535C198.968 232.487 197.719 232.451 196.48 232.418L192.73 232.301C191.6 232.271 190.465 232.326 189.332 232.457L185.582 232.887C184.069 233.062 182.553 233.012 181.051 232.711L179.176 232.32L177.301 231.949C176.472 231.783 175.643 231.819 174.781 232.086L171.031 233.258C169.435 233.753 167.804 233.896 166.168 233.648L162.418 233.062C161.357 232.902 160.291 232.88 159.234 232.965L157.359 233.102L155.484 233.258C154.224 233.359 152.956 233.45 151.695 233.531L149.82 233.648L147.945 233.785C146.49 233.879 145.036 233.779 143.59 233.512L141.715 233.16L139.84 232.828C138.603 232.6 137.365 232.372 136.129 232.164L132.379 231.539C131.263 231.352 130.15 231.248 129.039 231.246H125.289C124.351 231.244 123.39 231.413 122.398 231.773L118.648 233.141C116.834 233.801 114.965 233.786 113.16 233.102L111.285 232.379L109.41 231.676C108.46 231.315 107.539 231.164 106.656 231.207L102.906 231.402C101.724 231.461 100.535 231.565 99.3516 231.715L95.6016 232.184C94.1509 232.367 92.6971 232.38 91.2461 232.203L87.4961 231.734C86.5882 231.623 85.662 231.701 84.7227 231.969L80.9727 233.023C79.3889 233.474 77.7809 233.585 76.168 233.336L72.418 232.75C71.3113 232.578 70.1993 232.514 69.0977 232.535L65.3477 232.613C64.1208 232.637 62.8831 232.673 61.6562 232.73L59.7812 232.809L57.9062 232.906C56.4237 232.976 54.9383 232.834 53.4727 232.496L49.7227 231.637C48.7616 231.416 47.8168 231.376 46.8711 231.5L44.9961 231.734L43.1211 231.988C41.658 232.181 40.19 232.176 38.7266 231.988L34.9766 231.52C33.9303 231.385 32.8776 231.375 31.832 231.5L29.957 231.715L28.082 231.949C26.8337 232.098 25.5804 232.25 24.332 232.398L20.582 232.828C19.2357 232.988 17.869 233.081 16.4805 233.082H12.5742C10.523 233.082 8.74338 232.227 7.47656 230.602L5.13281 227.594C4.11646 226.29 3.44618 224.819 3.17969 223.219L2.88672 221.5L2.59375 219.762C2.37855 218.468 2.26411 217.132 2.26172 215.758V212.008C2.25979 210.824 2.22127 209.637 2.125 208.453L1.8125 204.703C1.71621 203.519 1.57172 202.334 1.38281 201.148L1.08984 199.273L0.777344 197.398C0.530968 195.853 0.566381 194.289 0.875 192.75L1.26562 190.875L1.63672 189C1.86995 187.835 2.0322 186.665 2.14453 185.504L2.33984 183.629L2.51562 181.754C2.60942 180.777 2.54603 179.798 2.32031 178.805L1.46094 175.055C1.11179 173.518 1.05484 171.957 1.26562 170.406L1.77344 166.656C1.91227 165.629 1.90869 164.597 1.77344 163.57L1.51953 161.695L1.28516 159.82C1.11811 158.552 0.95117 157.281 0.816406 156.012L0.425781 152.262C0.278814 150.876 0.242509 149.489 0.328125 148.102L0.5625 144.352C0.646752 142.992 0.82704 141.624 1.08984 140.27L1.46094 138.395L1.8125 136.52C2.01675 135.465 2.09595 134.419 2.04688 133.375L1.96875 131.5L1.87109 129.625C1.81343 128.409 1.724 127.189 1.61719 125.973L1.46094 124.098L1.28516 122.223C1.15706 120.765 1.2267 119.3 1.46094 117.848L1.75391 115.973L2.06641 114.098C2.25538 112.925 2.37757 111.752 2.45703 110.582L2.59375 108.707L2.71094 106.832C2.79137 105.647 2.83726 104.462 2.82812 103.277L2.78906 99.5273C2.78105 98.5082 2.63368 97.4662 2.33984 96.4219L1.28516 92.6719C0.80918 90.9755 0.816914 89.2486 1.30469 87.5547L1.85156 85.6797L2.37891 83.8047C2.59707 83.0458 2.59229 82.3145 2.33984 81.5391L1.71484 79.6641L1.10938 77.7891C0.588274 76.1994 0.422165 74.5627 0.640625 72.9258L1.14844 69.1758C1.32112 67.8891 1.51862 66.5943 1.75391 65.3086L2.45703 61.5586C2.63484 60.5876 2.63245 59.6163 2.47656 58.6484L2.18359 56.7734L1.87109 54.8984C1.66399 53.6125 1.49301 52.3178 1.34375 51.0312L0.914062 47.2812C0.76194 45.9685 0.649635 44.6499 0.601562 43.3359L0.542969 41.4609L0.464844 39.5859C0.408896 38.0361 0.645262 36.5045 1.12891 34.9961L1.71484 33.1211L2.32031 31.2461C2.61022 30.3433 2.67689 29.4681 2.55469 28.6094L2.30078 26.7344L2.02734 24.8594C1.84982 23.6174 1.66561 22.3709 1.48047 21.1289L1.20703 19.2539L0.914062 17.3789C0.664762 15.7066 0.850987 14.0467 1.44141 12.457L2.10547 10.6602L2.78906 8.84375C3.41903 7.15555 4.49907 5.77652 6.01172 4.80078L9.17578 2.76953C9.74208 2.40483 10.2799 2.08006 10.7578 1.85156C10.9966 1.73743 11.2719 1.62588 11.5586 1.53906C11.8122 1.46236 12.2627 1.3607 12.7891 1.40234L13.2578 1.44141L13.7266 1.46094C14.1494 1.49439 15.0312 1.62834 16.2461 1.8125L18.1211 2.10547L19.9961 2.37891C20.8442 2.50748 21.7008 2.43372 22.5938 2.14453L26.3438 0.933594C28.0297 0.385774 29.7665 0.31036 31.4805 0.738281L35.2305 1.67578C36.2934 1.94136 37.3495 2.07928 38.3945 2.08594L40.2695 2.10547H42.1445C43.191 2.11185 44.2465 2.00245 45.3086 1.75391L47.1836 1.30469L49.0586 0.875C50.7414 0.481599 52.4368 0.531624 54.0977 1.03125L57.8477 2.16406C58.8535 2.46639 59.8445 2.59982 60.8164 2.57422L62.6914 2.51562L64.5664 2.47656C65.8949 2.4418 67.2228 2.47771 68.5508 2.57422L72.3008 2.84766C73.3065 2.92087 74.3272 2.83588 75.3477 2.61328L79.0977 1.79297C80.4141 1.50602 81.7429 1.28058 83.0625 1.10938L84.9375 0.875L86.8125 0.621094C88.3765 0.419422 89.9379 0.524021 91.4805 0.914062L93.3555 1.38281L95.2305 1.87109C96.2176 2.12138 97.1959 2.18701 98.1602 2.10547L101.91 1.79297C103.289 1.67594 104.672 1.67282 106.051 1.77344L109.801 2.04688C110.776 2.11825 111.772 2.02595 112.77 1.77344L116.52 0.835938C118.131 0.429031 119.76 0.382247 121.383 0.71875L125.133 1.5C126.089 1.69826 127.036 1.72525 127.984 1.57812L131.734 0.992188C133.207 0.762479 134.692 0.719947 136.168 0.894531L138.043 1.12891L139.918 1.34375C140.917 1.46205 141.919 1.43077 142.926 1.24609L144.801 0.914062L146.676 0.5625C148.312 0.262504 149.949 0.353868 151.559 0.816406L153.434 1.34375L155.309 1.89062C156.125 2.12573 156.922 2.14226 157.73 1.92969L159.605 1.42188L161.48 0.933594C162.938 0.548092 164.415 0.351345 165.895 0.367188L169.645 0.40625ZM165.855 5.36719C164.84 5.35578 163.807 5.48397 162.77 5.75781L160.895 6.26562L159.02 6.75391C157.332 7.20024 155.621 7.17768 153.941 6.69531L152.066 6.14844L150.191 5.62109C149.304 5.36546 148.435 5.3265 147.574 5.48438L145.699 5.81641L143.824 6.16797C142.332 6.44159 140.832 6.48222 139.332 6.30469L135.582 5.875C134.56 5.75408 133.541 5.77412 132.516 5.93359L128.766 6.51953C127.216 6.76114 125.658 6.70243 124.117 6.38281L122.242 6.01172L120.367 5.62109C119.492 5.43954 118.617 5.45525 117.73 5.67969L113.98 6.61719C112.482 6.99581 110.97 7.138 109.449 7.02734L105.699 6.75391C104.582 6.6721 103.458 6.67875 102.34 6.77344L98.5898 7.08594C97.0581 7.21595 95.5285 7.09641 94.0195 6.71484L92.1445 6.22656L90.2695 5.75781C89.318 5.51656 88.3675 5.46138 87.4375 5.58203L85.5625 5.83594L83.6875 6.07031C82.5124 6.22303 81.3306 6.4383 80.1523 6.69531L78.2773 7.10547L76.4023 7.49609C74.9258 7.81783 73.4404 7.93614 71.9492 7.82812L68.1992 7.55469C67.0313 7.46966 65.8509 7.44581 64.6836 7.47656L62.8086 7.51562L60.9336 7.57422C59.4086 7.6136 57.8934 7.39776 56.4023 6.94922L52.6523 5.81641C51.8156 5.56549 51.0064 5.54755 50.1914 5.73828L48.3164 6.1875L46.4414 6.61719C45.0057 6.95293 43.5568 7.11471 42.1055 7.10547H40.2305L38.3555 7.08594C36.9025 7.07639 35.4546 6.89744 34.0195 6.53906L30.2695 5.60156C29.4872 5.4061 28.7161 5.41838 27.9062 5.67969L26.0312 6.30469L24.1562 6.91016C22.5524 7.4313 20.9029 7.56984 19.2539 7.32031L17.3789 7.04688L15.5039 6.75391C14.2296 6.5607 13.5455 6.47803 13.3359 6.46094L12.8672 6.42188L12.8281 6.40234C12.6198 6.50854 12.3155 6.69516 11.8906 6.96875L8.72656 9C8.13741 9.37942 7.73896 9.89572 7.47656 10.6016L6.79297 12.3984L6.12891 14.1953C5.8277 15.0056 5.75176 15.8101 5.875 16.6367L6.42188 20.3867C6.60877 21.6405 6.78955 22.9025 6.96875 24.1562L7.51562 27.9062C7.74813 29.5432 7.59746 31.1766 7.08594 32.7695L5.875 36.5195C5.55914 37.5052 5.4303 38.466 5.46484 39.4102L5.54297 41.2852L5.60156 43.1602C5.64489 44.3438 5.73755 45.5301 5.875 46.7148L6.30469 50.4648C6.44519 51.6756 6.61746 52.8862 6.8125 54.0977L7.10547 55.9727L7.41797 57.8477C7.66474 59.3798 7.63935 60.9281 7.35938 62.457L7.02734 64.332L6.67578 66.207C6.45449 67.4161 6.27152 68.6317 6.10938 69.8398L5.60156 73.5898C5.48729 74.4483 5.55859 75.3209 5.85547 76.2266L6.48047 78.1016L7.08594 79.9766C7.6491 81.6963 7.68365 83.4548 7.18359 85.1914L6.65625 87.0664L6.10938 88.9414C5.87792 89.7452 5.88389 90.5228 6.10938 91.3242L7.16406 95.0742C7.5733 96.5293 7.77743 98.0081 7.78906 99.4883L7.82812 103.238C7.83823 104.547 7.79958 105.856 7.71094 107.164L7.57422 109.039L7.45703 110.914C7.36693 112.242 7.20202 113.573 6.98828 114.898L6.69531 116.773L6.38281 118.648C6.21437 119.693 6.17508 120.734 6.26562 121.773L6.44141 123.648L6.59766 125.523C6.71043 126.807 6.81021 128.107 6.87109 129.391L6.94922 131.266L7.04688 133.141C7.11493 134.59 7.01338 136.038 6.73438 137.477L5.99219 141.227C5.76997 142.372 5.63314 143.524 5.5625 144.664L5.32812 148.414C5.26004 149.521 5.28866 150.626 5.40625 151.734L5.79688 155.484C5.92741 156.713 6.08419 157.946 6.24609 159.176L6.48047 161.051L6.73438 162.926C6.92776 164.395 6.9145 165.871 6.71484 167.34L6.20703 171.09C6.0789 172.035 6.12611 172.981 6.34375 173.941L7.20312 177.691C7.5453 179.196 7.64327 180.721 7.49609 182.242L7.30078 184.117L7.125 185.992C6.99582 187.327 6.80595 188.665 6.53906 189.996L6.16797 191.871L5.77734 193.746C5.58636 194.702 5.56867 195.648 5.71875 196.598L6.03125 198.473L6.32422 200.348C6.53316 201.659 6.68609 202.98 6.79297 204.293L7.10547 208.043C7.21224 209.356 7.25936 210.675 7.26172 211.988V215.738C7.26355 216.861 7.36725 217.932 7.53516 218.941L7.80859 220.68L8.10156 222.398C8.21885 223.103 8.52698 223.8 9.07812 224.508L10.25 226.031L11.4219 227.535C11.7224 227.921 12.0333 228.082 12.5742 228.082H16.4609C17.6633 228.081 18.8467 228.003 19.9961 227.867L21.8711 227.652L23.7461 227.418C24.9952 227.27 26.247 227.137 27.4961 226.988L29.3711 226.754L31.2461 226.539C32.6978 226.366 34.1505 226.373 35.6016 226.559L39.3516 227.027C40.3846 227.16 41.4237 227.163 42.457 227.027L44.332 226.773L46.207 226.539C47.7582 226.335 49.3198 226.4 50.8555 226.754L52.7305 227.203L54.6055 227.633C55.6368 227.87 56.6574 227.954 57.6719 227.906L59.5469 227.828L61.4219 227.73C62.695 227.67 63.9768 227.638 65.25 227.613L69 227.535C70.394 227.508 71.7908 227.593 73.1797 227.809L76.9297 228.395C77.8115 228.531 78.6945 228.478 79.6055 228.219L81.4805 227.691L83.3555 227.145C84.916 226.7 86.5095 226.578 88.1016 226.773L89.9766 227.008L91.8516 227.223C92.8943 227.35 93.9335 227.355 94.9766 227.223L98.7266 226.754C100.04 226.587 101.357 226.467 102.672 226.402L104.547 226.305L106.422 226.227C108.039 226.147 109.638 226.399 111.188 226.988L113.062 227.711L114.938 228.414C115.627 228.676 116.249 228.68 116.93 228.434L118.805 227.75L120.68 227.086C122.185 226.539 123.73 226.244 125.289 226.246H129.039C130.426 226.249 131.818 226.386 133.199 226.617L136.949 227.242C138.21 227.454 139.477 227.673 140.738 227.906L142.613 228.258L144.488 228.59C145.538 228.784 146.592 228.853 147.633 228.785L151.383 228.551C152.619 228.471 153.857 228.377 155.094 228.277L158.844 227.965C160.284 227.849 161.725 227.904 163.16 228.121L165.035 228.414L166.91 228.688C167.771 228.818 168.647 228.771 169.547 228.492L173.297 227.32C174.933 226.813 176.609 226.713 178.277 227.047L180.152 227.418L182.027 227.809C183.022 228.008 184.012 228.039 184.996 227.926L188.746 227.496C190.113 227.338 191.498 227.284 192.867 227.32L194.742 227.359L196.617 227.418C197.872 227.451 199.128 227.486 200.387 227.535L202.281 227.613L204.156 227.672C204.85 227.699 205.345 227.527 205.777 227.184L207.184 226.07L208.57 224.977C209.2 224.476 209.604 223.925 209.859 223.336L210.523 221.812L211.168 220.309C211.504 219.525 211.76 218.605 211.93 217.535L212.223 215.66L212.535 213.785C212.689 212.811 212.668 211.832 212.496 210.855L211.832 207.105C211.575 205.653 211.504 204.19 211.617 202.73L211.773 200.855L211.91 198.98C211.993 197.91 211.96 196.832 211.812 195.758L211.305 192.008C211.081 190.384 211.226 188.768 211.715 187.184L212.281 185.309L212.867 183.434C213.147 182.528 213.211 181.644 213.082 180.777L212.535 177.027C212.324 175.598 212.272 174.165 212.379 172.73L212.652 168.98C212.736 167.862 212.726 166.74 212.633 165.621L212.32 161.871C212.206 160.501 212.195 159.121 212.281 157.75L212.516 154C212.589 152.824 212.62 151.641 212.594 150.465L212.516 146.715C212.486 145.368 212.522 144.018 212.652 142.672L212.848 140.797L213.023 138.922C213.114 137.986 213.034 137.035 212.77 136.07L212.262 134.195L211.734 132.32C211.306 130.756 211.203 129.165 211.422 127.574L211.93 123.824C212.093 122.633 212.223 121.44 212.301 120.25L212.535 116.5C212.611 115.341 212.64 114.182 212.594 113.023L212.438 109.273C212.388 108.045 212.319 106.81 212.242 105.582L212.008 101.832C211.926 100.533 211.891 99.225 211.891 97.9258V94.1758C211.89 93.0208 211.826 91.856 211.695 90.6992L211.266 86.9492C211.102 85.5008 211.102 84.0412 211.285 82.5938L211.539 80.7188L211.773 78.8438C211.926 77.6391 212.05 76.4345 212.145 75.2305L212.281 73.3555L212.438 71.4805C212.517 70.4658 212.448 69.4403 212.242 68.4141L211.871 66.5391L211.48 64.6641C211.18 63.1685 211.121 61.6585 211.285 60.1523L211.48 58.2773L211.695 56.4023C211.834 55.1359 211.979 53.86 212.145 52.5938L212.652 48.8438C212.781 47.8639 212.747 46.8825 212.555 45.8945L211.812 42.1445C211.542 40.756 211.407 39.3614 211.383 37.9648L211.305 34.2148C211.281 32.8239 211.388 31.4214 211.598 30.0352L211.871 28.1602L212.164 26.2852C212.32 25.2485 212.333 24.2128 212.223 23.1797L211.832 19.4297C211.698 18.1756 211.558 16.9591 211.441 15.7773L211.285 14L211.109 12.2422C211.044 11.5756 210.806 11.0319 210.387 10.543L208.082 7.88672C207.84 7.60537 207.593 7.4591 207.086 7.47656L205.25 7.53516L203.414 7.61328C201.978 7.66215 200.537 7.5177 199.098 7.20312L195.348 6.38281C194.326 6.15923 193.307 6.07698 192.301 6.14844L188.551 6.42188C187.157 6.52073 185.763 6.50536 184.371 6.36328L180.621 5.97266C179.416 5.84969 178.212 5.75708 177.008 5.69922L175.133 5.62109L173.258 5.52344C172.041 5.46502 170.822 5.42003 169.605 5.40625L165.855 5.36719Z" fill="#FFCA39"/>
</svg>
