<svg width="1011" height="83" viewBox="0 0 1011 83" fill="none" xmlns="http://www.w3.org/2000/svg">
<path d="M46.0312 0.152344L47.9062 0.289062L49.7812 0.40625C50.9837 0.483431 52.1924 0.515266 53.3945 0.523438L57.1445 0.5625C58.4599 0.571512 59.7753 0.621892 61.0898 0.738281L62.9648 0.914062L64.8398 1.07031C66.1009 1.18213 67.3679 1.30863 68.6289 1.44141L72.3789 1.83203C73.4438 1.94419 74.5163 1.9387 75.582 1.8125L77.457 1.59766L79.332 1.36328C80.7827 1.19166 82.2374 1.20069 83.6875 1.38281L87.4375 1.85156C88.4463 1.97825 89.4519 1.96122 90.4648 1.79297L94.2148 1.16797C95.5854 0.940352 96.9603 0.833804 98.3359 0.816406L100.211 0.777344L102.086 0.757812C103.521 0.740107 104.959 0.88889 106.383 1.1875L110.133 1.96875C111.051 2.16151 111.971 2.17366 112.887 1.98828L114.762 1.59766L116.637 1.22656C117.988 0.953437 119.342 0.77449 120.699 0.679688L124.449 0.40625C125.907 0.304483 127.374 0.38099 128.824 0.640625L130.699 0.972656L132.574 1.32422C133.804 1.54445 135.035 1.74961 136.266 1.94922L138.141 2.26172L140.016 2.55469C141.075 2.72648 142.146 2.76896 143.199 2.69141L146.949 2.41797C148.282 2.32007 149.62 2.30003 150.953 2.33984L154.703 2.45703C155.794 2.48935 156.888 2.41651 157.984 2.24219L159.859 1.92969L161.734 1.63672C163.023 1.43187 164.312 1.26853 165.602 1.12891L167.477 0.914062L169.352 0.71875C170.736 0.568939 172.126 0.523472 173.512 0.601562L175.387 0.71875L177.262 0.816406C178.663 0.895644 180.071 1.11041 181.461 1.44141L183.336 1.89062L185.211 2.32031C186.199 2.55518 187.171 2.64198 188.141 2.55469L191.891 2.20312C193.281 2.07664 194.68 2.07208 196.07 2.18359L197.945 2.33984L199.82 2.47656C200.786 2.55419 201.761 2.47513 202.75 2.22266L204.625 1.75391L206.5 1.26562C208.14 0.846132 209.816 0.836839 211.461 1.22656L213.336 1.65625L215.211 2.10547C216.133 2.32269 217.036 2.35721 217.945 2.20312L219.82 1.89062L221.695 1.55859C223.186 1.30397 224.692 1.27227 226.188 1.46094L229.938 1.92969C231.155 2.08331 232.373 2.2134 233.59 2.32031L235.465 2.49609L237.34 2.65234C238.413 2.74654 239.488 2.72517 240.562 2.59375L242.438 2.35938L244.312 2.14453C245.493 1.99961 246.684 1.80398 247.867 1.55859L251.617 0.777344C253.006 0.489356 254.399 0.312239 255.797 0.269531L257.672 0.230469L259.547 0.171875C260.932 0.129638 262.325 0.185798 263.707 0.367188L267.457 0.875C268.697 1.03774 269.947 1.19216 271.188 1.34375L273.062 1.55859L274.938 1.79297C275.971 1.91852 277.009 1.91525 278.043 1.77344L281.793 1.26562C283.106 1.08574 284.423 0.94919 285.738 0.875L287.613 0.777344L289.488 0.660156C290.942 0.578492 292.4 0.681413 293.844 0.953125L297.594 1.65625C298.736 1.87088 299.875 2.0188 301.012 2.08594L302.887 2.18359L304.762 2.30078C305.799 2.36165 306.858 2.2901 307.906 2.08594L309.781 1.71484L311.656 1.36328C313.148 1.07345 314.647 1.0015 316.148 1.16797L318.023 1.38281L319.898 1.57812C321.16 1.71829 322.426 1.86807 323.688 2.02734L325.562 2.28125L327.438 2.51562C328.277 2.62158 329.134 2.52494 330.035 2.20312L331.91 1.53906L333.785 0.855469C335.478 0.251404 337.223 0.15805 338.961 0.582031L340.836 1.03125L342.711 1.5C343.623 1.72331 344.527 1.74271 345.426 1.57812L347.301 1.22656L349.176 0.894531C350.8 0.5972 352.436 0.673416 354.039 1.10938L357.789 2.125C358.662 2.36138 359.512 2.3954 360.367 2.22266L362.242 1.83203L364.117 1.46094C365.526 1.1741 366.957 1.01589 368.375 1.01172H372.125C373.474 1.00805 374.821 1.08585 376.168 1.24609L378.043 1.46094L379.918 1.69531C380.992 1.82317 382.068 1.83603 383.141 1.73438L385.016 1.53906L386.891 1.36328C388.401 1.22039 389.907 1.32859 391.402 1.65625L395.152 2.47656C396.191 2.70478 397.234 2.78033 398.258 2.73047L400.133 2.65234L402.008 2.55469C403.144 2.49917 404.284 2.37337 405.426 2.16406L407.301 1.8125L409.176 1.48047C410.642 1.21154 412.115 1.1339 413.59 1.26562L415.465 1.44141L417.34 1.59766C418.516 1.70331 419.7 1.77139 420.875 1.77344H424.625C425.834 1.77542 427.049 1.75272 428.258 1.69531L432.008 1.5C433.436 1.43233 434.864 1.51783 436.285 1.75391L440.035 2.37891C440.94 2.52925 441.847 2.4938 442.77 2.26172L446.52 1.32422C447.984 0.956144 449.468 0.793016 450.953 0.835938L452.828 0.894531L454.703 0.933594C456.032 0.972179 457.36 1.07861 458.688 1.24609L462.438 1.71484C463.473 1.84558 464.507 1.85065 465.543 1.71484L467.418 1.46094L469.293 1.22656C470.876 1.01831 472.463 1.11887 474.02 1.53906L477.77 2.55469C478.794 2.83216 479.817 2.97128 480.816 2.94531L482.691 2.88672L484.566 2.84766C485.597 2.82036 486.638 2.65827 487.691 2.35938L489.566 1.8125L491.441 1.28516C493.079 0.820319 494.746 0.766475 496.402 1.12891L500.152 1.94922C501.186 2.17642 502.219 2.27392 503.238 2.22266L506.988 2.02734C508.307 1.95993 509.635 1.94494 510.953 1.98828L514.703 2.10547C515.988 2.14783 517.285 2.22357 518.57 2.32031L520.445 2.45703L522.32 2.61328C523.46 2.69872 524.599 2.71016 525.738 2.65234L529.488 2.45703C530.694 2.39539 531.915 2.28969 533.121 2.16406L536.871 1.77344C538.344 1.62057 539.818 1.68198 541.285 1.92969L545.035 2.55469C545.948 2.70918 546.863 2.67608 547.789 2.45703L549.664 2.02734L551.539 1.57812C553.036 1.22286 554.555 1.10652 556.07 1.22656L557.945 1.36328L559.82 1.51953C560.866 1.60246 561.914 1.55339 562.965 1.38281L564.84 1.07031L566.715 0.777344C568.341 0.512532 569.982 0.608764 571.578 1.07031L575.328 2.16406C576.091 2.38306 576.836 2.37612 577.613 2.125L581.363 0.914062C582.962 0.39833 584.603 0.242514 586.246 0.484375L589.996 1.03125C591.041 1.18447 592.08 1.2146 593.121 1.10938L594.996 0.914062L596.871 0.738281C598.351 0.588484 599.832 0.637449 601.305 0.894531L603.18 1.22656L605.055 1.53906C606.277 1.75234 607.505 1.95499 608.727 2.125L610.602 2.37891L612.477 2.65234C613.304 2.76625 614.147 2.6758 615.035 2.35938L616.91 1.69531L618.785 1.01172C620.368 0.44762 622.005 0.250742 623.648 0.425781L627.398 0.816406C628.642 0.94885 629.885 1.07943 631.129 1.20703L634.879 1.59766C636.081 1.72106 637.29 1.79766 638.492 1.85156L640.367 1.94922L642.242 2.02734C643.523 2.08484 644.809 2.1739 646.09 2.28125L649.84 2.59375C650.704 2.66531 651.588 2.54185 652.516 2.20312L656.266 0.835938C657.837 0.262065 659.455 0.0285695 661.09 0.171875L662.965 0.347656L664.84 0.503906C665.988 0.605066 667.149 0.64134 668.297 0.601562L670.172 0.523438L672.047 0.464844C673.387 0.418696 674.73 0.458758 676.07 0.5625L679.82 0.835938C681.153 0.93921 682.494 1.12576 683.824 1.36328L687.574 2.02734C688.741 2.23541 689.906 2.38452 691.07 2.47656L692.945 2.63281L694.82 2.76953C695.771 2.84469 696.732 2.76085 697.711 2.49609L701.461 1.48047C702.951 1.07577 704.476 0.887228 705.992 0.953125L707.867 1.05078L709.742 1.12891C710.96 1.18171 712.177 1.21459 713.395 1.22656L717.145 1.26562C718.412 1.27804 719.685 1.30172 720.953 1.34375L724.703 1.46094C725.965 1.50279 727.231 1.55799 728.492 1.61719L730.367 1.69531L732.242 1.79297C733.285 1.84191 734.333 1.76757 735.387 1.55859L739.137 0.816406C740.575 0.530858 742.023 0.408343 743.473 0.464844L745.348 0.542969L747.223 0.601562C748.464 0.649962 749.711 0.70235 750.953 0.738281L752.828 0.796875L754.703 0.835938C756.127 0.877518 757.551 1.0667 758.961 1.40234L762.711 2.30078C763.712 2.53844 764.698 2.62961 765.68 2.55469L767.555 2.39844L769.43 2.26172C770.743 2.16085 772.061 2.10077 773.375 2.10547L775.25 2.125H777.125C778.136 2.12881 779.174 1.98449 780.211 1.69531L782.086 1.1875L783.961 0.660156C785.536 0.221671 787.143 0.111596 788.746 0.347656L792.496 0.894531C793.727 1.07567 794.957 1.2451 796.188 1.40234L798.062 1.65625L799.938 1.89062C800.88 2.01101 801.829 1.96258 802.789 1.73438L806.539 0.835938C807.949 0.499362 809.373 0.293904 810.797 0.25L812.672 0.210938L814.547 0.152344C816.078 0.105202 817.601 0.307604 819.098 0.757812L822.848 1.89062C823.707 2.1482 824.536 2.18046 825.367 2.00781L829.117 1.22656C830.66 0.906056 832.215 0.864475 833.766 1.10938L837.516 1.69531C838.651 1.87458 839.783 1.98799 840.914 2.00781L842.789 2.02734L844.664 2.06641C845.673 2.08391 846.698 1.9527 847.73 1.67578L849.605 1.16797L851.48 0.679688C853.041 0.261448 854.621 0.154055 856.207 0.367188L858.082 0.621094L859.957 0.855469C861.167 1.01804 862.381 1.16317 863.59 1.26562L867.34 1.57812C868.596 1.6846 869.853 1.79049 871.109 1.91016L872.984 2.10547L874.859 2.28125C876.076 2.39715 877.295 2.48819 878.512 2.55469L882.262 2.75C883.186 2.80053 884.124 2.67685 885.094 2.35938L886.969 1.75391L888.844 1.12891C890.539 0.573551 892.279 0.523251 894 0.972656L897.75 1.94922C898.571 2.16435 899.385 2.15878 900.211 1.92969L902.086 1.42188L903.961 0.894531C905.619 0.435366 907.312 0.406887 908.98 0.816406L910.855 1.28516L912.73 1.73438C913.7 1.97145 914.652 2.03104 915.602 1.92969L919.352 1.53906C920.629 1.40187 921.922 1.28238 923.199 1.1875L926.949 0.914062C928.488 0.800787 930.028 0.953437 931.539 1.36328L935.289 2.37891C936.177 2.61808 937.039 2.63922 937.906 2.47656L941.656 1.77344C942.928 1.53404 944.213 1.31437 945.484 1.10938L947.359 0.816406L949.234 0.503906C950.876 0.240429 952.515 0.372857 954.117 0.875L957.867 2.04688C958.927 2.37978 959.979 2.57272 961.012 2.63281L962.887 2.75L964.762 2.84766C965.808 2.90791 966.87 2.8477 967.926 2.65234L969.801 2.30078L971.676 1.96875C973.202 1.68678 974.735 1.66811 976.266 1.91016L980.016 2.49609C981.138 2.67358 982.258 2.75006 983.375 2.75H987.125C988.283 2.74993 989.442 2.69854 990.602 2.57422L992.477 2.37891L994.352 2.16406C995.929 1.99463 997.485 2.14805 998.961 2.63281L1000.62 3.17969L1002.3 3.72656C1003.93 4.26196 1005.27 5.27168 1006.32 6.63672L1008.67 9.64453C1009.83 11.1511 1010.35 12.924 1010.17 14.8203L1009.82 18.6094C1009.72 19.7028 1009.73 20.7993 1009.86 21.8711L1010.33 25.6211C1010.53 27.2492 1010.34 28.8662 1009.82 30.4453L1008.57 34.1953C1008.25 35.1554 1008.14 36.0956 1008.2 37.0078L1008.32 38.8828L1008.45 40.7578C1008.52 41.837 1008.69 42.925 1008.98 44.0195L1009.49 45.8945L1009.98 47.7695C1010.37 49.2334 1010.57 50.7159 1010.54 52.2031L1010.5 54.0781L1010.48 55.9531C1010.46 57.3558 1010.3 58.7585 1010.02 60.1523L1009.27 63.9023C1009.07 64.8948 1009.03 65.9176 1009.14 66.9688L1009.33 68.9219L1009.55 70.875C1009.77 72.9471 1009.07 74.8082 1007.59 76.2656L1006.19 77.6719L1004.76 79.0781C1003.32 80.4988 1001.5 81.196 999.469 81.0312L997.555 80.875L995.621 80.7188C994.615 80.6372 993.62 80.7112 992.633 80.9531L990.758 81.4219L988.883 81.8711C987.305 82.2571 985.709 82.3225 984.117 82.0469L980.367 81.3828C979.201 81.1806 978.034 81.0519 976.871 80.9727L974.996 80.8359L973.121 80.7188C971.924 80.6372 970.724 80.5874 969.527 80.582H967.652L965.777 80.5625C964.723 80.5581 963.662 80.6738 962.594 80.9141L958.844 81.7734C957.42 82.094 955.985 82.2407 954.547 82.2422H950.797C949.323 82.2435 947.854 82.0598 946.402 81.6758L944.527 81.1875L942.652 80.6797C941.637 80.4112 940.636 80.3067 939.645 80.3477L935.895 80.5039C934.602 80.5574 933.3 80.5754 932.008 80.5625L928.258 80.5234C927.249 80.5142 926.224 80.6524 925.191 80.9336L921.441 81.9492C919.793 82.3968 918.119 82.4231 916.461 82.0273L912.711 81.1289C911.661 80.8785 910.619 80.7616 909.586 80.7773L907.711 80.8164L905.836 80.8359C904.561 80.8558 903.282 80.8567 902.008 80.8359L900.133 80.8164L898.258 80.7773C897.237 80.7606 896.194 80.8823 895.152 81.1484L893.277 81.6367L891.402 82.1055C889.762 82.5235 888.105 82.5424 886.461 82.1445L884.586 81.6953L882.711 81.2266C881.601 80.9569 880.489 80.7884 879.391 80.7188L875.641 80.4844C874.735 80.4272 873.805 80.549 872.848 80.875L869.098 82.1641C867.533 82.6964 865.93 82.8834 864.312 82.7305L860.562 82.3789C859.444 82.2725 858.32 82.2522 857.203 82.3203L853.453 82.5547C852.05 82.6408 850.635 82.5895 849.234 82.418L847.359 82.2031L845.484 81.9688C844.247 81.8173 843.01 81.6735 841.773 81.5391L839.898 81.3242L838.023 81.1289C837.013 81.019 835.995 81.0641 834.977 81.2461L831.227 81.9102C829.89 82.149 828.544 82.3084 827.203 82.3984L825.328 82.5352L823.453 82.6523C821.895 82.7562 820.346 82.5819 818.824 82.125L815.074 80.9922C814.174 80.7216 813.303 80.6592 812.438 80.7969L810.562 81.0898L808.688 81.4023C807.246 81.6321 805.798 81.6895 804.352 81.5781L802.477 81.4219L800.602 81.2852C799.549 81.204 798.496 81.2563 797.438 81.4219L793.688 82.0078C792.376 82.2137 791.056 82.3714 789.742 82.4766L787.867 82.6133L785.992 82.7695C784.566 82.8837 783.138 82.8437 781.715 82.6523L777.965 82.1445C776.71 81.9755 775.45 81.7979 774.195 81.6172L770.445 81.0703C769.511 80.9356 768.564 80.9829 767.613 81.207L765.738 81.6562L763.863 82.0859C762.179 82.483 760.486 82.4309 758.824 81.9297L755.074 80.7969C754.033 80.4825 753 80.3284 751.988 80.3086L748.238 80.2305C747.213 80.2109 746.177 80.3265 745.133 80.582L743.258 81.0312L741.383 81.5C740.004 81.8372 738.612 82.0593 737.223 82.1641L733.473 82.4375C732.024 82.5462 730.579 82.4815 729.137 82.2422L725.387 81.6172C724.418 81.4562 723.447 81.4643 722.477 81.6367L718.727 82.3008C717.193 82.5731 715.651 82.5831 714.117 82.3203L712.242 82.0078L710.367 81.6758C709.234 81.4819 708.097 81.3745 706.969 81.3438L705.094 81.2852L703.219 81.2461C701.89 81.2097 700.562 81.1027 699.234 80.9336L697.359 80.6992L695.484 80.4453C694.382 80.3045 693.264 80.2707 692.164 80.3281L688.414 80.5234C687.06 80.5938 685.706 80.5695 684.352 80.4648L680.602 80.1914C679.573 80.1118 678.534 80.1531 677.496 80.3477L673.746 81.0508C672.319 81.318 670.886 81.4377 669.449 81.3828L665.699 81.2266C664.392 81.1764 663.08 81.0931 661.773 80.9531L659.898 80.7383L658.023 80.543C657.086 80.4429 656.135 80.5231 655.172 80.7773L651.422 81.7539C649.743 82.1963 648.038 82.2011 646.363 81.7344L642.613 80.6797C641.628 80.4059 640.659 80.3038 639.703 80.3672L637.828 80.4844L635.953 80.6211C634.672 80.706 633.387 80.7625 632.105 80.7969L630.23 80.8555L628.355 80.8945C627.023 80.9301 625.684 80.8953 624.352 80.7969L620.602 80.5234C619.601 80.4502 618.59 80.5334 617.574 80.7578L613.824 81.5781C612.264 81.9221 610.687 81.9638 609.117 81.6953L607.242 81.3828L605.367 81.0508C604.315 80.8711 603.268 80.8225 602.223 80.8945L600.348 81.0312L598.473 81.1484C597.271 81.2319 596.062 81.3495 594.859 81.5L591.109 81.9688C589.533 82.1662 587.953 82.0666 586.402 81.6562L584.527 81.1484L582.652 80.6602C581.847 80.4471 581.065 80.4611 580.25 80.6992L576.5 81.793C574.785 82.2952 573.036 82.2869 571.324 81.7734L567.574 80.6406C566.784 80.4038 566.017 80.4136 565.23 80.6406L563.355 81.168L561.48 81.7148C560.048 82.1281 558.6 82.3757 557.145 82.4375L553.395 82.5938C552 82.6527 550.606 82.5845 549.215 82.3984L545.465 81.8906C544.471 81.7576 543.474 81.7781 542.477 81.9492L538.727 82.6133C537.007 82.9101 535.294 82.7016 533.648 82.0664L529.898 80.6211C529.007 80.2766 528.155 80.1692 527.34 80.2695L523.59 80.7383C522.187 80.9105 520.777 80.949 519.371 80.8555L517.496 80.7383L515.621 80.6016C514.57 80.5321 513.515 80.5984 512.457 80.7773L508.707 81.4023C507.38 81.6268 506.053 81.7972 504.723 81.8906L502.848 82.0078L500.973 82.1445C499.715 82.2327 498.442 82.3225 497.184 82.3984L495.309 82.5156L493.434 82.6133C491.883 82.7058 490.34 82.5178 488.824 82.0664L486.949 81.5195L485.074 80.9531C484.282 80.718 483.519 80.7274 482.73 80.9531L480.855 81.4805L478.98 82.0273C477.287 82.5118 475.559 82.5016 473.863 82.0273L471.988 81.5195L470.113 80.9922C469.138 80.7198 468.187 80.6264 467.242 80.6992L465.367 80.8359L463.492 80.9922C462.38 81.0787 461.256 81.2463 460.133 81.5195L458.258 81.9883L456.383 82.4375C454.819 82.8179 453.236 82.8786 451.656 82.6328L449.781 82.3398L447.906 82.0664C446.76 81.8881 445.611 81.7848 444.469 81.7539L440.719 81.6367C439.607 81.607 438.494 81.6809 437.379 81.832L433.629 82.3398C432.074 82.5504 430.52 82.4628 428.98 82.1055L425.23 81.2461C424.226 81.0125 423.229 80.9323 422.242 81.0117L420.367 81.168L418.492 81.3047C417.052 81.4206 415.612 81.3827 414.176 81.168L412.301 80.875L410.426 80.6016C409.482 80.4602 408.529 80.4884 407.574 80.6992L403.824 81.5195C402.345 81.8457 400.846 81.9602 399.352 81.8516L395.602 81.5781C394.556 81.5029 393.509 81.5619 392.457 81.7344L390.582 82.0469L388.707 82.3398C387.347 82.5637 385.97 82.7121 384.605 82.75L382.73 82.7891L380.855 82.8477C379.467 82.8858 378.079 82.8108 376.695 82.6133L372.945 82.0664C371.73 81.8925 370.508 81.7437 369.293 81.6172L365.543 81.2266C364.285 81.0956 363.012 80.9595 361.754 80.8164L358.004 80.3867C357.084 80.2828 356.159 80.3618 355.211 80.6211L351.461 81.6367C350.047 82.0245 348.616 82.2784 347.184 82.3594L343.434 82.5547C342.015 82.6349 340.59 82.5847 339.176 82.3789L335.426 81.832C334.13 81.6433 332.833 81.4177 331.539 81.1484L327.789 80.3672C326.983 80.1994 326.172 80.2297 325.328 80.5039L323.453 81.1289L321.578 81.7344C319.842 82.3017 318.05 82.326 316.305 81.793L314.43 81.2266L312.555 80.6406C311.61 80.353 310.687 80.2587 309.781 80.3477L307.906 80.543L306.031 80.7188C304.758 80.8438 303.477 80.945 302.203 81.0312L300.328 81.168L298.453 81.2852C297.304 81.3632 296.15 81.5195 294.996 81.7344L291.246 82.4375C289.557 82.7512 287.866 82.6082 286.227 82.0469L282.477 80.7578C281.752 80.511 281.071 80.5126 280.348 80.7578L278.473 81.4023L276.598 82.0273C274.969 82.5802 273.295 82.7305 271.617 82.4375L267.867 81.7734C266.849 81.595 265.832 81.5659 264.82 81.6758L262.945 81.8711L261.07 82.0859C259.806 82.2241 258.527 82.3417 257.262 82.457L253.512 82.8086C252.132 82.9339 250.751 82.9465 249.371 82.8477L245.621 82.5742C244.432 82.4887 243.235 82.4561 242.047 82.457H238.297C236.992 82.4582 235.676 82.4053 234.371 82.3203L230.621 82.0859C229.3 81.9996 227.976 81.8602 226.656 81.6562L222.906 81.0703C222.033 80.9358 221.155 80.9829 220.25 81.2461L218.375 81.793L216.5 82.3594C215.022 82.7913 213.516 82.9848 212.008 82.9648L208.258 82.9258C206.995 82.9091 205.732 82.8867 204.469 82.8477L200.719 82.7305C199.345 82.688 197.966 82.5457 196.598 82.3008L194.723 81.9492L192.848 81.6172C191.79 81.4282 190.733 81.3607 189.684 81.4219L185.934 81.6562C184.679 81.7293 183.419 81.7883 182.164 81.8516L178.414 82.0469C176.887 82.1234 175.362 81.9373 173.863 81.5195L171.988 81.0117L170.113 80.4844C169.097 80.2017 168.094 80.0657 167.105 80.0938L163.355 80.2109C162.105 80.2464 160.855 80.278 159.605 80.3086L157.73 80.3477L155.855 80.4062C154.77 80.4328 153.671 80.5543 152.574 80.7969L150.699 81.207L148.824 81.6367C147.349 81.9621 145.861 82.0755 144.371 81.9688L140.621 81.6953C139.46 81.6114 138.286 81.5767 137.125 81.6172L135.25 81.6953L133.375 81.7539C131.967 81.8028 130.559 81.7239 129.156 81.5L127.281 81.1875L125.406 80.8945C124.313 80.7196 123.212 80.6423 122.125 80.6797L120.25 80.7578L118.375 80.8164C117.172 80.8579 115.965 80.9236 114.762 81.0312L111.012 81.3828C109.771 81.4938 108.522 81.6113 107.281 81.7344L105.406 81.9102L103.531 82.1055C102.146 82.2424 100.758 82.2613 99.3711 82.1641L95.6211 81.8906C94.503 81.812 93.3803 81.8152 92.2617 81.9102L90.3867 82.0859L88.5117 82.2422C87.084 82.364 85.6401 82.3277 84.2148 82.1445L82.3398 81.9102L80.4648 81.6562C79.2216 81.4965 77.9776 81.3441 76.7344 81.1875L72.9844 80.7188C71.8068 80.5704 70.6253 80.4714 69.4492 80.4258L67.5742 80.3477L65.6992 80.2891C64.5884 80.2461 63.4731 80.2864 62.3594 80.4258L58.6094 80.8945C57.3352 81.0544 56.0556 81.2039 54.7812 81.3242L51.0312 81.6758C49.497 81.8206 47.9552 81.6937 46.4414 81.3242L44.5664 80.875L42.6914 80.4062C41.9029 80.2155 41.124 80.2445 40.3086 80.5039L36.5586 81.7148C35.1306 82.1711 33.6771 82.4464 32.2227 82.5547L28.4727 82.8281C26.8904 82.9453 25.324 82.7524 23.7852 82.2617L21.9102 81.6758L20.0352 81.0703C19.085 80.7673 18.1646 80.6625 17.2617 80.7383L13.5117 81.0508C11.6451 81.2087 9.91011 80.6993 8.45312 79.5078L7.04688 78.375L5.64062 77.2227C4.37038 76.1815 3.42752 74.8553 2.80859 73.3164L2.10547 71.5781L1.40234 69.8203C0.813429 68.356 0.503638 66.8228 0.503906 65.25V61.5C0.504167 60.0905 0.64713 58.6824 0.914062 57.2812L1.61719 53.5312C1.8094 52.5223 1.85915 51.5235 1.75391 50.5234L1.36328 46.7734C1.21097 45.3378 1.21266 43.8919 1.38281 42.457L1.59766 40.582L1.83203 38.707C1.97539 37.4986 2.08224 36.2821 2.16406 35.0742L2.30078 33.1992L2.41797 31.3242C2.48072 30.3848 2.3743 29.4276 2.08594 28.4531L1.53906 26.5781L0.972656 24.7031C0.506781 23.1247 0.375305 21.5111 0.601562 19.8984L0.875 18.0234L1.12891 16.1484C1.32186 14.7746 1.6302 13.4223 2.02734 12.1055L2.55469 10.3281L3.10156 8.53125C3.63417 6.76516 4.70825 5.32553 6.22656 4.27344L7.84766 3.16016L9.46875 2.02734C10.0536 1.62206 10.6503 1.25363 11.207 1.01172C11.4784 0.893819 11.8619 0.75646 12.3008 0.699219C12.5093 0.672584 12.8259 0.661767 13.1797 0.71875L14.3125 1.16797L14.6836 1.44141L14.8008 1.53906C14.8272 1.54538 14.8629 1.53144 14.8984 1.53906C15.1643 1.5959 15.5784 1.6646 16.168 1.73438L18.043 1.96875L19.918 2.18359C21.0453 2.31696 22.1719 2.37197 23.2969 2.33984L27.0469 2.22266C28.229 2.18858 29.4184 2.1176 30.6016 1.98828L32.4766 1.77344L34.3516 1.57812C35.5473 1.44737 36.7481 1.26096 37.9453 1.05078L39.8203 0.738281L41.6953 0.40625C43.1362 0.153431 44.5826 0.0597055 46.0312 0.152344ZM5.50391 65.25C5.50375 66.1758 5.67981 67.07 6.03125 67.9453L7.4375 71.4609C7.75867 72.2595 8.23309 72.8721 8.82422 73.3555L10.2109 74.5078L11.6172 75.6406C12.0237 75.973 12.4581 76.1215 13.082 76.0703L16.832 75.7578C18.423 75.623 20.0106 75.811 21.5586 76.3047L23.4336 76.9102L25.3086 77.4961C26.2649 77.8006 27.1885 77.915 28.1016 77.8477L31.8516 77.5742C32.8971 77.4964 33.9631 77.2918 35.0352 76.9492L38.7852 75.7383C40.4622 75.2035 42.1787 75.1467 43.8828 75.5625L45.7578 76.0117L47.6328 76.4805C48.619 76.7212 49.5967 76.7864 50.5625 76.6953L54.3125 76.3438C55.5354 76.2283 56.7612 76.087 57.9844 75.9336L61.7344 75.4648C63.1176 75.2915 64.5085 75.2354 65.8945 75.2891L67.7695 75.3477L69.6445 75.4258C70.9654 75.4771 72.2901 75.5916 73.6094 75.7578L77.3594 76.2266C78.6098 76.3841 79.8589 76.5542 81.1094 76.7148L84.8594 77.1836C85.9341 77.3217 87.0098 77.3532 88.082 77.2617L89.957 77.1055L91.832 76.9297C93.2098 76.8123 94.5944 76.8133 95.9727 76.9102L97.8477 77.0469L99.7227 77.1641C100.829 77.2416 101.935 77.2347 103.043 77.125L104.918 76.9297L106.793 76.7539C108.048 76.6294 109.307 76.5147 110.562 76.4023L114.312 76.0508C115.606 75.9351 116.906 75.8611 118.199 75.8164L120.074 75.7578L121.949 75.6797C123.362 75.631 124.78 75.7279 126.188 75.9531L128.062 76.2461L129.938 76.5586C131.028 76.7331 132.115 76.7914 133.199 76.7539L136.949 76.6367C138.288 76.59 139.634 76.5986 140.973 76.6953L144.723 76.9688C145.725 77.0412 146.732 76.9787 147.75 76.7539L149.625 76.3242L151.5 75.9141C152.904 75.6036 154.323 75.4409 155.738 75.4062L157.613 75.3477L159.488 75.3086C160.732 75.2781 161.975 75.2462 163.219 75.2109L166.969 75.0938C168.478 75.0509 169.98 75.2475 171.461 75.6602L175.211 76.7148C176.209 76.9932 177.191 77.0951 178.16 77.0469L181.91 76.8516C183.152 76.789 184.399 76.7285 185.641 76.6562L187.516 76.5391L189.391 76.4414C190.837 76.3572 192.288 76.4384 193.727 76.6953L195.602 77.0273L197.477 77.3789C198.608 77.5815 199.749 77.6956 200.875 77.7305L204.625 77.8477C205.855 77.8857 207.086 77.9095 208.316 77.9258L212.066 77.9648C213.058 77.978 214.072 77.8532 215.094 77.5547L218.844 76.4609C220.432 75.9969 222.047 75.8792 223.668 76.1289L227.418 76.7148C228.595 76.8969 229.778 77.0093 230.953 77.0859L232.828 77.2227L234.703 77.3398C235.898 77.4177 237.102 77.4581 238.297 77.457H242.047C243.355 77.4561 244.665 77.4997 245.973 77.5938L249.723 77.8672C250.836 77.9472 251.949 77.9295 253.062 77.8281L256.812 77.4766C258.048 77.364 259.288 77.2404 260.523 77.1055L262.398 76.9102L264.273 76.6953C265.759 76.5334 267.248 76.5922 268.727 76.8516L272.477 77.5156C273.295 77.6586 274.128 77.5955 274.996 77.3008L276.871 76.6562L278.746 76.0312C280.517 75.431 282.328 75.4263 284.098 76.0312L287.848 77.3203C288.705 77.6137 289.521 77.665 290.328 77.5156L294.078 76.8125C295.421 76.5623 296.773 76.396 298.121 76.3047L299.996 76.168L301.871 76.0508C303.094 75.968 304.319 75.8584 305.543 75.7383L309.293 75.3867C310.883 75.2306 312.469 75.3824 314.02 75.8555L315.895 76.4414L317.77 77.0078C318.524 77.2382 319.252 77.2376 320.016 76.9883L321.891 76.3633L323.766 75.7578C325.418 75.2178 327.114 75.1129 328.805 75.4648L332.555 76.2461C333.753 76.4955 334.952 76.6969 336.148 76.8711L339.898 77.418C340.984 77.5759 342.079 77.6354 343.16 77.5742L345.035 77.457L346.91 77.3594C347.975 77.2985 349.05 77.129 350.133 76.832L352.008 76.3047L353.883 75.7969C355.429 75.3731 356.996 75.2472 358.57 75.4258L362.32 75.8555C363.562 75.9967 364.809 76.1169 366.051 76.2461L369.801 76.6367C371.083 76.7701 372.367 76.9417 373.648 77.125L375.523 77.3789L377.398 77.6523C378.508 77.8109 379.614 77.8781 380.719 77.8477L382.594 77.7891L384.469 77.75C385.604 77.7185 386.747 77.6056 387.887 77.418L391.637 76.793C393.078 76.5559 394.525 76.4925 395.973 76.5977L399.723 76.8711C400.726 76.944 401.732 76.8614 402.75 76.6367L406.5 75.8164C408.045 75.4754 409.612 75.427 411.168 75.6602L414.918 76.207C415.976 76.3653 417.028 76.4083 418.082 76.3242L419.957 76.168L421.832 76.0312C423.345 75.9095 424.868 76.0158 426.363 76.3633L428.238 76.793L430.113 77.2422C431.071 77.4641 432.023 77.5065 432.965 77.3789L436.715 76.8711C438.093 76.6848 439.474 76.5996 440.855 76.6367L444.605 76.7539C445.96 76.7905 447.317 76.9151 448.668 77.125L450.543 77.418L452.418 77.6914C453.335 77.834 454.258 77.8003 455.191 77.5742L457.066 77.125L458.941 76.6562C460.319 76.3211 461.714 76.1001 463.102 75.9922L464.977 75.8555L466.852 75.6992C468.401 75.5792 469.942 75.7437 471.461 76.168L475.211 77.2227C476.015 77.4474 476.807 77.434 477.613 77.2031L479.488 76.6758L481.363 76.1289C483.068 75.6429 484.8 75.6625 486.5 76.168L488.375 76.7344L490.25 77.2812C491.231 77.5736 492.195 77.6897 493.141 77.6328L496.891 77.3984C498.133 77.3235 499.379 77.2511 500.621 77.1641L504.371 76.8906C505.535 76.8089 506.701 76.6775 507.867 76.4805L509.742 76.168L511.617 75.8359C513.056 75.5927 514.508 75.5253 515.953 75.6211L517.828 75.7383L519.703 75.875C520.794 75.9476 521.891 75.9118 522.984 75.7773L526.734 75.3086C528.419 75.1013 530.087 75.3317 531.695 75.9531L533.57 76.6758L535.445 77.418C536.296 77.7459 537.09 77.806 537.867 77.6719L539.742 77.3594L541.617 77.0273C543.116 76.7688 544.626 76.748 546.129 76.9492L548.004 77.2031L549.879 77.4375C550.982 77.585 552.08 77.64 553.18 77.5938L556.93 77.4375C557.972 77.3933 559.029 77.2174 560.094 76.9102L561.969 76.3633L563.844 75.8359C565.557 75.3413 567.311 75.343 569.02 75.8555L572.77 76.9883C573.554 77.2217 574.312 77.2172 575.094 76.9883L578.844 75.8945C580.527 75.4024 582.249 75.3684 583.941 75.8164L585.816 76.3242L587.691 76.8125C588.637 77.0618 589.563 77.1232 590.484 77.0078L594.234 76.5391C595.529 76.377 596.826 76.2579 598.121 76.168L599.996 76.0312L601.871 75.9141C603.32 75.8136 604.766 75.8828 606.207 76.1289L608.082 76.4414L609.957 76.7734C610.884 76.9321 611.814 76.902 612.75 76.6953L616.5 75.875C617.981 75.5476 619.476 75.4328 620.973 75.543L624.723 75.8164C625.887 75.9024 627.055 75.9255 628.219 75.8945L630.094 75.8555L631.969 75.7969C633.184 75.7643 634.406 75.7016 635.621 75.6211L639.371 75.3867C640.911 75.2846 642.45 75.4349 643.961 75.8555L647.711 76.9102C648.534 77.1396 649.334 77.1455 650.152 76.9297L652.027 76.4414L653.902 75.9336C655.436 75.5285 656.991 75.4158 658.551 75.582L662.301 75.9727C663.494 76.1005 664.702 76.2003 665.895 76.2461L667.77 76.3047L669.645 76.3828C670.701 76.4229 671.762 76.348 672.828 76.1484L676.578 75.4453C678.04 75.1712 679.521 75.0775 680.992 75.1914L682.867 75.3477L684.742 75.4844C685.882 75.5723 687.021 75.5828 688.16 75.5234L691.91 75.3281C693.31 75.2551 694.712 75.3061 696.109 75.4844L697.984 75.7383L699.859 75.9727C701.026 76.1215 702.191 76.2142 703.355 76.2461L705.23 76.2852L707.105 76.3438C708.474 76.381 709.844 76.5208 711.207 76.7539L713.082 77.0664L714.957 77.3984C715.92 77.5634 716.883 77.5496 717.848 77.3789L721.598 76.7148C723.127 76.443 724.676 76.4409 726.207 76.6953L729.957 77.3203C731.009 77.4946 732.056 77.5357 733.102 77.457L736.852 77.1836C737.959 77.1001 739.073 76.9102 740.191 76.6367L742.066 76.1875L743.941 75.7188C745.394 75.3632 746.865 75.2022 748.336 75.2305L752.086 75.3086C753.574 75.3377 755.061 75.5711 756.52 76.0117L760.27 77.1445C761.102 77.3953 761.9 77.4129 762.711 77.2227L764.586 76.793L766.461 76.3438C768.01 75.9784 769.583 75.9034 771.148 76.1289L774.898 76.6758C776.141 76.8548 777.387 77.0162 778.629 77.1836L782.379 77.6914C783.452 77.8359 784.531 77.8748 785.602 77.7891L789.352 77.4766C790.535 77.3816 791.721 77.2524 792.906 77.0664L796.656 76.4805C798.096 76.2545 799.547 76.1933 800.992 76.3047L802.867 76.4414L804.742 76.5977C805.792 76.6779 806.851 76.6292 807.906 76.4609L809.781 76.168L811.656 75.8555C813.287 75.5967 814.923 75.7272 816.52 76.207L818.395 76.7734L820.27 77.3203C821.241 77.6117 822.186 77.7342 823.121 77.6719L824.996 77.5352L826.871 77.418C828.027 77.3403 829.188 77.1954 830.348 76.9883L834.098 76.3242C835.58 76.0592 837.081 76.0061 838.57 76.168L842.32 76.5586C843.577 76.6953 844.833 76.8539 846.09 77.0078L847.965 77.2422L849.84 77.457C850.939 77.5917 852.044 77.622 853.141 77.5547L855.016 77.457L856.891 77.3398C858.271 77.2552 859.652 77.2672 861.031 77.3984L862.906 77.5742L864.781 77.7695C865.657 77.8525 866.548 77.7334 867.477 77.418L869.352 76.793L871.227 76.1484C872.769 75.623 874.359 75.4033 875.953 75.5039L879.703 75.7383C881.101 75.8267 882.496 76.0265 883.883 76.3633L885.758 76.832L887.633 77.2812C888.484 77.4881 889.317 77.4802 890.172 77.2617L892.047 76.793L893.922 76.3047C895.381 75.9319 896.856 75.7531 898.336 75.7773L900.211 75.8164L902.086 75.8359C903.308 75.8559 904.535 75.855 905.758 75.8359L907.633 75.8164L909.508 75.7773C910.967 75.755 912.421 75.9224 913.863 76.2656L917.613 77.1641C918.452 77.3641 919.285 77.3555 920.133 77.125L923.883 76.1094C925.347 75.7109 926.828 75.5086 928.316 75.5234L932.066 75.5625C933.271 75.5745 934.475 75.5536 935.68 75.5039L939.43 75.3477C940.936 75.2854 942.44 75.4644 943.922 75.8555L947.672 76.832C948.72 77.1092 949.771 77.2431 950.797 77.2422H954.547C955.606 77.2407 956.677 77.1321 957.75 76.8906L959.625 76.4609L961.5 76.0508C962.926 75.7302 964.357 75.5566 965.797 75.5625L967.672 75.582H969.547C970.847 75.5878 972.154 75.6304 973.453 75.7188L975.328 75.8555L977.203 75.9727C978.54 76.0638 979.893 76.2296 981.227 76.4609L984.977 77.125C985.878 77.2801 986.775 77.2319 987.691 77.0078L989.566 76.5586L991.441 76.0898C992.95 75.7202 994.486 75.6124 996.031 75.7383L997.945 75.8945L999.879 76.0508C1000.4 76.0916 1000.8 75.9462 1001.25 75.5039L1002.67 74.1172L1004.1 72.7109C1004.51 72.3022 1004.62 71.9284 1004.57 71.4023L1004.37 69.4492L1004.16 67.4961C1003.99 65.9536 1004.07 64.4277 1004.37 62.9258L1005.11 59.1758C1005.34 58.0713 1005.47 56.9706 1005.48 55.875L1005.5 54L1005.54 52.125C1005.56 51.1139 1005.43 50.0932 1005.15 49.0586L1004.66 47.1836L1004.16 45.3086C1003.78 43.9071 1003.55 42.4873 1003.45 41.0703L1003.22 37.3203C1003.12 35.737 1003.32 34.1685 1003.82 32.6328L1005.07 28.8828C1005.38 27.9691 1005.45 27.0911 1005.35 26.2266L1005.13 24.3516L1004.9 22.4766C1004.72 21.0484 1004.71 19.603 1004.84 18.1602L1005.02 16.2656L1005.19 14.3516C1005.25 13.7138 1005.09 13.2135 1004.7 12.7109L1003.55 11.1875L1002.38 9.68359C1001.88 9.04088 1001.34 8.66969 1000.74 8.47266L999.059 7.92578L997.398 7.37891C996.646 7.13176 995.819 7.04644 994.898 7.14453L991.148 7.53516C989.81 7.67889 988.465 7.74993 987.125 7.75H983.375C981.993 7.75007 980.612 7.65532 979.234 7.4375L977.359 7.14453L975.484 6.83203C974.516 6.67907 973.546 6.69128 972.574 6.87109L968.824 7.57422C967.384 7.84022 965.937 7.93053 964.488 7.84766L962.613 7.75L960.738 7.63281C959.276 7.54863 957.818 7.28189 956.383 6.83203L954.508 6.24609L952.633 5.64062C951.74 5.3603 950.869 5.30783 950.016 5.44531L948.141 5.73828L946.266 6.05078C945.042 6.24815 943.818 6.46484 942.594 6.69531L938.844 7.39844C937.216 7.70493 935.568 7.63906 933.961 7.20312L930.211 6.1875C929.228 5.92173 928.257 5.82354 927.301 5.89453L923.551 6.16797C922.333 6.25848 921.116 6.36929 919.898 6.5L918.023 6.71484L916.148 6.91016C914.603 7.0762 913.045 6.97208 911.52 6.59766L909.645 6.12891L907.77 5.67969C906.941 5.47755 906.127 5.48635 905.289 5.71875L903.414 6.22656L901.539 6.75391C899.87 7.21593 898.174 7.22999 896.5 6.79297L892.75 5.81641C891.974 5.61308 891.208 5.63206 890.406 5.89453L888.531 6.5L886.656 7.125C885.127 7.62599 883.564 7.83611 881.988 7.75L880.113 7.65234L878.238 7.53516C876.956 7.46504 875.673 7.3838 874.391 7.26172L872.516 7.06641L870.641 6.89062C869.399 6.77237 868.151 6.66378 866.91 6.55859L863.16 6.24609C861.871 6.13675 860.582 5.98962 859.293 5.81641L855.543 5.30859C854.629 5.18582 853.709 5.2521 852.77 5.50391L850.895 6.01172L849.02 6.5C847.554 6.89293 846.076 7.09184 844.586 7.06641L842.711 7.02734L840.836 7.00781C839.468 6.98409 838.098 6.85198 836.734 6.63672L832.984 6.05078C832.035 5.90098 831.09 5.93013 830.133 6.12891L828.258 6.5L826.383 6.89062C824.716 7.23691 823.042 7.16884 821.402 6.67578L817.652 5.54297C816.651 5.24191 815.671 5.10318 814.703 5.13281L810.953 5.25C809.879 5.28307 808.799 5.43984 807.711 5.69922L803.961 6.59766C802.425 6.96428 800.866 7.04949 799.312 6.85156L797.438 6.59766L795.562 6.36328C794.297 6.20154 793.02 6.02229 791.754 5.83594L788.004 5.28906C787.112 5.15874 786.209 5.20826 785.289 5.46484L781.539 6.51953C780.081 6.9255 778.608 7.12971 777.125 7.125H775.25L773.375 7.10547C772.194 7.10101 771.002 7.15152 769.82 7.24219L767.945 7.37891L766.07 7.53516C764.555 7.65149 763.035 7.52018 761.539 7.16406L759.664 6.71484L757.789 6.28516C756.702 6.02668 755.62 5.86699 754.547 5.83594L752.672 5.79688L750.797 5.73828C749.54 5.7019 748.284 5.65054 747.027 5.60156L745.152 5.52344L743.277 5.46484C742.227 5.4239 741.175 5.5081 740.113 5.71875L736.363 6.46094C734.918 6.74774 733.464 6.86127 732.008 6.79297L730.133 6.69531L728.258 6.61719C727.021 6.55914 725.784 6.502 724.547 6.46094L720.797 6.34375C719.568 6.30298 718.334 6.27769 717.105 6.26562L713.355 6.22656C712.077 6.21405 710.786 6.16491 709.508 6.10938L705.758 5.95312C704.779 5.91151 703.794 6.03238 702.789 6.30469L699.039 7.32031C697.521 7.7326 695.975 7.87204 694.43 7.75L692.555 7.61328L690.68 7.45703C689.347 7.35173 688.005 7.18661 686.676 6.94922L682.926 6.28516C681.759 6.07707 680.593 5.92603 679.43 5.83594L677.555 5.67969L675.68 5.54297C674.523 5.4535 673.359 5.42478 672.203 5.46484L670.328 5.52344L668.453 5.60156C667.105 5.64793 665.757 5.60283 664.41 5.48438L662.535 5.32812L660.66 5.15234C659.799 5.07646 658.91 5.1862 657.984 5.52344L656.109 6.22656L654.234 6.91016C652.665 7.48316 651.043 7.71113 649.41 7.57422L645.66 7.26172C644.444 7.15986 643.224 7.08186 642.008 7.02734L640.133 6.94922L638.258 6.85156C636.962 6.79336 635.666 6.71096 634.371 6.57812L630.621 6.1875C629.368 6.0589 628.105 5.93036 626.852 5.79688L624.977 5.58203L623.102 5.38672C622.249 5.29723 621.378 5.41257 620.465 5.73828L616.715 7.06641C615.106 7.64025 613.443 7.82614 611.773 7.59375L609.898 7.33984L608.023 7.06641C606.748 6.88877 605.47 6.70301 604.195 6.48047L600.445 5.81641C599.419 5.63725 598.398 5.59622 597.379 5.69922L593.629 6.08984C592.173 6.23728 590.707 6.206 589.254 5.99219L587.379 5.69922L585.504 5.42578C584.651 5.30152 583.784 5.37041 582.887 5.66016L579.137 6.87109C577.418 7.42537 575.654 7.46978 573.922 6.96875L570.172 5.875C569.273 5.61654 568.404 5.57823 567.535 5.71875L565.66 6.01172L563.785 6.32422C562.34 6.55961 560.881 6.61495 559.43 6.5L557.555 6.34375L555.68 6.20703C554.699 6.12919 553.711 6.20488 552.711 6.44141L548.961 7.33984C547.392 7.71225 545.797 7.76278 544.215 7.49609L542.34 7.16406L540.465 6.85156C539.436 6.67752 538.402 6.64741 537.379 6.75391L533.629 7.14453C532.34 7.27867 531.051 7.39097 529.762 7.45703L527.887 7.53516L526.012 7.63281C524.656 7.70208 523.284 7.69575 521.93 7.59375L520.055 7.45703L518.18 7.30078C516.969 7.20972 515.758 7.14543 514.547 7.10547L510.797 6.98828C509.62 6.94949 508.439 6.96739 507.262 7.02734L505.387 7.10547L503.512 7.20312C502.036 7.27856 500.558 7.15238 499.098 6.83203L495.348 6.01172C494.508 5.82725 493.667 5.84682 492.809 6.08984L490.934 6.63672L489.059 7.16406C487.615 7.57372 486.151 7.80953 484.684 7.84766L482.809 7.88672L480.934 7.94531C479.438 7.98352 477.951 7.79562 476.48 7.39844L472.73 6.38281C471.792 6.12867 470.869 6.06819 469.957 6.1875L468.082 6.42188L466.207 6.67578C464.745 6.86811 463.275 6.86038 461.812 6.67578L458.062 6.20703C456.892 6.05926 455.716 5.96737 454.547 5.93359L452.672 5.875L450.797 5.83594C449.785 5.80725 448.763 5.90833 447.73 6.16797L445.855 6.63672L443.98 7.125C442.405 7.52048 440.808 7.58499 439.215 7.32031L435.465 6.69531C434.387 6.5163 433.313 6.44915 432.242 6.5L430.367 6.59766L428.492 6.67578C427.203 6.73697 425.914 6.77548 424.625 6.77344H420.875C419.554 6.77128 418.23 6.69647 416.91 6.57812L415.035 6.42188L413.16 6.24609C412.138 6.15428 411.105 6.19386 410.074 6.38281L406.324 7.08594C404.968 7.33449 403.603 7.48843 402.242 7.55469L400.367 7.63281L398.492 7.73047C397.021 7.80172 395.554 7.67853 394.098 7.35938L390.348 6.53906C389.346 6.31908 388.346 6.25024 387.359 6.34375L383.609 6.69531C382.183 6.83039 380.757 6.82561 379.332 6.65625L377.457 6.42188L375.582 6.20703C374.432 6.07011 373.273 6.00834 372.125 6.01172H368.375C367.299 6.01537 366.218 6.12333 365.133 6.34375L361.383 7.125C359.744 7.45873 358.082 7.38995 356.461 6.94922L352.711 5.93359C351.817 5.69145 350.947 5.65661 350.074 5.81641L348.199 6.14844L346.324 6.5C344.726 6.79242 343.124 6.73084 341.539 6.34375L339.664 5.89453L337.789 5.42578C337.03 5.24011 336.269 5.2755 335.465 5.5625L333.59 6.24609L331.715 6.91016C330.117 7.481 328.472 7.68577 326.812 7.47656L324.938 7.24219L323.062 6.98828C321.826 6.83219 320.588 6.69596 319.352 6.55859L317.477 6.34375L315.602 6.14844C314.606 6.03788 313.599 6.06986 312.594 6.26562L310.719 6.63672L308.844 6.98828C307.398 7.26939 305.945 7.38541 304.488 7.30078L300.738 7.06641C299.381 6.98674 298.009 6.83264 296.656 6.57812L292.906 5.875C291.853 5.67724 290.805 5.60128 289.762 5.66016L287.887 5.75781L286.012 5.875C284.83 5.94179 283.64 6.04483 282.457 6.20703L280.582 6.46094L278.707 6.73438C277.247 6.93382 275.774 6.93253 274.312 6.75391L272.438 6.53906L270.562 6.30469C269.308 6.15131 268.047 5.98106 266.793 5.81641L264.918 5.58203L263.043 5.32812C261.928 5.18216 260.815 5.11857 259.703 5.15234L255.953 5.26953C254.851 5.30313 253.744 5.44929 252.633 5.67969L250.758 6.05078L248.883 6.44141C247.569 6.7139 246.254 6.94364 244.938 7.10547L243.062 7.33984L241.188 7.55469C239.766 7.72923 238.334 7.75759 236.91 7.63281L235.035 7.47656L233.16 7.30078C231.879 7.18824 230.594 7.05231 229.312 6.89062L225.562 6.42188C224.56 6.29542 223.561 6.32872 222.555 6.5L218.805 7.125C217.219 7.39582 215.612 7.34122 214.039 6.96875L212.164 6.53906L210.289 6.08984C209.439 5.88995 208.605 5.89158 207.75 6.10938L205.875 6.59766L204 7.06641C202.492 7.4521 200.961 7.59907 199.43 7.47656L195.68 7.16406C194.575 7.0752 193.465 7.08346 192.359 7.18359L188.609 7.53516C187.083 7.67403 185.546 7.56204 184.039 7.20312L180.289 6.30469C179.183 6.04153 178.083 5.87861 176.988 5.81641L175.113 5.69922L173.238 5.60156C172.127 5.53875 171.011 5.55953 169.898 5.67969L168.023 5.89453L166.148 6.08984C164.94 6.22064 163.725 6.38582 162.516 6.57812L158.766 7.16406C157.363 7.38706 155.955 7.47953 154.547 7.4375L152.672 7.39844L150.797 7.33984C149.634 7.30525 148.464 7.3323 147.301 7.41797L143.551 7.69141C142.11 7.7969 140.669 7.72813 139.234 7.49609L137.359 7.18359L135.484 6.89062C134.221 6.68566 132.939 6.47231 131.676 6.24609L129.801 5.89453L127.926 5.5625C126.88 5.37596 125.839 5.31448 124.801 5.38672L121.051 5.66016C119.911 5.73971 118.759 5.89708 117.613 6.12891L115.738 6.5L113.863 6.89062C112.285 7.20887 110.694 7.2014 109.117 6.87109L107.242 6.48047L105.367 6.07031C104.295 5.84513 103.224 5.74534 102.164 5.75781L98.4141 5.79688C97.2928 5.81071 96.1616 5.92229 95.0352 6.10938L91.2852 6.73438C89.7982 6.98134 88.3037 6.99978 86.8125 6.8125L83.0625 6.34375C82.0139 6.21219 80.9661 6.21963 79.918 6.34375L76.168 6.77344C74.7364 6.94298 73.3035 6.96277 71.8711 6.8125L68.1211 6.42188C66.8866 6.29185 65.6446 6.16027 64.4102 6.05078L62.5352 5.89453L60.6602 5.71875C59.4777 5.6139 58.2872 5.57053 57.1055 5.5625L53.3555 5.52344C52.0597 5.51458 50.7642 5.4698 49.4688 5.38672L45.7188 5.15234C44.6694 5.08499 43.6118 5.14255 42.5547 5.32812L38.8047 5.99219C37.5039 6.22046 36.2007 6.39661 34.8984 6.53906L33.0234 6.75391L31.1484 6.94922C29.8345 7.0929 28.5182 7.18458 27.2031 7.22266L23.4531 7.33984C22.0803 7.37942 20.7025 7.30665 19.332 7.14453L17.457 6.92969L15.582 6.69531C14.9272 6.61784 14.3435 6.54354 13.8633 6.44141C13.5858 6.38209 13.073 6.22837 12.5742 5.97266C12.4972 6.02349 12.4119 6.08495 12.3203 6.14844L10.6992 7.26172L9.07812 8.39453C8.4363 8.83992 8.07413 9.35513 7.88672 9.97656L7.33984 11.7734L6.8125 13.5508C6.48977 14.6209 6.24765 15.7268 6.08984 16.8516L5.81641 18.7266L5.5625 20.6016C5.43901 21.485 5.50573 22.3791 5.77734 23.2969L6.32422 25.1719L6.89062 27.0469C7.33983 28.5677 7.52336 30.12 7.41797 31.6758L7.28125 33.5508L7.16406 35.4258C7.07661 36.7154 6.94585 38.004 6.79297 39.293L6.57812 41.168L6.34375 43.043C6.21742 44.1078 6.21132 45.182 6.32422 46.2461L6.51953 48.1211L6.73438 49.9961C6.89189 51.4899 6.82192 52.984 6.53906 54.4688L6.1875 56.3438L5.81641 58.2188C5.60737 59.3166 5.50417 60.4105 5.50391 61.5V65.25Z" fill="#FFCA39"/>
</svg>
